%TF.GenerationSoftware,KiCad,Pcbnew,(6.0.9)*%
%TF.CreationDate,2022-12-14T16:33:37-05:00*%
%TF.ProjectId,Game_Cat_R3,47616d65-5f43-4617-945f-52332e6b6963,3.5*%
%TF.SameCoordinates,Original*%
%TF.FileFunction,Paste,Bot*%
%TF.FilePolarity,Positive*%
%FSLAX46Y46*%
G04 Gerber Fmt 4.6, Leading zero omitted, Abs format (unit mm)*
G04 Created by KiCad (PCBNEW (6.0.9)) date 2022-12-14 16:33:37*
%MOMM*%
%LPD*%
G01*
G04 APERTURE LIST*
G04 Aperture macros list*
%AMRoundRect*
0 Rectangle with rounded corners*
0 $1 Rounding radius*
0 $2 $3 $4 $5 $6 $7 $8 $9 X,Y pos of 4 corners*
0 Add a 4 corners polygon primitive as box body*
4,1,4,$2,$3,$4,$5,$6,$7,$8,$9,$2,$3,0*
0 Add four circle primitives for the rounded corners*
1,1,$1+$1,$2,$3*
1,1,$1+$1,$4,$5*
1,1,$1+$1,$6,$7*
1,1,$1+$1,$8,$9*
0 Add four rect primitives between the rounded corners*
20,1,$1+$1,$2,$3,$4,$5,0*
20,1,$1+$1,$4,$5,$6,$7,0*
20,1,$1+$1,$6,$7,$8,$9,0*
20,1,$1+$1,$8,$9,$2,$3,0*%
G04 Aperture macros list end*
%TA.AperFunction,Profile*%
%ADD10C,0.100000*%
%TD*%
%TA.AperFunction,Profile*%
%ADD11C,0.200000*%
%TD*%
%ADD12RoundRect,0.224600X0.312500X0.625000X-0.312500X0.625000X-0.312500X-0.625000X0.312500X-0.625000X0*%
%ADD13RoundRect,0.124600X0.512500X0.150000X-0.512500X0.150000X-0.512500X-0.150000X0.512500X-0.150000X0*%
%ADD14RoundRect,0.224600X-0.425000X0.450000X-0.425000X-0.450000X0.425000X-0.450000X0.425000X0.450000X0*%
%ADD15RoundRect,0.224600X0.625000X-0.312500X0.625000X0.312500X-0.625000X0.312500X-0.625000X-0.312500X0*%
%ADD16RoundRect,0.224600X0.425000X-0.450000X0.425000X0.450000X-0.425000X0.450000X-0.425000X-0.450000X0*%
%ADD17R,0.949200X0.949200*%
%ADD18RoundRect,0.224600X-0.250000X-0.475000X0.250000X-0.475000X0.250000X0.475000X-0.250000X0.475000X0*%
%ADD19R,0.599200X1.169200*%
%ADD20R,0.949200X3.449200*%
%ADD21R,1.449200X3.349200*%
G04 APERTURE END LIST*
D10*
X92730000Y-126550000D02*
G75*
G03*
X92730000Y-126550000I-1500000J0D01*
G01*
X192730000Y-71550000D02*
G75*
G03*
X192730000Y-71550000I-1500000J0D01*
G01*
X192730000Y-126550000D02*
G75*
G03*
X192730000Y-126550000I-1500000J0D01*
G01*
D11*
X93032851Y-99092749D02*
G75*
G03*
X93032851Y-99092749I-1796051J0D01*
G01*
X193058051Y-99060000D02*
G75*
G03*
X193058051Y-99060000I-1796051J0D01*
G01*
D10*
X61230000Y-99050000D02*
G75*
G03*
X91230000Y-129050000I30000000J0D01*
G01*
X91230000Y-69050000D02*
G75*
G03*
X61230000Y-99050000I0J-30000000D01*
G01*
X191230000Y-129050000D02*
X91230000Y-129050000D01*
X221230000Y-99050000D02*
G75*
G03*
X191230000Y-69050000I-30000000J0D01*
G01*
X91230000Y-69050000D02*
X191230000Y-69050000D01*
X92730000Y-71550000D02*
G75*
G03*
X92730000Y-71550000I-1500000J0D01*
G01*
X191230000Y-129050000D02*
G75*
G03*
X221230000Y-99050000I0J30000000D01*
G01*
D12*
%TO.C,R41*%
X163961000Y-74422000D03*
X161036000Y-74422000D03*
%TD*%
D13*
%TO.C,U9*%
X169772711Y-81339512D03*
X169772711Y-82289512D03*
X169772711Y-83239512D03*
X167497711Y-83239512D03*
X167497711Y-81339512D03*
%TD*%
D14*
%TO.C,C21*%
X172300000Y-89000000D03*
X172300000Y-91700000D03*
%TD*%
D15*
%TO.C,R42*%
X130048000Y-80456500D03*
X130048000Y-77531500D03*
%TD*%
D12*
%TO.C,R40*%
X169268715Y-78164520D03*
X166343715Y-78164520D03*
%TD*%
D16*
%TO.C,C20*%
X172312714Y-86396660D03*
X172312714Y-83696660D03*
%TD*%
D15*
%TO.C,R43*%
X142494000Y-80456500D03*
X142494000Y-77531500D03*
%TD*%
D17*
%TO.C,D6*%
X166216711Y-89828512D03*
X166216711Y-87328512D03*
%TD*%
D15*
%TO.C,R39*%
X172185714Y-80897021D03*
X172185714Y-77972021D03*
%TD*%
D18*
%TO.C,C26*%
X165547000Y-110871000D03*
X167447000Y-110871000D03*
%TD*%
D19*
%TO.C,Q8*%
X167679713Y-85576241D03*
X169579713Y-85576241D03*
X168629713Y-88196241D03*
%TD*%
D20*
%TO.C,BT1*%
X183626000Y-72517000D03*
X181626000Y-72517000D03*
D21*
X185976000Y-78267000D03*
X179276000Y-78267000D03*
%TD*%
M02*
