%TF.GenerationSoftware,KiCad,Pcbnew,(6.0.7)*%
%TF.CreationDate,2022-08-17T15:13:06-05:00*%
%TF.ProjectId,Game_Cat_R3,47616d65-5f43-4617-945f-52332e6b6963,3.5*%
%TF.SameCoordinates,Original*%
%TF.FileFunction,Drillmap*%
%TF.FilePolarity,Positive*%
%FSLAX45Y45*%
G04 Gerber Fmt 4.5, Leading zero omitted, Abs format (unit mm)*
G04 Created by KiCad (PCBNEW (6.0.7)) date 2022-08-17 15:13:06*
%MOMM*%
%LPD*%
G01*
G04 APERTURE LIST*
%ADD10C,0.100000*%
%ADD11C,0.200000*%
%ADD12C,0.050800*%
%ADD13C,0.058420*%
%ADD14C,0.063500*%
%ADD15C,0.076000*%
%ADD16C,0.080000*%
%ADD17C,0.080010*%
%ADD18C,0.081280*%
%ADD19C,0.088900*%
%ADD20C,0.089916*%
%ADD21C,0.101600*%
%ADD22C,0.110000*%
%ADD23C,0.119380*%
%ADD24C,0.139700*%
%ADD25C,0.228600*%
G04 APERTURE END LIST*
D10*
X9273000Y-12655000D02*
G75*
G03*
X9273000Y-12655000I-150000J0D01*
G01*
X19273000Y-7155000D02*
G75*
G03*
X19273000Y-7155000I-150000J0D01*
G01*
X19273000Y-12655000D02*
G75*
G03*
X19273000Y-12655000I-150000J0D01*
G01*
D11*
X9303285Y-9909275D02*
G75*
G03*
X9303285Y-9909275I-179605J0D01*
G01*
X19305805Y-9906000D02*
G75*
G03*
X19305805Y-9906000I-179605J0D01*
G01*
D10*
X6123000Y-9905000D02*
G75*
G03*
X9123000Y-12905000I3000000J0D01*
G01*
X9123000Y-6905000D02*
G75*
G03*
X6123000Y-9905000I0J-3000000D01*
G01*
X19123000Y-12905000D02*
X9123000Y-12905000D01*
X22123000Y-9905000D02*
G75*
G03*
X19123000Y-6905000I-3000000J0D01*
G01*
X9123000Y-6905000D02*
X19123000Y-6905000D01*
X9273000Y-7155000D02*
G75*
G03*
X9273000Y-7155000I-150000J0D01*
G01*
X19123000Y-12905000D02*
G75*
G03*
X22123000Y-9905000I0J3000000D01*
G01*
D11*
D12*
X9055100Y-11728450D02*
X9105900Y-11779250D01*
X9105900Y-11728450D02*
X9055100Y-11779250D01*
X10236200Y-10591800D02*
X10287000Y-10642600D01*
X10287000Y-10591800D02*
X10236200Y-10642600D01*
X10236200Y-11728450D02*
X10287000Y-11779250D01*
X10287000Y-11728450D02*
X10236200Y-11779250D01*
X10769600Y-9956003D02*
X10820400Y-10006803D01*
X10820400Y-9956003D02*
X10769600Y-10006803D01*
X10891520Y-9956800D02*
X10942320Y-10007600D01*
X10942320Y-9956800D02*
X10891520Y-10007600D01*
X11074400Y-12090400D02*
X11125200Y-12141200D01*
X11125200Y-12090400D02*
X11074400Y-12141200D01*
X11074400Y-12484100D02*
X11125200Y-12534900D01*
X11125200Y-12484100D02*
X11074400Y-12534900D01*
X11785600Y-7467600D02*
X11836400Y-7518400D01*
X11836400Y-7467600D02*
X11785600Y-7518400D01*
X12344400Y-9550400D02*
X12395200Y-9601200D01*
X12395200Y-9550400D02*
X12344400Y-9601200D01*
X12471400Y-9550400D02*
X12522200Y-9601200D01*
X12522200Y-9550400D02*
X12471400Y-9601200D01*
X12611096Y-11150600D02*
X12661896Y-11201400D01*
X12661896Y-11150600D02*
X12611096Y-11201400D01*
X12611100Y-10985299D02*
X12661900Y-11036099D01*
X12661900Y-10985299D02*
X12611100Y-11036099D01*
X12669720Y-8808720D02*
X12720520Y-8859520D01*
X12720520Y-8808720D02*
X12669720Y-8859520D01*
X12738096Y-11150802D02*
X12788896Y-11201601D01*
X12788896Y-11150802D02*
X12738096Y-11201601D01*
X12738100Y-10985500D02*
X12788900Y-11036300D01*
X12788900Y-10985500D02*
X12738100Y-11036300D01*
X12740640Y-8279384D02*
X12791440Y-8330184D01*
X12791440Y-8279384D02*
X12740640Y-8330184D01*
X12865096Y-11149600D02*
X12915896Y-11200400D01*
X12915896Y-11149600D02*
X12865096Y-11200400D01*
X12865100Y-10984299D02*
X12915900Y-11035099D01*
X12915900Y-10984299D02*
X12865100Y-11035099D01*
X12940125Y-9220200D02*
X12990925Y-9271000D01*
X12990925Y-9220200D02*
X12940125Y-9271000D01*
X13156130Y-8808720D02*
X13206930Y-8859520D01*
X13206930Y-8808720D02*
X13156130Y-8859520D01*
X13195300Y-9220200D02*
X13246100Y-9271000D01*
X13246100Y-9220200D02*
X13195300Y-9271000D01*
X13233400Y-8281924D02*
X13284200Y-8332724D01*
X13284200Y-8281924D02*
X13233400Y-8332724D01*
X13345160Y-8808720D02*
X13395960Y-8859520D01*
X13395960Y-8808720D02*
X13345160Y-8859520D01*
X13411174Y-11275060D02*
X13461974Y-11325860D01*
X13461974Y-11275060D02*
X13411174Y-11325860D01*
X13411200Y-11173460D02*
X13462000Y-11224260D01*
X13462000Y-11173460D02*
X13411200Y-11224260D01*
X13474005Y-8915400D02*
X13524805Y-8966200D01*
X13524805Y-8915400D02*
X13474005Y-8966200D01*
X13479780Y-8999220D02*
X13530580Y-9050020D01*
X13530580Y-8999220D02*
X13479780Y-9050020D01*
X13703300Y-8281924D02*
X13754100Y-8332724D01*
X13754100Y-8281924D02*
X13703300Y-8332724D01*
X13813590Y-8808719D02*
X13864390Y-8859519D01*
X13864390Y-8808719D02*
X13813590Y-8859519D01*
X13830300Y-9296400D02*
X13881100Y-9347200D01*
X13881100Y-9296400D02*
X13830300Y-9347200D01*
X14178280Y-8281924D02*
X14229080Y-8332724D01*
X14229080Y-8281924D02*
X14178280Y-8332724D01*
X14617700Y-11493500D02*
X14668500Y-11544300D01*
X14668500Y-11493500D02*
X14617700Y-11544300D01*
X14935200Y-9315650D02*
X14986000Y-9366450D01*
X14986000Y-9315650D02*
X14935200Y-9366450D01*
X15087600Y-11178540D02*
X15138400Y-11229340D01*
X15138400Y-11178540D02*
X15087600Y-11229340D01*
X15392400Y-12052300D02*
X15443200Y-12103100D01*
X15443200Y-12052300D02*
X15392400Y-12103100D01*
X15646400Y-9067800D02*
X15697200Y-9118600D01*
X15697200Y-9067800D02*
X15646400Y-9118600D01*
X15697200Y-12268200D02*
X15748000Y-12319000D01*
X15748000Y-12268200D02*
X15697200Y-12319000D01*
X15849600Y-9601200D02*
X15900400Y-9652000D01*
X15900400Y-9601200D02*
X15849600Y-9652000D01*
X16167100Y-11988800D02*
X16217900Y-12039600D01*
X16217900Y-11988800D02*
X16167100Y-12039600D01*
X16332200Y-8873900D02*
X16383000Y-8924700D01*
X16383000Y-8873900D02*
X16332200Y-8924700D01*
X16383000Y-10561322D02*
X16433800Y-10612122D01*
X16433800Y-10561322D02*
X16383000Y-10612122D01*
X16510000Y-10439400D02*
X16560800Y-10490200D01*
X16560800Y-10439400D02*
X16510000Y-10490200D01*
X16598900Y-12052300D02*
X16649700Y-12103100D01*
X16649700Y-12052300D02*
X16598900Y-12103100D01*
X16637000Y-10325100D02*
X16687800Y-10375900D01*
X16687800Y-10325100D02*
X16637000Y-10375900D01*
D13*
X10036810Y-11620500D02*
G75*
G03*
X10036810Y-11620500I-29210J0D01*
G01*
X10887710Y-11620500D02*
G75*
G03*
X10887710Y-11620500I-29210J0D01*
G01*
X11245850Y-11925221D02*
G75*
G03*
X11245850Y-11925221I-29210J0D01*
G01*
X11370310Y-11925300D02*
G75*
G03*
X11370310Y-11925300I-29210J0D01*
G01*
X11497310Y-11924301D02*
G75*
G03*
X11497310Y-11924301I-29210J0D01*
G01*
X11789410Y-11620500D02*
G75*
G03*
X11789410Y-11620500I-29210J0D01*
G01*
X13465810Y-9852411D02*
G75*
G03*
X13465810Y-9852411I-29210J0D01*
G01*
X13465810Y-10024042D02*
G75*
G03*
X13465810Y-10024042I-29210J0D01*
G01*
X13465810Y-10180916D02*
G75*
G03*
X13465810Y-10180916I-29210J0D01*
G01*
X13465810Y-11455400D02*
G75*
G03*
X13465810Y-11455400I-29210J0D01*
G01*
X13618210Y-9852411D02*
G75*
G03*
X13618210Y-9852411I-29210J0D01*
G01*
X13618210Y-10023238D02*
G75*
G03*
X13618210Y-10023238I-29210J0D01*
G01*
X13618210Y-10179309D02*
G75*
G03*
X13618210Y-10179309I-29210J0D01*
G01*
X13770610Y-9855200D02*
G75*
G03*
X13770610Y-9855200I-29210J0D01*
G01*
X13770610Y-10027678D02*
G75*
G03*
X13770610Y-10027678I-29210J0D01*
G01*
X13770610Y-10185400D02*
G75*
G03*
X13770610Y-10185400I-29210J0D01*
G01*
X14138910Y-10985500D02*
G75*
G03*
X14138910Y-10985500I-29210J0D01*
G01*
X16437610Y-11087100D02*
G75*
G03*
X16437610Y-11087100I-29210J0D01*
G01*
X17753330Y-7378400D02*
G75*
G03*
X17753330Y-7378400I-29210J0D01*
G01*
X17758410Y-7658400D02*
G75*
G03*
X17758410Y-7658400I-29210J0D01*
G01*
X19536410Y-7853680D02*
G75*
G03*
X19536410Y-7853680I-29210J0D01*
G01*
D14*
X14681200Y-7664450D02*
X14681200Y-7727950D01*
X14649450Y-7696200D02*
X14712950Y-7696200D01*
D15*
X10250370Y-8027870D02*
X10250370Y-7974130D01*
X10196630Y-7974130D01*
X10196630Y-8027870D01*
X10250370Y-8027870D01*
X10377370Y-8281870D02*
X10377370Y-8228130D01*
X10323630Y-8228130D01*
X10323630Y-8281870D01*
X10377370Y-8281870D01*
X10504370Y-8027870D02*
X10504370Y-7974130D01*
X10450630Y-7974130D01*
X10450630Y-8027870D01*
X10504370Y-8027870D01*
X10631370Y-8281870D02*
X10631370Y-8228130D01*
X10577630Y-8228130D01*
X10577630Y-8281870D01*
X10631370Y-8281870D01*
X10758370Y-8027870D02*
X10758370Y-7974130D01*
X10704630Y-7974130D01*
X10704630Y-8027870D01*
X10758370Y-8027870D01*
X10885370Y-8281870D02*
X10885370Y-8228130D01*
X10831630Y-8228130D01*
X10831630Y-8281870D01*
X10885370Y-8281870D01*
D16*
X17310100Y-11660500D02*
X17350100Y-11620500D01*
X17310100Y-11580500D01*
X17270100Y-11620500D01*
X17310100Y-11660500D01*
X17310100Y-11914500D02*
X17350100Y-11874500D01*
X17310100Y-11834500D01*
X17270100Y-11874500D01*
X17310100Y-11914500D01*
D17*
X13213995Y-12482195D02*
X13294005Y-12562205D01*
X13294005Y-12482195D02*
X13213995Y-12562205D01*
X13294005Y-12522200D02*
G75*
G03*
X13294005Y-12522200I-40005J0D01*
G01*
X13467995Y-12482195D02*
X13548005Y-12562205D01*
X13548005Y-12482195D02*
X13467995Y-12562205D01*
X13548005Y-12522200D02*
G75*
G03*
X13548005Y-12522200I-40005J0D01*
G01*
X13721995Y-12482195D02*
X13802005Y-12562205D01*
X13802005Y-12482195D02*
X13721995Y-12562205D01*
X13802005Y-12522200D02*
G75*
G03*
X13802005Y-12522200I-40005J0D01*
G01*
X13975995Y-12482195D02*
X14056005Y-12562205D01*
X14056005Y-12482195D02*
X13975995Y-12562205D01*
X14056005Y-12522200D02*
G75*
G03*
X14056005Y-12522200I-40005J0D01*
G01*
X14229995Y-12482195D02*
X14310005Y-12562205D01*
X14310005Y-12482195D02*
X14229995Y-12562205D01*
X14310005Y-12522200D02*
G75*
G03*
X14310005Y-12522200I-40005J0D01*
G01*
X14483995Y-12482195D02*
X14564005Y-12562205D01*
X14564005Y-12482195D02*
X14483995Y-12562205D01*
X14564005Y-12522200D02*
G75*
G03*
X14564005Y-12522200I-40005J0D01*
G01*
X14737995Y-12482195D02*
X14818005Y-12562205D01*
X14818005Y-12482195D02*
X14737995Y-12562205D01*
X14818005Y-12522200D02*
G75*
G03*
X14818005Y-12522200I-40005J0D01*
G01*
X14991995Y-12482195D02*
X15072005Y-12562205D01*
X15072005Y-12482195D02*
X14991995Y-12562205D01*
X15072005Y-12522200D02*
G75*
G03*
X15072005Y-12522200I-40005J0D01*
G01*
D18*
X15135860Y-8087360D02*
X15217140Y-8168640D01*
X15217140Y-8087360D02*
X15135860Y-8168640D01*
X15176500Y-8087360D02*
X15176500Y-8168640D01*
X15135860Y-8128000D02*
X15217140Y-8128000D01*
X15836900Y-7912100D02*
X15918180Y-7993380D01*
X15918180Y-7912100D02*
X15836900Y-7993380D01*
X15877540Y-7912100D02*
X15877540Y-7993380D01*
X15836900Y-7952740D02*
X15918180Y-7952740D01*
D19*
X8829258Y-10867390D02*
X8918158Y-10956290D01*
X8918158Y-10867390D02*
X8829258Y-10956290D01*
X8905139Y-10943271D02*
X8905139Y-10880409D01*
X8842277Y-10880409D01*
X8842277Y-10943271D01*
X8905139Y-10943271D01*
X9083258Y-10867390D02*
X9172158Y-10956290D01*
X9172158Y-10867390D02*
X9083258Y-10956290D01*
X9159139Y-10943271D02*
X9159139Y-10880409D01*
X9096277Y-10880409D01*
X9096277Y-10943271D01*
X9159139Y-10943271D01*
X9337258Y-10867390D02*
X9426158Y-10956290D01*
X9426158Y-10867390D02*
X9337258Y-10956290D01*
X9413139Y-10943271D02*
X9413139Y-10880409D01*
X9350277Y-10880409D01*
X9350277Y-10943271D01*
X9413139Y-10943271D01*
X10086558Y-9610090D02*
X10175458Y-9698990D01*
X10175458Y-9610090D02*
X10086558Y-9698990D01*
X10162439Y-9685971D02*
X10162439Y-9623109D01*
X10099577Y-9623109D01*
X10099577Y-9685971D01*
X10162439Y-9685971D01*
X10086558Y-9864090D02*
X10175458Y-9952990D01*
X10175458Y-9864090D02*
X10086558Y-9952990D01*
X10162439Y-9939971D02*
X10162439Y-9877109D01*
X10099577Y-9877109D01*
X10099577Y-9939971D01*
X10162439Y-9939971D01*
X10086558Y-10118090D02*
X10175458Y-10206990D01*
X10175458Y-10118090D02*
X10086558Y-10206990D01*
X10162439Y-10193971D02*
X10162439Y-10131109D01*
X10099577Y-10131109D01*
X10099577Y-10193971D01*
X10162439Y-10193971D01*
D20*
X7857750Y-9538582D02*
X7947666Y-9628498D01*
X7947666Y-9538582D02*
X7857750Y-9628498D01*
X7902708Y-9628498D02*
X7947666Y-9583540D01*
X7902708Y-9538582D01*
X7857750Y-9583540D01*
X7902708Y-9628498D01*
X7857750Y-10188582D02*
X7947666Y-10278498D01*
X7947666Y-10188582D02*
X7857750Y-10278498D01*
X7902708Y-10278498D02*
X7947666Y-10233540D01*
X7902708Y-10188582D01*
X7857750Y-10233540D01*
X7902708Y-10278498D01*
X8307750Y-9538582D02*
X8397666Y-9628498D01*
X8397666Y-9538582D02*
X8307750Y-9628498D01*
X8352708Y-9628498D02*
X8397666Y-9583540D01*
X8352708Y-9538582D01*
X8307750Y-9583540D01*
X8352708Y-9628498D01*
X8307750Y-10188582D02*
X8397666Y-10278498D01*
X8397666Y-10188582D02*
X8307750Y-10278498D01*
X8352708Y-10278498D02*
X8397666Y-10233540D01*
X8352708Y-10188582D01*
X8307750Y-10233540D01*
X8352708Y-10278498D01*
D10*
X8001000Y-7571000D02*
X8001000Y-7671000D01*
X7951000Y-7621000D02*
X8051000Y-7621000D01*
X8051000Y-7621000D02*
G75*
G03*
X8051000Y-7621000I-50000J0D01*
G01*
X8001000Y-8331000D02*
X8001000Y-8431000D01*
X7951000Y-8381000D02*
X8051000Y-8381000D01*
X8051000Y-8381000D02*
G75*
G03*
X8051000Y-8381000I-50000J0D01*
G01*
D21*
X12279145Y-7478121D02*
X12279145Y-7406279D01*
X12207302Y-7406279D01*
X12207302Y-7478121D01*
X12279145Y-7478121D01*
X12294023Y-7442200D02*
G75*
G03*
X12294023Y-7442200I-50800J0D01*
G01*
X12533145Y-7478121D02*
X12533145Y-7406279D01*
X12461302Y-7406279D01*
X12461302Y-7478121D01*
X12533145Y-7478121D01*
X12548023Y-7442200D02*
G75*
G03*
X12548023Y-7442200I-50800J0D01*
G01*
X12787145Y-7478121D02*
X12787145Y-7406279D01*
X12715302Y-7406279D01*
X12715302Y-7478121D01*
X12787145Y-7478121D01*
X12802023Y-7442200D02*
G75*
G03*
X12802023Y-7442200I-50800J0D01*
G01*
X13041145Y-7478121D02*
X13041145Y-7406279D01*
X12969302Y-7406279D01*
X12969302Y-7478121D01*
X13041145Y-7478121D01*
X13056023Y-7442200D02*
G75*
G03*
X13056023Y-7442200I-50800J0D01*
G01*
X13522898Y-7478121D02*
X13522898Y-7406279D01*
X13451055Y-7406279D01*
X13451055Y-7478121D01*
X13522898Y-7478121D01*
X13537777Y-7442200D02*
G75*
G03*
X13537777Y-7442200I-50800J0D01*
G01*
X13776898Y-7478121D02*
X13776898Y-7406279D01*
X13705055Y-7406279D01*
X13705055Y-7478121D01*
X13776898Y-7478121D01*
X13791777Y-7442200D02*
G75*
G03*
X13791777Y-7442200I-50800J0D01*
G01*
X14030898Y-7478121D02*
X14030898Y-7406279D01*
X13959055Y-7406279D01*
X13959055Y-7478121D01*
X14030898Y-7478121D01*
X14045777Y-7442200D02*
G75*
G03*
X14045777Y-7442200I-50800J0D01*
G01*
X14284898Y-7478121D02*
X14284898Y-7406279D01*
X14213055Y-7406279D01*
X14213055Y-7478121D01*
X14284898Y-7478121D01*
X14299777Y-7442200D02*
G75*
G03*
X14299777Y-7442200I-50800J0D01*
G01*
X16876121Y-7478121D02*
X16876121Y-7406279D01*
X16804279Y-7406279D01*
X16804279Y-7478121D01*
X16876121Y-7478121D01*
X16891000Y-7442200D02*
G75*
G03*
X16891000Y-7442200I-50800J0D01*
G01*
X17130121Y-7478121D02*
X17130121Y-7406279D01*
X17058279Y-7406279D01*
X17058279Y-7478121D01*
X17130121Y-7478121D01*
X17145000Y-7442200D02*
G75*
G03*
X17145000Y-7442200I-50800J0D01*
G01*
X17384121Y-7478121D02*
X17384121Y-7406279D01*
X17312279Y-7406279D01*
X17312279Y-7478121D01*
X17384121Y-7478121D01*
X17399000Y-7442200D02*
G75*
G03*
X17399000Y-7442200I-50800J0D01*
G01*
D22*
X6596091Y-9167995D02*
X6651091Y-9112995D01*
X6596091Y-9057995D01*
X6541091Y-9112995D01*
X6596091Y-9167995D01*
X6651091Y-9112995D02*
G75*
G03*
X6651091Y-9112995I-55000J0D01*
G01*
X6914289Y-9486193D02*
X6969289Y-9431193D01*
X6914289Y-9376193D01*
X6859289Y-9431193D01*
X6914289Y-9486193D01*
X6969289Y-9431193D02*
G75*
G03*
X6969289Y-9431193I-55000J0D01*
G01*
X7055711Y-8708375D02*
X7110711Y-8653375D01*
X7055711Y-8598375D01*
X7000711Y-8653375D01*
X7055711Y-8708375D01*
X7110711Y-8653375D02*
G75*
G03*
X7110711Y-8653375I-55000J0D01*
G01*
X7373909Y-9026573D02*
X7428909Y-8971573D01*
X7373909Y-8916573D01*
X7318909Y-8971573D01*
X7373909Y-9026573D01*
X7428909Y-8971573D02*
G75*
G03*
X7428909Y-8971573I-55000J0D01*
G01*
D23*
X17390758Y-9580494D02*
X17390758Y-9699874D01*
X17331068Y-9640184D02*
X17450448Y-9640184D01*
X17432966Y-9682392D02*
X17432966Y-9597977D01*
X17348551Y-9597977D01*
X17348551Y-9682392D01*
X17432966Y-9682392D01*
X17742784Y-9228468D02*
X17742784Y-9347848D01*
X17683094Y-9288158D02*
X17802474Y-9288158D01*
X17784992Y-9330366D02*
X17784992Y-9245951D01*
X17700577Y-9245951D01*
X17700577Y-9330366D01*
X17784992Y-9330366D01*
X18274416Y-10464152D02*
X18274416Y-10583532D01*
X18214726Y-10523842D02*
X18334106Y-10523842D01*
X18316623Y-10566049D02*
X18316623Y-10481634D01*
X18232208Y-10481634D01*
X18232208Y-10566049D01*
X18316623Y-10566049D01*
X18508358Y-8994526D02*
X18508358Y-9113906D01*
X18448668Y-9054216D02*
X18568048Y-9054216D01*
X18550566Y-9096423D02*
X18550566Y-9012008D01*
X18466151Y-9012008D01*
X18466151Y-9096423D01*
X18550566Y-9096423D01*
X18508358Y-11229726D02*
X18508358Y-11349106D01*
X18448668Y-11289416D02*
X18568048Y-11289416D01*
X18550566Y-11331623D02*
X18550566Y-11247208D01*
X18466151Y-11247208D01*
X18466151Y-11331623D01*
X18550566Y-11331623D01*
X18626442Y-10112126D02*
X18626442Y-10231506D01*
X18566752Y-10171816D02*
X18686132Y-10171816D01*
X18668649Y-10214023D02*
X18668649Y-10129608D01*
X18584234Y-10129608D01*
X18584234Y-10214023D01*
X18668649Y-10214023D01*
X18860384Y-9346552D02*
X18860384Y-9465932D01*
X18800694Y-9406242D02*
X18920074Y-9406242D01*
X18902592Y-9448449D02*
X18902592Y-9364034D01*
X18818177Y-9364034D01*
X18818177Y-9448449D01*
X18902592Y-9448449D01*
X18860384Y-11581752D02*
X18860384Y-11701132D01*
X18800694Y-11641442D02*
X18920074Y-11641442D01*
X18902592Y-11683649D02*
X18902592Y-11599234D01*
X18818177Y-11599234D01*
X18818177Y-11683649D01*
X18902592Y-11683649D01*
X19392016Y-8110868D02*
X19392016Y-8230248D01*
X19332326Y-8170558D02*
X19451706Y-8170558D01*
X19434223Y-8212766D02*
X19434223Y-8128351D01*
X19349808Y-8128351D01*
X19349808Y-8212766D01*
X19434223Y-8212766D01*
X19392016Y-10346068D02*
X19392016Y-10465448D01*
X19332326Y-10405758D02*
X19451706Y-10405758D01*
X19434223Y-10447966D02*
X19434223Y-10363551D01*
X19349808Y-10363551D01*
X19349808Y-10447966D01*
X19434223Y-10447966D01*
X19625958Y-9580494D02*
X19625958Y-9699874D01*
X19566268Y-9640184D02*
X19685648Y-9640184D01*
X19668166Y-9682392D02*
X19668166Y-9597977D01*
X19583751Y-9597977D01*
X19583751Y-9682392D01*
X19668166Y-9682392D01*
X19744042Y-8462894D02*
X19744042Y-8582274D01*
X19684352Y-8522584D02*
X19803732Y-8522584D01*
X19786249Y-8564792D02*
X19786249Y-8480377D01*
X19701834Y-8480377D01*
X19701834Y-8564792D01*
X19786249Y-8564792D01*
X19744042Y-10698094D02*
X19744042Y-10817474D01*
X19684352Y-10757784D02*
X19803732Y-10757784D01*
X19786249Y-10799992D02*
X19786249Y-10715577D01*
X19701834Y-10715577D01*
X19701834Y-10799992D01*
X19786249Y-10799992D01*
X19977984Y-9228468D02*
X19977984Y-9347848D01*
X19918294Y-9288158D02*
X20037674Y-9288158D01*
X20020192Y-9330366D02*
X20020192Y-9245951D01*
X19935777Y-9245951D01*
X19935777Y-9330366D01*
X20020192Y-9330366D01*
X20509616Y-10464152D02*
X20509616Y-10583532D01*
X20449926Y-10523842D02*
X20569306Y-10523842D01*
X20551823Y-10566049D02*
X20551823Y-10481634D01*
X20467408Y-10481634D01*
X20467408Y-10566049D01*
X20551823Y-10566049D01*
X20861642Y-10112126D02*
X20861642Y-10231506D01*
X20801952Y-10171816D02*
X20921332Y-10171816D01*
X20903849Y-10214023D02*
X20903849Y-10129608D01*
X20819434Y-10129608D01*
X20819434Y-10214023D01*
X20903849Y-10214023D01*
D24*
X8448258Y-9089390D02*
X8448258Y-9229090D01*
X8378408Y-9159240D02*
X8518108Y-9159240D01*
X8448258Y-9229090D02*
X8518108Y-9159240D01*
X8448258Y-9089390D01*
X8378408Y-9159240D01*
X8448258Y-9229090D01*
X8448258Y-10587990D02*
X8448258Y-10727690D01*
X8378408Y-10657840D02*
X8518108Y-10657840D01*
X8448258Y-10727690D02*
X8518108Y-10657840D01*
X8448258Y-10587990D01*
X8378408Y-10657840D01*
X8448258Y-10727690D01*
X9807158Y-9089390D02*
X9807158Y-9229090D01*
X9737308Y-9159240D02*
X9877008Y-9159240D01*
X9807158Y-9229090D02*
X9877008Y-9159240D01*
X9807158Y-9089390D01*
X9737308Y-9159240D01*
X9807158Y-9229090D01*
X9807158Y-10587990D02*
X9807158Y-10727690D01*
X9737308Y-10657840D02*
X9877008Y-10657840D01*
X9807158Y-10727690D02*
X9877008Y-10657840D01*
X9807158Y-10587990D01*
X9737308Y-10657840D01*
X9807158Y-10727690D01*
D25*
X12084600Y-8597100D02*
X12198900Y-8482800D01*
X12084600Y-8368500D01*
X11970300Y-8482800D01*
X12084600Y-8597100D01*
X12165423Y-8563623D02*
X12165423Y-8401977D01*
X12003777Y-8401977D01*
X12003777Y-8563623D01*
X12165423Y-8563623D01*
X12084600Y-12711900D02*
X12198900Y-12597600D01*
X12084600Y-12483300D01*
X11970300Y-12597600D01*
X12084600Y-12711900D01*
X12165423Y-12678423D02*
X12165423Y-12516777D01*
X12003777Y-12516777D01*
X12003777Y-12678423D01*
X12165423Y-12678423D01*
X16199400Y-8597100D02*
X16313700Y-8482800D01*
X16199400Y-8368500D01*
X16085100Y-8482800D01*
X16199400Y-8597100D01*
X16280223Y-8563623D02*
X16280223Y-8401977D01*
X16118577Y-8401977D01*
X16118577Y-8563623D01*
X16280223Y-8563623D01*
X16199400Y-12711900D02*
X16313700Y-12597600D01*
X16199400Y-12483300D01*
X16085100Y-12597600D01*
X16199400Y-12711900D01*
X16280223Y-12678423D02*
X16280223Y-12516777D01*
X16118577Y-12516777D01*
X16118577Y-12678423D01*
X16280223Y-12678423D01*
D11*
X6375619Y-13220476D02*
X6375619Y-13020476D01*
X6423238Y-13020476D01*
X6451809Y-13030000D01*
X6470857Y-13049048D01*
X6480381Y-13068095D01*
X6489905Y-13106190D01*
X6489905Y-13134762D01*
X6480381Y-13172857D01*
X6470857Y-13191905D01*
X6451809Y-13210952D01*
X6423238Y-13220476D01*
X6375619Y-13220476D01*
X6575619Y-13220476D02*
X6575619Y-13087143D01*
X6575619Y-13125238D02*
X6585143Y-13106190D01*
X6594667Y-13096667D01*
X6613714Y-13087143D01*
X6632762Y-13087143D01*
X6699428Y-13220476D02*
X6699428Y-13087143D01*
X6699428Y-13020476D02*
X6689905Y-13030000D01*
X6699428Y-13039524D01*
X6708952Y-13030000D01*
X6699428Y-13020476D01*
X6699428Y-13039524D01*
X6823238Y-13220476D02*
X6804190Y-13210952D01*
X6794667Y-13191905D01*
X6794667Y-13020476D01*
X6928000Y-13220476D02*
X6908952Y-13210952D01*
X6899428Y-13191905D01*
X6899428Y-13020476D01*
X7156571Y-13220476D02*
X7156571Y-13020476D01*
X7223238Y-13163333D01*
X7289905Y-13020476D01*
X7289905Y-13220476D01*
X7470857Y-13220476D02*
X7470857Y-13115714D01*
X7461333Y-13096667D01*
X7442286Y-13087143D01*
X7404190Y-13087143D01*
X7385143Y-13096667D01*
X7470857Y-13210952D02*
X7451809Y-13220476D01*
X7404190Y-13220476D01*
X7385143Y-13210952D01*
X7375619Y-13191905D01*
X7375619Y-13172857D01*
X7385143Y-13153809D01*
X7404190Y-13144286D01*
X7451809Y-13144286D01*
X7470857Y-13134762D01*
X7566095Y-13087143D02*
X7566095Y-13287143D01*
X7566095Y-13096667D02*
X7585143Y-13087143D01*
X7623238Y-13087143D01*
X7642286Y-13096667D01*
X7651809Y-13106190D01*
X7661333Y-13125238D01*
X7661333Y-13182381D01*
X7651809Y-13201428D01*
X7642286Y-13210952D01*
X7623238Y-13220476D01*
X7585143Y-13220476D01*
X7566095Y-13210952D01*
X7747048Y-13201428D02*
X7756571Y-13210952D01*
X7747048Y-13220476D01*
X7737524Y-13210952D01*
X7747048Y-13201428D01*
X7747048Y-13220476D01*
X7747048Y-13096667D02*
X7756571Y-13106190D01*
X7747048Y-13115714D01*
X7737524Y-13106190D01*
X7747048Y-13096667D01*
X7747048Y-13115714D01*
D12*
X6067200Y-13524600D02*
X6118000Y-13575400D01*
X6118000Y-13524600D02*
X6067200Y-13575400D01*
D11*
X6413714Y-13440476D02*
X6432762Y-13440476D01*
X6451809Y-13450000D01*
X6461333Y-13459524D01*
X6470857Y-13478571D01*
X6480381Y-13516667D01*
X6480381Y-13564286D01*
X6470857Y-13602381D01*
X6461333Y-13621428D01*
X6451809Y-13630952D01*
X6432762Y-13640476D01*
X6413714Y-13640476D01*
X6394667Y-13630952D01*
X6385143Y-13621428D01*
X6375619Y-13602381D01*
X6366095Y-13564286D01*
X6366095Y-13516667D01*
X6375619Y-13478571D01*
X6385143Y-13459524D01*
X6394667Y-13450000D01*
X6413714Y-13440476D01*
X6566095Y-13621428D02*
X6575619Y-13630952D01*
X6566095Y-13640476D01*
X6556571Y-13630952D01*
X6566095Y-13621428D01*
X6566095Y-13640476D01*
X6756571Y-13440476D02*
X6661333Y-13440476D01*
X6651809Y-13535714D01*
X6661333Y-13526190D01*
X6680381Y-13516667D01*
X6728000Y-13516667D01*
X6747048Y-13526190D01*
X6756571Y-13535714D01*
X6766095Y-13554762D01*
X6766095Y-13602381D01*
X6756571Y-13621428D01*
X6747048Y-13630952D01*
X6728000Y-13640476D01*
X6680381Y-13640476D01*
X6661333Y-13630952D01*
X6651809Y-13621428D01*
X6889905Y-13440476D02*
X6908952Y-13440476D01*
X6928000Y-13450000D01*
X6937524Y-13459524D01*
X6947048Y-13478571D01*
X6956571Y-13516667D01*
X6956571Y-13564286D01*
X6947048Y-13602381D01*
X6937524Y-13621428D01*
X6928000Y-13630952D01*
X6908952Y-13640476D01*
X6889905Y-13640476D01*
X6870857Y-13630952D01*
X6861333Y-13621428D01*
X6851809Y-13602381D01*
X6842286Y-13564286D01*
X6842286Y-13516667D01*
X6851809Y-13478571D01*
X6861333Y-13459524D01*
X6870857Y-13450000D01*
X6889905Y-13440476D01*
X7070857Y-13526190D02*
X7051809Y-13516667D01*
X7042286Y-13507143D01*
X7032762Y-13488095D01*
X7032762Y-13478571D01*
X7042286Y-13459524D01*
X7051809Y-13450000D01*
X7070857Y-13440476D01*
X7108952Y-13440476D01*
X7128000Y-13450000D01*
X7137524Y-13459524D01*
X7147048Y-13478571D01*
X7147048Y-13488095D01*
X7137524Y-13507143D01*
X7128000Y-13516667D01*
X7108952Y-13526190D01*
X7070857Y-13526190D01*
X7051809Y-13535714D01*
X7042286Y-13545238D01*
X7032762Y-13564286D01*
X7032762Y-13602381D01*
X7042286Y-13621428D01*
X7051809Y-13630952D01*
X7070857Y-13640476D01*
X7108952Y-13640476D01*
X7128000Y-13630952D01*
X7137524Y-13621428D01*
X7147048Y-13602381D01*
X7147048Y-13564286D01*
X7137524Y-13545238D01*
X7128000Y-13535714D01*
X7108952Y-13526190D01*
X7232762Y-13640476D02*
X7232762Y-13507143D01*
X7232762Y-13526190D02*
X7242286Y-13516667D01*
X7261333Y-13507143D01*
X7289905Y-13507143D01*
X7308952Y-13516667D01*
X7318476Y-13535714D01*
X7318476Y-13640476D01*
X7318476Y-13535714D02*
X7328000Y-13516667D01*
X7347048Y-13507143D01*
X7375619Y-13507143D01*
X7394667Y-13516667D01*
X7404190Y-13535714D01*
X7404190Y-13640476D01*
X7499428Y-13640476D02*
X7499428Y-13507143D01*
X7499428Y-13526190D02*
X7508952Y-13516667D01*
X7528000Y-13507143D01*
X7556571Y-13507143D01*
X7575619Y-13516667D01*
X7585143Y-13535714D01*
X7585143Y-13640476D01*
X7585143Y-13535714D02*
X7594667Y-13516667D01*
X7613714Y-13507143D01*
X7642286Y-13507143D01*
X7661333Y-13516667D01*
X7670857Y-13535714D01*
X7670857Y-13640476D01*
X8061333Y-13430952D02*
X7889905Y-13688095D01*
X8318476Y-13440476D02*
X8337524Y-13440476D01*
X8356571Y-13450000D01*
X8366095Y-13459524D01*
X8375619Y-13478571D01*
X8385143Y-13516667D01*
X8385143Y-13564286D01*
X8375619Y-13602381D01*
X8366095Y-13621428D01*
X8356571Y-13630952D01*
X8337524Y-13640476D01*
X8318476Y-13640476D01*
X8299428Y-13630952D01*
X8289905Y-13621428D01*
X8280381Y-13602381D01*
X8270857Y-13564286D01*
X8270857Y-13516667D01*
X8280381Y-13478571D01*
X8289905Y-13459524D01*
X8299428Y-13450000D01*
X8318476Y-13440476D01*
X8470857Y-13621428D02*
X8480381Y-13630952D01*
X8470857Y-13640476D01*
X8461333Y-13630952D01*
X8470857Y-13621428D01*
X8470857Y-13640476D01*
X8604190Y-13440476D02*
X8623238Y-13440476D01*
X8642286Y-13450000D01*
X8651810Y-13459524D01*
X8661333Y-13478571D01*
X8670857Y-13516667D01*
X8670857Y-13564286D01*
X8661333Y-13602381D01*
X8651810Y-13621428D01*
X8642286Y-13630952D01*
X8623238Y-13640476D01*
X8604190Y-13640476D01*
X8585143Y-13630952D01*
X8575619Y-13621428D01*
X8566095Y-13602381D01*
X8556571Y-13564286D01*
X8556571Y-13516667D01*
X8566095Y-13478571D01*
X8575619Y-13459524D01*
X8585143Y-13450000D01*
X8604190Y-13440476D01*
X8747048Y-13459524D02*
X8756571Y-13450000D01*
X8775619Y-13440476D01*
X8823238Y-13440476D01*
X8842286Y-13450000D01*
X8851810Y-13459524D01*
X8861333Y-13478571D01*
X8861333Y-13497619D01*
X8851810Y-13526190D01*
X8737524Y-13640476D01*
X8861333Y-13640476D01*
X8985143Y-13440476D02*
X9004190Y-13440476D01*
X9023238Y-13450000D01*
X9032762Y-13459524D01*
X9042286Y-13478571D01*
X9051810Y-13516667D01*
X9051810Y-13564286D01*
X9042286Y-13602381D01*
X9032762Y-13621428D01*
X9023238Y-13630952D01*
X9004190Y-13640476D01*
X8985143Y-13640476D01*
X8966095Y-13630952D01*
X8956571Y-13621428D01*
X8947048Y-13602381D01*
X8937524Y-13564286D01*
X8937524Y-13516667D01*
X8947048Y-13478571D01*
X8956571Y-13459524D01*
X8966095Y-13450000D01*
X8985143Y-13440476D01*
X9175619Y-13440476D02*
X9194667Y-13440476D01*
X9213714Y-13450000D01*
X9223238Y-13459524D01*
X9232762Y-13478571D01*
X9242286Y-13516667D01*
X9242286Y-13564286D01*
X9232762Y-13602381D01*
X9223238Y-13621428D01*
X9213714Y-13630952D01*
X9194667Y-13640476D01*
X9175619Y-13640476D01*
X9156571Y-13630952D01*
X9147048Y-13621428D01*
X9137524Y-13602381D01*
X9128000Y-13564286D01*
X9128000Y-13516667D01*
X9137524Y-13478571D01*
X9147048Y-13459524D01*
X9156571Y-13450000D01*
X9175619Y-13440476D01*
X9318476Y-13440476D02*
X9318476Y-13478571D01*
X9394667Y-13440476D02*
X9394667Y-13478571D01*
X9689905Y-13716667D02*
X9680381Y-13707143D01*
X9661333Y-13678571D01*
X9651810Y-13659524D01*
X9642286Y-13630952D01*
X9632762Y-13583333D01*
X9632762Y-13545238D01*
X9642286Y-13497619D01*
X9651810Y-13469048D01*
X9661333Y-13450000D01*
X9680381Y-13421428D01*
X9689905Y-13411905D01*
X9851810Y-13507143D02*
X9851810Y-13640476D01*
X9804190Y-13430952D02*
X9756571Y-13573809D01*
X9880381Y-13573809D01*
X10042286Y-13507143D02*
X10042286Y-13640476D01*
X9994667Y-13430952D02*
X9947048Y-13573809D01*
X10070857Y-13573809D01*
X10299429Y-13640476D02*
X10299429Y-13440476D01*
X10385143Y-13640476D02*
X10385143Y-13535714D01*
X10375619Y-13516667D01*
X10356571Y-13507143D01*
X10328000Y-13507143D01*
X10308952Y-13516667D01*
X10299429Y-13526190D01*
X10508952Y-13640476D02*
X10489905Y-13630952D01*
X10480381Y-13621428D01*
X10470857Y-13602381D01*
X10470857Y-13545238D01*
X10480381Y-13526190D01*
X10489905Y-13516667D01*
X10508952Y-13507143D01*
X10537524Y-13507143D01*
X10556571Y-13516667D01*
X10566095Y-13526190D01*
X10575619Y-13545238D01*
X10575619Y-13602381D01*
X10566095Y-13621428D01*
X10556571Y-13630952D01*
X10537524Y-13640476D01*
X10508952Y-13640476D01*
X10689905Y-13640476D02*
X10670857Y-13630952D01*
X10661333Y-13611905D01*
X10661333Y-13440476D01*
X10842286Y-13630952D02*
X10823238Y-13640476D01*
X10785143Y-13640476D01*
X10766095Y-13630952D01*
X10756571Y-13611905D01*
X10756571Y-13535714D01*
X10766095Y-13516667D01*
X10785143Y-13507143D01*
X10823238Y-13507143D01*
X10842286Y-13516667D01*
X10851810Y-13535714D01*
X10851810Y-13554762D01*
X10756571Y-13573809D01*
X10928000Y-13630952D02*
X10947048Y-13640476D01*
X10985143Y-13640476D01*
X11004190Y-13630952D01*
X11013714Y-13611905D01*
X11013714Y-13602381D01*
X11004190Y-13583333D01*
X10985143Y-13573809D01*
X10956571Y-13573809D01*
X10937524Y-13564286D01*
X10928000Y-13545238D01*
X10928000Y-13535714D01*
X10937524Y-13516667D01*
X10956571Y-13507143D01*
X10985143Y-13507143D01*
X11004190Y-13516667D01*
X11080381Y-13716667D02*
X11089905Y-13707143D01*
X11108952Y-13678571D01*
X11118476Y-13659524D01*
X11128000Y-13630952D01*
X11137524Y-13583333D01*
X11137524Y-13545238D01*
X11128000Y-13497619D01*
X11118476Y-13469048D01*
X11108952Y-13450000D01*
X11089905Y-13421428D01*
X11080381Y-13411905D01*
D13*
X6118000Y-13814000D02*
G75*
G03*
X6118000Y-13814000I-29210J0D01*
G01*
D11*
X6413714Y-13704476D02*
X6432762Y-13704476D01*
X6451809Y-13714000D01*
X6461333Y-13723524D01*
X6470857Y-13742571D01*
X6480381Y-13780667D01*
X6480381Y-13828286D01*
X6470857Y-13866381D01*
X6461333Y-13885428D01*
X6451809Y-13894952D01*
X6432762Y-13904476D01*
X6413714Y-13904476D01*
X6394667Y-13894952D01*
X6385143Y-13885428D01*
X6375619Y-13866381D01*
X6366095Y-13828286D01*
X6366095Y-13780667D01*
X6375619Y-13742571D01*
X6385143Y-13723524D01*
X6394667Y-13714000D01*
X6413714Y-13704476D01*
X6566095Y-13885428D02*
X6575619Y-13894952D01*
X6566095Y-13904476D01*
X6556571Y-13894952D01*
X6566095Y-13885428D01*
X6566095Y-13904476D01*
X6756571Y-13704476D02*
X6661333Y-13704476D01*
X6651809Y-13799714D01*
X6661333Y-13790190D01*
X6680381Y-13780667D01*
X6728000Y-13780667D01*
X6747048Y-13790190D01*
X6756571Y-13799714D01*
X6766095Y-13818762D01*
X6766095Y-13866381D01*
X6756571Y-13885428D01*
X6747048Y-13894952D01*
X6728000Y-13904476D01*
X6680381Y-13904476D01*
X6661333Y-13894952D01*
X6651809Y-13885428D01*
X6880381Y-13790190D02*
X6861333Y-13780667D01*
X6851809Y-13771143D01*
X6842286Y-13752095D01*
X6842286Y-13742571D01*
X6851809Y-13723524D01*
X6861333Y-13714000D01*
X6880381Y-13704476D01*
X6918476Y-13704476D01*
X6937524Y-13714000D01*
X6947048Y-13723524D01*
X6956571Y-13742571D01*
X6956571Y-13752095D01*
X6947048Y-13771143D01*
X6937524Y-13780667D01*
X6918476Y-13790190D01*
X6880381Y-13790190D01*
X6861333Y-13799714D01*
X6851809Y-13809238D01*
X6842286Y-13828286D01*
X6842286Y-13866381D01*
X6851809Y-13885428D01*
X6861333Y-13894952D01*
X6880381Y-13904476D01*
X6918476Y-13904476D01*
X6937524Y-13894952D01*
X6947048Y-13885428D01*
X6956571Y-13866381D01*
X6956571Y-13828286D01*
X6947048Y-13809238D01*
X6937524Y-13799714D01*
X6918476Y-13790190D01*
X7128000Y-13771143D02*
X7128000Y-13904476D01*
X7080381Y-13694952D02*
X7032762Y-13837809D01*
X7156571Y-13837809D01*
X7232762Y-13904476D02*
X7232762Y-13771143D01*
X7232762Y-13790190D02*
X7242286Y-13780667D01*
X7261333Y-13771143D01*
X7289905Y-13771143D01*
X7308952Y-13780667D01*
X7318476Y-13799714D01*
X7318476Y-13904476D01*
X7318476Y-13799714D02*
X7328000Y-13780667D01*
X7347048Y-13771143D01*
X7375619Y-13771143D01*
X7394667Y-13780667D01*
X7404190Y-13799714D01*
X7404190Y-13904476D01*
X7499428Y-13904476D02*
X7499428Y-13771143D01*
X7499428Y-13790190D02*
X7508952Y-13780667D01*
X7528000Y-13771143D01*
X7556571Y-13771143D01*
X7575619Y-13780667D01*
X7585143Y-13799714D01*
X7585143Y-13904476D01*
X7585143Y-13799714D02*
X7594667Y-13780667D01*
X7613714Y-13771143D01*
X7642286Y-13771143D01*
X7661333Y-13780667D01*
X7670857Y-13799714D01*
X7670857Y-13904476D01*
X8061333Y-13694952D02*
X7889905Y-13952095D01*
X8318476Y-13704476D02*
X8337524Y-13704476D01*
X8356571Y-13714000D01*
X8366095Y-13723524D01*
X8375619Y-13742571D01*
X8385143Y-13780667D01*
X8385143Y-13828286D01*
X8375619Y-13866381D01*
X8366095Y-13885428D01*
X8356571Y-13894952D01*
X8337524Y-13904476D01*
X8318476Y-13904476D01*
X8299428Y-13894952D01*
X8289905Y-13885428D01*
X8280381Y-13866381D01*
X8270857Y-13828286D01*
X8270857Y-13780667D01*
X8280381Y-13742571D01*
X8289905Y-13723524D01*
X8299428Y-13714000D01*
X8318476Y-13704476D01*
X8470857Y-13885428D02*
X8480381Y-13894952D01*
X8470857Y-13904476D01*
X8461333Y-13894952D01*
X8470857Y-13885428D01*
X8470857Y-13904476D01*
X8604190Y-13704476D02*
X8623238Y-13704476D01*
X8642286Y-13714000D01*
X8651810Y-13723524D01*
X8661333Y-13742571D01*
X8670857Y-13780667D01*
X8670857Y-13828286D01*
X8661333Y-13866381D01*
X8651810Y-13885428D01*
X8642286Y-13894952D01*
X8623238Y-13904476D01*
X8604190Y-13904476D01*
X8585143Y-13894952D01*
X8575619Y-13885428D01*
X8566095Y-13866381D01*
X8556571Y-13828286D01*
X8556571Y-13780667D01*
X8566095Y-13742571D01*
X8575619Y-13723524D01*
X8585143Y-13714000D01*
X8604190Y-13704476D01*
X8747048Y-13723524D02*
X8756571Y-13714000D01*
X8775619Y-13704476D01*
X8823238Y-13704476D01*
X8842286Y-13714000D01*
X8851810Y-13723524D01*
X8861333Y-13742571D01*
X8861333Y-13761619D01*
X8851810Y-13790190D01*
X8737524Y-13904476D01*
X8861333Y-13904476D01*
X8928000Y-13704476D02*
X9051810Y-13704476D01*
X8985143Y-13780667D01*
X9013714Y-13780667D01*
X9032762Y-13790190D01*
X9042286Y-13799714D01*
X9051810Y-13818762D01*
X9051810Y-13866381D01*
X9042286Y-13885428D01*
X9032762Y-13894952D01*
X9013714Y-13904476D01*
X8956571Y-13904476D01*
X8937524Y-13894952D01*
X8928000Y-13885428D01*
X9175619Y-13704476D02*
X9194667Y-13704476D01*
X9213714Y-13714000D01*
X9223238Y-13723524D01*
X9232762Y-13742571D01*
X9242286Y-13780667D01*
X9242286Y-13828286D01*
X9232762Y-13866381D01*
X9223238Y-13885428D01*
X9213714Y-13894952D01*
X9194667Y-13904476D01*
X9175619Y-13904476D01*
X9156571Y-13894952D01*
X9147048Y-13885428D01*
X9137524Y-13866381D01*
X9128000Y-13828286D01*
X9128000Y-13780667D01*
X9137524Y-13742571D01*
X9147048Y-13723524D01*
X9156571Y-13714000D01*
X9175619Y-13704476D01*
X9318476Y-13704476D02*
X9318476Y-13742571D01*
X9394667Y-13704476D02*
X9394667Y-13742571D01*
X9689905Y-13980667D02*
X9680381Y-13971143D01*
X9661333Y-13942571D01*
X9651810Y-13923524D01*
X9642286Y-13894952D01*
X9632762Y-13847333D01*
X9632762Y-13809238D01*
X9642286Y-13761619D01*
X9651810Y-13733048D01*
X9661333Y-13714000D01*
X9680381Y-13685428D01*
X9689905Y-13675905D01*
X9756571Y-13723524D02*
X9766095Y-13714000D01*
X9785143Y-13704476D01*
X9832762Y-13704476D01*
X9851810Y-13714000D01*
X9861333Y-13723524D01*
X9870857Y-13742571D01*
X9870857Y-13761619D01*
X9861333Y-13790190D01*
X9747048Y-13904476D01*
X9870857Y-13904476D01*
X10061333Y-13904476D02*
X9947048Y-13904476D01*
X10004190Y-13904476D02*
X10004190Y-13704476D01*
X9985143Y-13733048D01*
X9966095Y-13752095D01*
X9947048Y-13761619D01*
X10299429Y-13904476D02*
X10299429Y-13704476D01*
X10385143Y-13904476D02*
X10385143Y-13799714D01*
X10375619Y-13780667D01*
X10356571Y-13771143D01*
X10328000Y-13771143D01*
X10308952Y-13780667D01*
X10299429Y-13790190D01*
X10508952Y-13904476D02*
X10489905Y-13894952D01*
X10480381Y-13885428D01*
X10470857Y-13866381D01*
X10470857Y-13809238D01*
X10480381Y-13790190D01*
X10489905Y-13780667D01*
X10508952Y-13771143D01*
X10537524Y-13771143D01*
X10556571Y-13780667D01*
X10566095Y-13790190D01*
X10575619Y-13809238D01*
X10575619Y-13866381D01*
X10566095Y-13885428D01*
X10556571Y-13894952D01*
X10537524Y-13904476D01*
X10508952Y-13904476D01*
X10689905Y-13904476D02*
X10670857Y-13894952D01*
X10661333Y-13875905D01*
X10661333Y-13704476D01*
X10842286Y-13894952D02*
X10823238Y-13904476D01*
X10785143Y-13904476D01*
X10766095Y-13894952D01*
X10756571Y-13875905D01*
X10756571Y-13799714D01*
X10766095Y-13780667D01*
X10785143Y-13771143D01*
X10823238Y-13771143D01*
X10842286Y-13780667D01*
X10851810Y-13799714D01*
X10851810Y-13818762D01*
X10756571Y-13837809D01*
X10928000Y-13894952D02*
X10947048Y-13904476D01*
X10985143Y-13904476D01*
X11004190Y-13894952D01*
X11013714Y-13875905D01*
X11013714Y-13866381D01*
X11004190Y-13847333D01*
X10985143Y-13837809D01*
X10956571Y-13837809D01*
X10937524Y-13828286D01*
X10928000Y-13809238D01*
X10928000Y-13799714D01*
X10937524Y-13780667D01*
X10956571Y-13771143D01*
X10985143Y-13771143D01*
X11004190Y-13780667D01*
X11080381Y-13980667D02*
X11089905Y-13971143D01*
X11108952Y-13942571D01*
X11118476Y-13923524D01*
X11128000Y-13894952D01*
X11137524Y-13847333D01*
X11137524Y-13809238D01*
X11128000Y-13761619D01*
X11118476Y-13733048D01*
X11108952Y-13714000D01*
X11089905Y-13685428D01*
X11080381Y-13675905D01*
D14*
X6086250Y-14046250D02*
X6086250Y-14109750D01*
X6054500Y-14078000D02*
X6118000Y-14078000D01*
D11*
X6413714Y-13968476D02*
X6432762Y-13968476D01*
X6451809Y-13978000D01*
X6461333Y-13987524D01*
X6470857Y-14006571D01*
X6480381Y-14044667D01*
X6480381Y-14092286D01*
X6470857Y-14130381D01*
X6461333Y-14149428D01*
X6451809Y-14158952D01*
X6432762Y-14168476D01*
X6413714Y-14168476D01*
X6394667Y-14158952D01*
X6385143Y-14149428D01*
X6375619Y-14130381D01*
X6366095Y-14092286D01*
X6366095Y-14044667D01*
X6375619Y-14006571D01*
X6385143Y-13987524D01*
X6394667Y-13978000D01*
X6413714Y-13968476D01*
X6566095Y-14149428D02*
X6575619Y-14158952D01*
X6566095Y-14168476D01*
X6556571Y-14158952D01*
X6566095Y-14149428D01*
X6566095Y-14168476D01*
X6747048Y-13968476D02*
X6708952Y-13968476D01*
X6689905Y-13978000D01*
X6680381Y-13987524D01*
X6661333Y-14016095D01*
X6651809Y-14054190D01*
X6651809Y-14130381D01*
X6661333Y-14149428D01*
X6670857Y-14158952D01*
X6689905Y-14168476D01*
X6728000Y-14168476D01*
X6747048Y-14158952D01*
X6756571Y-14149428D01*
X6766095Y-14130381D01*
X6766095Y-14082762D01*
X6756571Y-14063714D01*
X6747048Y-14054190D01*
X6728000Y-14044667D01*
X6689905Y-14044667D01*
X6670857Y-14054190D01*
X6661333Y-14063714D01*
X6651809Y-14082762D01*
X6832762Y-13968476D02*
X6956571Y-13968476D01*
X6889905Y-14044667D01*
X6918476Y-14044667D01*
X6937524Y-14054190D01*
X6947048Y-14063714D01*
X6956571Y-14082762D01*
X6956571Y-14130381D01*
X6947048Y-14149428D01*
X6937524Y-14158952D01*
X6918476Y-14168476D01*
X6861333Y-14168476D01*
X6842286Y-14158952D01*
X6832762Y-14149428D01*
X7137524Y-13968476D02*
X7042286Y-13968476D01*
X7032762Y-14063714D01*
X7042286Y-14054190D01*
X7061333Y-14044667D01*
X7108952Y-14044667D01*
X7128000Y-14054190D01*
X7137524Y-14063714D01*
X7147048Y-14082762D01*
X7147048Y-14130381D01*
X7137524Y-14149428D01*
X7128000Y-14158952D01*
X7108952Y-14168476D01*
X7061333Y-14168476D01*
X7042286Y-14158952D01*
X7032762Y-14149428D01*
X7232762Y-14168476D02*
X7232762Y-14035143D01*
X7232762Y-14054190D02*
X7242286Y-14044667D01*
X7261333Y-14035143D01*
X7289905Y-14035143D01*
X7308952Y-14044667D01*
X7318476Y-14063714D01*
X7318476Y-14168476D01*
X7318476Y-14063714D02*
X7328000Y-14044667D01*
X7347048Y-14035143D01*
X7375619Y-14035143D01*
X7394667Y-14044667D01*
X7404190Y-14063714D01*
X7404190Y-14168476D01*
X7499428Y-14168476D02*
X7499428Y-14035143D01*
X7499428Y-14054190D02*
X7508952Y-14044667D01*
X7528000Y-14035143D01*
X7556571Y-14035143D01*
X7575619Y-14044667D01*
X7585143Y-14063714D01*
X7585143Y-14168476D01*
X7585143Y-14063714D02*
X7594667Y-14044667D01*
X7613714Y-14035143D01*
X7642286Y-14035143D01*
X7661333Y-14044667D01*
X7670857Y-14063714D01*
X7670857Y-14168476D01*
X8061333Y-13958952D02*
X7889905Y-14216095D01*
X8318476Y-13968476D02*
X8337524Y-13968476D01*
X8356571Y-13978000D01*
X8366095Y-13987524D01*
X8375619Y-14006571D01*
X8385143Y-14044667D01*
X8385143Y-14092286D01*
X8375619Y-14130381D01*
X8366095Y-14149428D01*
X8356571Y-14158952D01*
X8337524Y-14168476D01*
X8318476Y-14168476D01*
X8299428Y-14158952D01*
X8289905Y-14149428D01*
X8280381Y-14130381D01*
X8270857Y-14092286D01*
X8270857Y-14044667D01*
X8280381Y-14006571D01*
X8289905Y-13987524D01*
X8299428Y-13978000D01*
X8318476Y-13968476D01*
X8470857Y-14149428D02*
X8480381Y-14158952D01*
X8470857Y-14168476D01*
X8461333Y-14158952D01*
X8470857Y-14149428D01*
X8470857Y-14168476D01*
X8604190Y-13968476D02*
X8623238Y-13968476D01*
X8642286Y-13978000D01*
X8651810Y-13987524D01*
X8661333Y-14006571D01*
X8670857Y-14044667D01*
X8670857Y-14092286D01*
X8661333Y-14130381D01*
X8651810Y-14149428D01*
X8642286Y-14158952D01*
X8623238Y-14168476D01*
X8604190Y-14168476D01*
X8585143Y-14158952D01*
X8575619Y-14149428D01*
X8566095Y-14130381D01*
X8556571Y-14092286D01*
X8556571Y-14044667D01*
X8566095Y-14006571D01*
X8575619Y-13987524D01*
X8585143Y-13978000D01*
X8604190Y-13968476D01*
X8747048Y-13987524D02*
X8756571Y-13978000D01*
X8775619Y-13968476D01*
X8823238Y-13968476D01*
X8842286Y-13978000D01*
X8851810Y-13987524D01*
X8861333Y-14006571D01*
X8861333Y-14025619D01*
X8851810Y-14054190D01*
X8737524Y-14168476D01*
X8861333Y-14168476D01*
X9042286Y-13968476D02*
X8947048Y-13968476D01*
X8937524Y-14063714D01*
X8947048Y-14054190D01*
X8966095Y-14044667D01*
X9013714Y-14044667D01*
X9032762Y-14054190D01*
X9042286Y-14063714D01*
X9051810Y-14082762D01*
X9051810Y-14130381D01*
X9042286Y-14149428D01*
X9032762Y-14158952D01*
X9013714Y-14168476D01*
X8966095Y-14168476D01*
X8947048Y-14158952D01*
X8937524Y-14149428D01*
X9175619Y-13968476D02*
X9194667Y-13968476D01*
X9213714Y-13978000D01*
X9223238Y-13987524D01*
X9232762Y-14006571D01*
X9242286Y-14044667D01*
X9242286Y-14092286D01*
X9232762Y-14130381D01*
X9223238Y-14149428D01*
X9213714Y-14158952D01*
X9194667Y-14168476D01*
X9175619Y-14168476D01*
X9156571Y-14158952D01*
X9147048Y-14149428D01*
X9137524Y-14130381D01*
X9128000Y-14092286D01*
X9128000Y-14044667D01*
X9137524Y-14006571D01*
X9147048Y-13987524D01*
X9156571Y-13978000D01*
X9175619Y-13968476D01*
X9318476Y-13968476D02*
X9318476Y-14006571D01*
X9394667Y-13968476D02*
X9394667Y-14006571D01*
X9689905Y-14244667D02*
X9680381Y-14235143D01*
X9661333Y-14206571D01*
X9651810Y-14187524D01*
X9642286Y-14158952D01*
X9632762Y-14111333D01*
X9632762Y-14073238D01*
X9642286Y-14025619D01*
X9651810Y-13997048D01*
X9661333Y-13978000D01*
X9680381Y-13949428D01*
X9689905Y-13939905D01*
X9870857Y-14168476D02*
X9756571Y-14168476D01*
X9813714Y-14168476D02*
X9813714Y-13968476D01*
X9794667Y-13997048D01*
X9775619Y-14016095D01*
X9756571Y-14025619D01*
X10108952Y-14168476D02*
X10108952Y-13968476D01*
X10194667Y-14168476D02*
X10194667Y-14063714D01*
X10185143Y-14044667D01*
X10166095Y-14035143D01*
X10137524Y-14035143D01*
X10118476Y-14044667D01*
X10108952Y-14054190D01*
X10318476Y-14168476D02*
X10299429Y-14158952D01*
X10289905Y-14149428D01*
X10280381Y-14130381D01*
X10280381Y-14073238D01*
X10289905Y-14054190D01*
X10299429Y-14044667D01*
X10318476Y-14035143D01*
X10347048Y-14035143D01*
X10366095Y-14044667D01*
X10375619Y-14054190D01*
X10385143Y-14073238D01*
X10385143Y-14130381D01*
X10375619Y-14149428D01*
X10366095Y-14158952D01*
X10347048Y-14168476D01*
X10318476Y-14168476D01*
X10499429Y-14168476D02*
X10480381Y-14158952D01*
X10470857Y-14139905D01*
X10470857Y-13968476D01*
X10651810Y-14158952D02*
X10632762Y-14168476D01*
X10594667Y-14168476D01*
X10575619Y-14158952D01*
X10566095Y-14139905D01*
X10566095Y-14063714D01*
X10575619Y-14044667D01*
X10594667Y-14035143D01*
X10632762Y-14035143D01*
X10651810Y-14044667D01*
X10661333Y-14063714D01*
X10661333Y-14082762D01*
X10566095Y-14101809D01*
X10728000Y-14244667D02*
X10737524Y-14235143D01*
X10756571Y-14206571D01*
X10766095Y-14187524D01*
X10775619Y-14158952D01*
X10785143Y-14111333D01*
X10785143Y-14073238D01*
X10775619Y-14025619D01*
X10766095Y-13997048D01*
X10756571Y-13978000D01*
X10737524Y-13949428D01*
X10728000Y-13939905D01*
D15*
X6106870Y-14368870D02*
X6106870Y-14315130D01*
X6053130Y-14315130D01*
X6053130Y-14368870D01*
X6106870Y-14368870D01*
D11*
X6413714Y-14232476D02*
X6432762Y-14232476D01*
X6451809Y-14242000D01*
X6461333Y-14251524D01*
X6470857Y-14270571D01*
X6480381Y-14308667D01*
X6480381Y-14356286D01*
X6470857Y-14394381D01*
X6461333Y-14413428D01*
X6451809Y-14422952D01*
X6432762Y-14432476D01*
X6413714Y-14432476D01*
X6394667Y-14422952D01*
X6385143Y-14413428D01*
X6375619Y-14394381D01*
X6366095Y-14356286D01*
X6366095Y-14308667D01*
X6375619Y-14270571D01*
X6385143Y-14251524D01*
X6394667Y-14242000D01*
X6413714Y-14232476D01*
X6566095Y-14413428D02*
X6575619Y-14422952D01*
X6566095Y-14432476D01*
X6556571Y-14422952D01*
X6566095Y-14413428D01*
X6566095Y-14432476D01*
X6642286Y-14232476D02*
X6775619Y-14232476D01*
X6689905Y-14432476D01*
X6937524Y-14232476D02*
X6899428Y-14232476D01*
X6880381Y-14242000D01*
X6870857Y-14251524D01*
X6851809Y-14280095D01*
X6842286Y-14318190D01*
X6842286Y-14394381D01*
X6851809Y-14413428D01*
X6861333Y-14422952D01*
X6880381Y-14432476D01*
X6918476Y-14432476D01*
X6937524Y-14422952D01*
X6947048Y-14413428D01*
X6956571Y-14394381D01*
X6956571Y-14346762D01*
X6947048Y-14327714D01*
X6937524Y-14318190D01*
X6918476Y-14308667D01*
X6880381Y-14308667D01*
X6861333Y-14318190D01*
X6851809Y-14327714D01*
X6842286Y-14346762D01*
X7080381Y-14232476D02*
X7099428Y-14232476D01*
X7118476Y-14242000D01*
X7128000Y-14251524D01*
X7137524Y-14270571D01*
X7147048Y-14308667D01*
X7147048Y-14356286D01*
X7137524Y-14394381D01*
X7128000Y-14413428D01*
X7118476Y-14422952D01*
X7099428Y-14432476D01*
X7080381Y-14432476D01*
X7061333Y-14422952D01*
X7051809Y-14413428D01*
X7042286Y-14394381D01*
X7032762Y-14356286D01*
X7032762Y-14308667D01*
X7042286Y-14270571D01*
X7051809Y-14251524D01*
X7061333Y-14242000D01*
X7080381Y-14232476D01*
X7232762Y-14432476D02*
X7232762Y-14299143D01*
X7232762Y-14318190D02*
X7242286Y-14308667D01*
X7261333Y-14299143D01*
X7289905Y-14299143D01*
X7308952Y-14308667D01*
X7318476Y-14327714D01*
X7318476Y-14432476D01*
X7318476Y-14327714D02*
X7328000Y-14308667D01*
X7347048Y-14299143D01*
X7375619Y-14299143D01*
X7394667Y-14308667D01*
X7404190Y-14327714D01*
X7404190Y-14432476D01*
X7499428Y-14432476D02*
X7499428Y-14299143D01*
X7499428Y-14318190D02*
X7508952Y-14308667D01*
X7528000Y-14299143D01*
X7556571Y-14299143D01*
X7575619Y-14308667D01*
X7585143Y-14327714D01*
X7585143Y-14432476D01*
X7585143Y-14327714D02*
X7594667Y-14308667D01*
X7613714Y-14299143D01*
X7642286Y-14299143D01*
X7661333Y-14308667D01*
X7670857Y-14327714D01*
X7670857Y-14432476D01*
X8061333Y-14222952D02*
X7889905Y-14480095D01*
X8318476Y-14232476D02*
X8337524Y-14232476D01*
X8356571Y-14242000D01*
X8366095Y-14251524D01*
X8375619Y-14270571D01*
X8385143Y-14308667D01*
X8385143Y-14356286D01*
X8375619Y-14394381D01*
X8366095Y-14413428D01*
X8356571Y-14422952D01*
X8337524Y-14432476D01*
X8318476Y-14432476D01*
X8299428Y-14422952D01*
X8289905Y-14413428D01*
X8280381Y-14394381D01*
X8270857Y-14356286D01*
X8270857Y-14308667D01*
X8280381Y-14270571D01*
X8289905Y-14251524D01*
X8299428Y-14242000D01*
X8318476Y-14232476D01*
X8470857Y-14413428D02*
X8480381Y-14422952D01*
X8470857Y-14432476D01*
X8461333Y-14422952D01*
X8470857Y-14413428D01*
X8470857Y-14432476D01*
X8604190Y-14232476D02*
X8623238Y-14232476D01*
X8642286Y-14242000D01*
X8651810Y-14251524D01*
X8661333Y-14270571D01*
X8670857Y-14308667D01*
X8670857Y-14356286D01*
X8661333Y-14394381D01*
X8651810Y-14413428D01*
X8642286Y-14422952D01*
X8623238Y-14432476D01*
X8604190Y-14432476D01*
X8585143Y-14422952D01*
X8575619Y-14413428D01*
X8566095Y-14394381D01*
X8556571Y-14356286D01*
X8556571Y-14308667D01*
X8566095Y-14270571D01*
X8575619Y-14251524D01*
X8585143Y-14242000D01*
X8604190Y-14232476D01*
X8747048Y-14251524D02*
X8756571Y-14242000D01*
X8775619Y-14232476D01*
X8823238Y-14232476D01*
X8842286Y-14242000D01*
X8851810Y-14251524D01*
X8861333Y-14270571D01*
X8861333Y-14289619D01*
X8851810Y-14318190D01*
X8737524Y-14432476D01*
X8861333Y-14432476D01*
X8956571Y-14432476D02*
X8994667Y-14432476D01*
X9013714Y-14422952D01*
X9023238Y-14413428D01*
X9042286Y-14384857D01*
X9051810Y-14346762D01*
X9051810Y-14270571D01*
X9042286Y-14251524D01*
X9032762Y-14242000D01*
X9013714Y-14232476D01*
X8975619Y-14232476D01*
X8956571Y-14242000D01*
X8947048Y-14251524D01*
X8937524Y-14270571D01*
X8937524Y-14318190D01*
X8947048Y-14337238D01*
X8956571Y-14346762D01*
X8975619Y-14356286D01*
X9013714Y-14356286D01*
X9032762Y-14346762D01*
X9042286Y-14337238D01*
X9051810Y-14318190D01*
X9147048Y-14432476D02*
X9185143Y-14432476D01*
X9204190Y-14422952D01*
X9213714Y-14413428D01*
X9232762Y-14384857D01*
X9242286Y-14346762D01*
X9242286Y-14270571D01*
X9232762Y-14251524D01*
X9223238Y-14242000D01*
X9204190Y-14232476D01*
X9166095Y-14232476D01*
X9147048Y-14242000D01*
X9137524Y-14251524D01*
X9128000Y-14270571D01*
X9128000Y-14318190D01*
X9137524Y-14337238D01*
X9147048Y-14346762D01*
X9166095Y-14356286D01*
X9204190Y-14356286D01*
X9223238Y-14346762D01*
X9232762Y-14337238D01*
X9242286Y-14318190D01*
X9318476Y-14232476D02*
X9318476Y-14270571D01*
X9394667Y-14232476D02*
X9394667Y-14270571D01*
X9689905Y-14508667D02*
X9680381Y-14499143D01*
X9661333Y-14470571D01*
X9651810Y-14451524D01*
X9642286Y-14422952D01*
X9632762Y-14375333D01*
X9632762Y-14337238D01*
X9642286Y-14289619D01*
X9651810Y-14261048D01*
X9661333Y-14242000D01*
X9680381Y-14213428D01*
X9689905Y-14203905D01*
X9851810Y-14232476D02*
X9813714Y-14232476D01*
X9794667Y-14242000D01*
X9785143Y-14251524D01*
X9766095Y-14280095D01*
X9756571Y-14318190D01*
X9756571Y-14394381D01*
X9766095Y-14413428D01*
X9775619Y-14422952D01*
X9794667Y-14432476D01*
X9832762Y-14432476D01*
X9851810Y-14422952D01*
X9861333Y-14413428D01*
X9870857Y-14394381D01*
X9870857Y-14346762D01*
X9861333Y-14327714D01*
X9851810Y-14318190D01*
X9832762Y-14308667D01*
X9794667Y-14308667D01*
X9775619Y-14318190D01*
X9766095Y-14327714D01*
X9756571Y-14346762D01*
X10108952Y-14432476D02*
X10108952Y-14232476D01*
X10194667Y-14432476D02*
X10194667Y-14327714D01*
X10185143Y-14308667D01*
X10166095Y-14299143D01*
X10137524Y-14299143D01*
X10118476Y-14308667D01*
X10108952Y-14318190D01*
X10318476Y-14432476D02*
X10299429Y-14422952D01*
X10289905Y-14413428D01*
X10280381Y-14394381D01*
X10280381Y-14337238D01*
X10289905Y-14318190D01*
X10299429Y-14308667D01*
X10318476Y-14299143D01*
X10347048Y-14299143D01*
X10366095Y-14308667D01*
X10375619Y-14318190D01*
X10385143Y-14337238D01*
X10385143Y-14394381D01*
X10375619Y-14413428D01*
X10366095Y-14422952D01*
X10347048Y-14432476D01*
X10318476Y-14432476D01*
X10499429Y-14432476D02*
X10480381Y-14422952D01*
X10470857Y-14403905D01*
X10470857Y-14232476D01*
X10651810Y-14422952D02*
X10632762Y-14432476D01*
X10594667Y-14432476D01*
X10575619Y-14422952D01*
X10566095Y-14403905D01*
X10566095Y-14327714D01*
X10575619Y-14308667D01*
X10594667Y-14299143D01*
X10632762Y-14299143D01*
X10651810Y-14308667D01*
X10661333Y-14327714D01*
X10661333Y-14346762D01*
X10566095Y-14365809D01*
X10737524Y-14422952D02*
X10756571Y-14432476D01*
X10794667Y-14432476D01*
X10813714Y-14422952D01*
X10823238Y-14403905D01*
X10823238Y-14394381D01*
X10813714Y-14375333D01*
X10794667Y-14365809D01*
X10766095Y-14365809D01*
X10747048Y-14356286D01*
X10737524Y-14337238D01*
X10737524Y-14327714D01*
X10747048Y-14308667D01*
X10766095Y-14299143D01*
X10794667Y-14299143D01*
X10813714Y-14308667D01*
X10889905Y-14508667D02*
X10899429Y-14499143D01*
X10918476Y-14470571D01*
X10928000Y-14451524D01*
X10937524Y-14422952D01*
X10947048Y-14375333D01*
X10947048Y-14337238D01*
X10937524Y-14289619D01*
X10928000Y-14261048D01*
X10918476Y-14242000D01*
X10899429Y-14213428D01*
X10889905Y-14203905D01*
D16*
X6078000Y-14646000D02*
X6118000Y-14606000D01*
X6078000Y-14566000D01*
X6038000Y-14606000D01*
X6078000Y-14646000D01*
D11*
X6413714Y-14496476D02*
X6432762Y-14496476D01*
X6451809Y-14506000D01*
X6461333Y-14515524D01*
X6470857Y-14534571D01*
X6480381Y-14572667D01*
X6480381Y-14620286D01*
X6470857Y-14658381D01*
X6461333Y-14677428D01*
X6451809Y-14686952D01*
X6432762Y-14696476D01*
X6413714Y-14696476D01*
X6394667Y-14686952D01*
X6385143Y-14677428D01*
X6375619Y-14658381D01*
X6366095Y-14620286D01*
X6366095Y-14572667D01*
X6375619Y-14534571D01*
X6385143Y-14515524D01*
X6394667Y-14506000D01*
X6413714Y-14496476D01*
X6566095Y-14677428D02*
X6575619Y-14686952D01*
X6566095Y-14696476D01*
X6556571Y-14686952D01*
X6566095Y-14677428D01*
X6566095Y-14696476D01*
X6689905Y-14582190D02*
X6670857Y-14572667D01*
X6661333Y-14563143D01*
X6651809Y-14544095D01*
X6651809Y-14534571D01*
X6661333Y-14515524D01*
X6670857Y-14506000D01*
X6689905Y-14496476D01*
X6728000Y-14496476D01*
X6747048Y-14506000D01*
X6756571Y-14515524D01*
X6766095Y-14534571D01*
X6766095Y-14544095D01*
X6756571Y-14563143D01*
X6747048Y-14572667D01*
X6728000Y-14582190D01*
X6689905Y-14582190D01*
X6670857Y-14591714D01*
X6661333Y-14601238D01*
X6651809Y-14620286D01*
X6651809Y-14658381D01*
X6661333Y-14677428D01*
X6670857Y-14686952D01*
X6689905Y-14696476D01*
X6728000Y-14696476D01*
X6747048Y-14686952D01*
X6756571Y-14677428D01*
X6766095Y-14658381D01*
X6766095Y-14620286D01*
X6756571Y-14601238D01*
X6747048Y-14591714D01*
X6728000Y-14582190D01*
X6889905Y-14496476D02*
X6908952Y-14496476D01*
X6928000Y-14506000D01*
X6937524Y-14515524D01*
X6947048Y-14534571D01*
X6956571Y-14572667D01*
X6956571Y-14620286D01*
X6947048Y-14658381D01*
X6937524Y-14677428D01*
X6928000Y-14686952D01*
X6908952Y-14696476D01*
X6889905Y-14696476D01*
X6870857Y-14686952D01*
X6861333Y-14677428D01*
X6851809Y-14658381D01*
X6842286Y-14620286D01*
X6842286Y-14572667D01*
X6851809Y-14534571D01*
X6861333Y-14515524D01*
X6870857Y-14506000D01*
X6889905Y-14496476D01*
X7080381Y-14496476D02*
X7099428Y-14496476D01*
X7118476Y-14506000D01*
X7128000Y-14515524D01*
X7137524Y-14534571D01*
X7147048Y-14572667D01*
X7147048Y-14620286D01*
X7137524Y-14658381D01*
X7128000Y-14677428D01*
X7118476Y-14686952D01*
X7099428Y-14696476D01*
X7080381Y-14696476D01*
X7061333Y-14686952D01*
X7051809Y-14677428D01*
X7042286Y-14658381D01*
X7032762Y-14620286D01*
X7032762Y-14572667D01*
X7042286Y-14534571D01*
X7051809Y-14515524D01*
X7061333Y-14506000D01*
X7080381Y-14496476D01*
X7232762Y-14696476D02*
X7232762Y-14563143D01*
X7232762Y-14582190D02*
X7242286Y-14572667D01*
X7261333Y-14563143D01*
X7289905Y-14563143D01*
X7308952Y-14572667D01*
X7318476Y-14591714D01*
X7318476Y-14696476D01*
X7318476Y-14591714D02*
X7328000Y-14572667D01*
X7347048Y-14563143D01*
X7375619Y-14563143D01*
X7394667Y-14572667D01*
X7404190Y-14591714D01*
X7404190Y-14696476D01*
X7499428Y-14696476D02*
X7499428Y-14563143D01*
X7499428Y-14582190D02*
X7508952Y-14572667D01*
X7528000Y-14563143D01*
X7556571Y-14563143D01*
X7575619Y-14572667D01*
X7585143Y-14591714D01*
X7585143Y-14696476D01*
X7585143Y-14591714D02*
X7594667Y-14572667D01*
X7613714Y-14563143D01*
X7642286Y-14563143D01*
X7661333Y-14572667D01*
X7670857Y-14591714D01*
X7670857Y-14696476D01*
X8061333Y-14486952D02*
X7889905Y-14744095D01*
X8318476Y-14496476D02*
X8337524Y-14496476D01*
X8356571Y-14506000D01*
X8366095Y-14515524D01*
X8375619Y-14534571D01*
X8385143Y-14572667D01*
X8385143Y-14620286D01*
X8375619Y-14658381D01*
X8366095Y-14677428D01*
X8356571Y-14686952D01*
X8337524Y-14696476D01*
X8318476Y-14696476D01*
X8299428Y-14686952D01*
X8289905Y-14677428D01*
X8280381Y-14658381D01*
X8270857Y-14620286D01*
X8270857Y-14572667D01*
X8280381Y-14534571D01*
X8289905Y-14515524D01*
X8299428Y-14506000D01*
X8318476Y-14496476D01*
X8470857Y-14677428D02*
X8480381Y-14686952D01*
X8470857Y-14696476D01*
X8461333Y-14686952D01*
X8470857Y-14677428D01*
X8470857Y-14696476D01*
X8604190Y-14496476D02*
X8623238Y-14496476D01*
X8642286Y-14506000D01*
X8651810Y-14515524D01*
X8661333Y-14534571D01*
X8670857Y-14572667D01*
X8670857Y-14620286D01*
X8661333Y-14658381D01*
X8651810Y-14677428D01*
X8642286Y-14686952D01*
X8623238Y-14696476D01*
X8604190Y-14696476D01*
X8585143Y-14686952D01*
X8575619Y-14677428D01*
X8566095Y-14658381D01*
X8556571Y-14620286D01*
X8556571Y-14572667D01*
X8566095Y-14534571D01*
X8575619Y-14515524D01*
X8585143Y-14506000D01*
X8604190Y-14496476D01*
X8737524Y-14496476D02*
X8861333Y-14496476D01*
X8794667Y-14572667D01*
X8823238Y-14572667D01*
X8842286Y-14582190D01*
X8851810Y-14591714D01*
X8861333Y-14610762D01*
X8861333Y-14658381D01*
X8851810Y-14677428D01*
X8842286Y-14686952D01*
X8823238Y-14696476D01*
X8766095Y-14696476D01*
X8747048Y-14686952D01*
X8737524Y-14677428D01*
X9051810Y-14696476D02*
X8937524Y-14696476D01*
X8994667Y-14696476D02*
X8994667Y-14496476D01*
X8975619Y-14525048D01*
X8956571Y-14544095D01*
X8937524Y-14553619D01*
X9232762Y-14496476D02*
X9137524Y-14496476D01*
X9128000Y-14591714D01*
X9137524Y-14582190D01*
X9156571Y-14572667D01*
X9204190Y-14572667D01*
X9223238Y-14582190D01*
X9232762Y-14591714D01*
X9242286Y-14610762D01*
X9242286Y-14658381D01*
X9232762Y-14677428D01*
X9223238Y-14686952D01*
X9204190Y-14696476D01*
X9156571Y-14696476D01*
X9137524Y-14686952D01*
X9128000Y-14677428D01*
X9318476Y-14496476D02*
X9318476Y-14534571D01*
X9394667Y-14496476D02*
X9394667Y-14534571D01*
X9689905Y-14772667D02*
X9680381Y-14763143D01*
X9661333Y-14734571D01*
X9651810Y-14715524D01*
X9642286Y-14686952D01*
X9632762Y-14639333D01*
X9632762Y-14601238D01*
X9642286Y-14553619D01*
X9651810Y-14525048D01*
X9661333Y-14506000D01*
X9680381Y-14477428D01*
X9689905Y-14467905D01*
X9756571Y-14515524D02*
X9766095Y-14506000D01*
X9785143Y-14496476D01*
X9832762Y-14496476D01*
X9851810Y-14506000D01*
X9861333Y-14515524D01*
X9870857Y-14534571D01*
X9870857Y-14553619D01*
X9861333Y-14582190D01*
X9747048Y-14696476D01*
X9870857Y-14696476D01*
X10108952Y-14696476D02*
X10108952Y-14496476D01*
X10194667Y-14696476D02*
X10194667Y-14591714D01*
X10185143Y-14572667D01*
X10166095Y-14563143D01*
X10137524Y-14563143D01*
X10118476Y-14572667D01*
X10108952Y-14582190D01*
X10318476Y-14696476D02*
X10299429Y-14686952D01*
X10289905Y-14677428D01*
X10280381Y-14658381D01*
X10280381Y-14601238D01*
X10289905Y-14582190D01*
X10299429Y-14572667D01*
X10318476Y-14563143D01*
X10347048Y-14563143D01*
X10366095Y-14572667D01*
X10375619Y-14582190D01*
X10385143Y-14601238D01*
X10385143Y-14658381D01*
X10375619Y-14677428D01*
X10366095Y-14686952D01*
X10347048Y-14696476D01*
X10318476Y-14696476D01*
X10499429Y-14696476D02*
X10480381Y-14686952D01*
X10470857Y-14667905D01*
X10470857Y-14496476D01*
X10651810Y-14686952D02*
X10632762Y-14696476D01*
X10594667Y-14696476D01*
X10575619Y-14686952D01*
X10566095Y-14667905D01*
X10566095Y-14591714D01*
X10575619Y-14572667D01*
X10594667Y-14563143D01*
X10632762Y-14563143D01*
X10651810Y-14572667D01*
X10661333Y-14591714D01*
X10661333Y-14610762D01*
X10566095Y-14629809D01*
X10737524Y-14686952D02*
X10756571Y-14696476D01*
X10794667Y-14696476D01*
X10813714Y-14686952D01*
X10823238Y-14667905D01*
X10823238Y-14658381D01*
X10813714Y-14639333D01*
X10794667Y-14629809D01*
X10766095Y-14629809D01*
X10747048Y-14620286D01*
X10737524Y-14601238D01*
X10737524Y-14591714D01*
X10747048Y-14572667D01*
X10766095Y-14563143D01*
X10794667Y-14563143D01*
X10813714Y-14572667D01*
X10889905Y-14772667D02*
X10899429Y-14763143D01*
X10918476Y-14734571D01*
X10928000Y-14715524D01*
X10937524Y-14686952D01*
X10947048Y-14639333D01*
X10947048Y-14601238D01*
X10937524Y-14553619D01*
X10928000Y-14525048D01*
X10918476Y-14506000D01*
X10899429Y-14477428D01*
X10889905Y-14467905D01*
D17*
X6037990Y-14829995D02*
X6118000Y-14910005D01*
X6118000Y-14829995D02*
X6037990Y-14910005D01*
X6118000Y-14870000D02*
G75*
G03*
X6118000Y-14870000I-40005J0D01*
G01*
D11*
X6413714Y-14760476D02*
X6432762Y-14760476D01*
X6451809Y-14770000D01*
X6461333Y-14779524D01*
X6470857Y-14798571D01*
X6480381Y-14836667D01*
X6480381Y-14884286D01*
X6470857Y-14922381D01*
X6461333Y-14941428D01*
X6451809Y-14950952D01*
X6432762Y-14960476D01*
X6413714Y-14960476D01*
X6394667Y-14950952D01*
X6385143Y-14941428D01*
X6375619Y-14922381D01*
X6366095Y-14884286D01*
X6366095Y-14836667D01*
X6375619Y-14798571D01*
X6385143Y-14779524D01*
X6394667Y-14770000D01*
X6413714Y-14760476D01*
X6566095Y-14941428D02*
X6575619Y-14950952D01*
X6566095Y-14960476D01*
X6556571Y-14950952D01*
X6566095Y-14941428D01*
X6566095Y-14960476D01*
X6689905Y-14846190D02*
X6670857Y-14836667D01*
X6661333Y-14827143D01*
X6651809Y-14808095D01*
X6651809Y-14798571D01*
X6661333Y-14779524D01*
X6670857Y-14770000D01*
X6689905Y-14760476D01*
X6728000Y-14760476D01*
X6747048Y-14770000D01*
X6756571Y-14779524D01*
X6766095Y-14798571D01*
X6766095Y-14808095D01*
X6756571Y-14827143D01*
X6747048Y-14836667D01*
X6728000Y-14846190D01*
X6689905Y-14846190D01*
X6670857Y-14855714D01*
X6661333Y-14865238D01*
X6651809Y-14884286D01*
X6651809Y-14922381D01*
X6661333Y-14941428D01*
X6670857Y-14950952D01*
X6689905Y-14960476D01*
X6728000Y-14960476D01*
X6747048Y-14950952D01*
X6756571Y-14941428D01*
X6766095Y-14922381D01*
X6766095Y-14884286D01*
X6756571Y-14865238D01*
X6747048Y-14855714D01*
X6728000Y-14846190D01*
X6889905Y-14760476D02*
X6908952Y-14760476D01*
X6928000Y-14770000D01*
X6937524Y-14779524D01*
X6947048Y-14798571D01*
X6956571Y-14836667D01*
X6956571Y-14884286D01*
X6947048Y-14922381D01*
X6937524Y-14941428D01*
X6928000Y-14950952D01*
X6908952Y-14960476D01*
X6889905Y-14960476D01*
X6870857Y-14950952D01*
X6861333Y-14941428D01*
X6851809Y-14922381D01*
X6842286Y-14884286D01*
X6842286Y-14836667D01*
X6851809Y-14798571D01*
X6861333Y-14779524D01*
X6870857Y-14770000D01*
X6889905Y-14760476D01*
X7080381Y-14760476D02*
X7099428Y-14760476D01*
X7118476Y-14770000D01*
X7128000Y-14779524D01*
X7137524Y-14798571D01*
X7147048Y-14836667D01*
X7147048Y-14884286D01*
X7137524Y-14922381D01*
X7128000Y-14941428D01*
X7118476Y-14950952D01*
X7099428Y-14960476D01*
X7080381Y-14960476D01*
X7061333Y-14950952D01*
X7051809Y-14941428D01*
X7042286Y-14922381D01*
X7032762Y-14884286D01*
X7032762Y-14836667D01*
X7042286Y-14798571D01*
X7051809Y-14779524D01*
X7061333Y-14770000D01*
X7080381Y-14760476D01*
X7232762Y-14960476D02*
X7232762Y-14827143D01*
X7232762Y-14846190D02*
X7242286Y-14836667D01*
X7261333Y-14827143D01*
X7289905Y-14827143D01*
X7308952Y-14836667D01*
X7318476Y-14855714D01*
X7318476Y-14960476D01*
X7318476Y-14855714D02*
X7328000Y-14836667D01*
X7347048Y-14827143D01*
X7375619Y-14827143D01*
X7394667Y-14836667D01*
X7404190Y-14855714D01*
X7404190Y-14960476D01*
X7499428Y-14960476D02*
X7499428Y-14827143D01*
X7499428Y-14846190D02*
X7508952Y-14836667D01*
X7528000Y-14827143D01*
X7556571Y-14827143D01*
X7575619Y-14836667D01*
X7585143Y-14855714D01*
X7585143Y-14960476D01*
X7585143Y-14855714D02*
X7594667Y-14836667D01*
X7613714Y-14827143D01*
X7642286Y-14827143D01*
X7661333Y-14836667D01*
X7670857Y-14855714D01*
X7670857Y-14960476D01*
X8061333Y-14750952D02*
X7889905Y-15008095D01*
X8318476Y-14760476D02*
X8337524Y-14760476D01*
X8356571Y-14770000D01*
X8366095Y-14779524D01*
X8375619Y-14798571D01*
X8385143Y-14836667D01*
X8385143Y-14884286D01*
X8375619Y-14922381D01*
X8366095Y-14941428D01*
X8356571Y-14950952D01*
X8337524Y-14960476D01*
X8318476Y-14960476D01*
X8299428Y-14950952D01*
X8289905Y-14941428D01*
X8280381Y-14922381D01*
X8270857Y-14884286D01*
X8270857Y-14836667D01*
X8280381Y-14798571D01*
X8289905Y-14779524D01*
X8299428Y-14770000D01*
X8318476Y-14760476D01*
X8470857Y-14941428D02*
X8480381Y-14950952D01*
X8470857Y-14960476D01*
X8461333Y-14950952D01*
X8470857Y-14941428D01*
X8470857Y-14960476D01*
X8604190Y-14760476D02*
X8623238Y-14760476D01*
X8642286Y-14770000D01*
X8651810Y-14779524D01*
X8661333Y-14798571D01*
X8670857Y-14836667D01*
X8670857Y-14884286D01*
X8661333Y-14922381D01*
X8651810Y-14941428D01*
X8642286Y-14950952D01*
X8623238Y-14960476D01*
X8604190Y-14960476D01*
X8585143Y-14950952D01*
X8575619Y-14941428D01*
X8566095Y-14922381D01*
X8556571Y-14884286D01*
X8556571Y-14836667D01*
X8566095Y-14798571D01*
X8575619Y-14779524D01*
X8585143Y-14770000D01*
X8604190Y-14760476D01*
X8737524Y-14760476D02*
X8861333Y-14760476D01*
X8794667Y-14836667D01*
X8823238Y-14836667D01*
X8842286Y-14846190D01*
X8851810Y-14855714D01*
X8861333Y-14874762D01*
X8861333Y-14922381D01*
X8851810Y-14941428D01*
X8842286Y-14950952D01*
X8823238Y-14960476D01*
X8766095Y-14960476D01*
X8747048Y-14950952D01*
X8737524Y-14941428D01*
X9051810Y-14960476D02*
X8937524Y-14960476D01*
X8994667Y-14960476D02*
X8994667Y-14760476D01*
X8975619Y-14789048D01*
X8956571Y-14808095D01*
X8937524Y-14817619D01*
X9232762Y-14760476D02*
X9137524Y-14760476D01*
X9128000Y-14855714D01*
X9137524Y-14846190D01*
X9156571Y-14836667D01*
X9204190Y-14836667D01*
X9223238Y-14846190D01*
X9232762Y-14855714D01*
X9242286Y-14874762D01*
X9242286Y-14922381D01*
X9232762Y-14941428D01*
X9223238Y-14950952D01*
X9204190Y-14960476D01*
X9156571Y-14960476D01*
X9137524Y-14950952D01*
X9128000Y-14941428D01*
X9318476Y-14760476D02*
X9318476Y-14798571D01*
X9394667Y-14760476D02*
X9394667Y-14798571D01*
X9689905Y-15036667D02*
X9680381Y-15027143D01*
X9661333Y-14998571D01*
X9651810Y-14979524D01*
X9642286Y-14950952D01*
X9632762Y-14903333D01*
X9632762Y-14865238D01*
X9642286Y-14817619D01*
X9651810Y-14789048D01*
X9661333Y-14770000D01*
X9680381Y-14741428D01*
X9689905Y-14731905D01*
X9794667Y-14846190D02*
X9775619Y-14836667D01*
X9766095Y-14827143D01*
X9756571Y-14808095D01*
X9756571Y-14798571D01*
X9766095Y-14779524D01*
X9775619Y-14770000D01*
X9794667Y-14760476D01*
X9832762Y-14760476D01*
X9851810Y-14770000D01*
X9861333Y-14779524D01*
X9870857Y-14798571D01*
X9870857Y-14808095D01*
X9861333Y-14827143D01*
X9851810Y-14836667D01*
X9832762Y-14846190D01*
X9794667Y-14846190D01*
X9775619Y-14855714D01*
X9766095Y-14865238D01*
X9756571Y-14884286D01*
X9756571Y-14922381D01*
X9766095Y-14941428D01*
X9775619Y-14950952D01*
X9794667Y-14960476D01*
X9832762Y-14960476D01*
X9851810Y-14950952D01*
X9861333Y-14941428D01*
X9870857Y-14922381D01*
X9870857Y-14884286D01*
X9861333Y-14865238D01*
X9851810Y-14855714D01*
X9832762Y-14846190D01*
X10108952Y-14960476D02*
X10108952Y-14760476D01*
X10194667Y-14960476D02*
X10194667Y-14855714D01*
X10185143Y-14836667D01*
X10166095Y-14827143D01*
X10137524Y-14827143D01*
X10118476Y-14836667D01*
X10108952Y-14846190D01*
X10318476Y-14960476D02*
X10299429Y-14950952D01*
X10289905Y-14941428D01*
X10280381Y-14922381D01*
X10280381Y-14865238D01*
X10289905Y-14846190D01*
X10299429Y-14836667D01*
X10318476Y-14827143D01*
X10347048Y-14827143D01*
X10366095Y-14836667D01*
X10375619Y-14846190D01*
X10385143Y-14865238D01*
X10385143Y-14922381D01*
X10375619Y-14941428D01*
X10366095Y-14950952D01*
X10347048Y-14960476D01*
X10318476Y-14960476D01*
X10499429Y-14960476D02*
X10480381Y-14950952D01*
X10470857Y-14931905D01*
X10470857Y-14760476D01*
X10651810Y-14950952D02*
X10632762Y-14960476D01*
X10594667Y-14960476D01*
X10575619Y-14950952D01*
X10566095Y-14931905D01*
X10566095Y-14855714D01*
X10575619Y-14836667D01*
X10594667Y-14827143D01*
X10632762Y-14827143D01*
X10651810Y-14836667D01*
X10661333Y-14855714D01*
X10661333Y-14874762D01*
X10566095Y-14893809D01*
X10737524Y-14950952D02*
X10756571Y-14960476D01*
X10794667Y-14960476D01*
X10813714Y-14950952D01*
X10823238Y-14931905D01*
X10823238Y-14922381D01*
X10813714Y-14903333D01*
X10794667Y-14893809D01*
X10766095Y-14893809D01*
X10747048Y-14884286D01*
X10737524Y-14865238D01*
X10737524Y-14855714D01*
X10747048Y-14836667D01*
X10766095Y-14827143D01*
X10794667Y-14827143D01*
X10813714Y-14836667D01*
X10889905Y-15036667D02*
X10899429Y-15027143D01*
X10918476Y-14998571D01*
X10928000Y-14979524D01*
X10937524Y-14950952D01*
X10947048Y-14903333D01*
X10947048Y-14865238D01*
X10937524Y-14817619D01*
X10928000Y-14789048D01*
X10918476Y-14770000D01*
X10899429Y-14741428D01*
X10889905Y-14731905D01*
D18*
X6036720Y-15093360D02*
X6118000Y-15174640D01*
X6118000Y-15093360D02*
X6036720Y-15174640D01*
X6077360Y-15093360D02*
X6077360Y-15174640D01*
X6036720Y-15134000D02*
X6118000Y-15134000D01*
D11*
X6413714Y-15024476D02*
X6432762Y-15024476D01*
X6451809Y-15034000D01*
X6461333Y-15043524D01*
X6470857Y-15062571D01*
X6480381Y-15100667D01*
X6480381Y-15148286D01*
X6470857Y-15186381D01*
X6461333Y-15205428D01*
X6451809Y-15214952D01*
X6432762Y-15224476D01*
X6413714Y-15224476D01*
X6394667Y-15214952D01*
X6385143Y-15205428D01*
X6375619Y-15186381D01*
X6366095Y-15148286D01*
X6366095Y-15100667D01*
X6375619Y-15062571D01*
X6385143Y-15043524D01*
X6394667Y-15034000D01*
X6413714Y-15024476D01*
X6566095Y-15205428D02*
X6575619Y-15214952D01*
X6566095Y-15224476D01*
X6556571Y-15214952D01*
X6566095Y-15205428D01*
X6566095Y-15224476D01*
X6689905Y-15110190D02*
X6670857Y-15100667D01*
X6661333Y-15091143D01*
X6651809Y-15072095D01*
X6651809Y-15062571D01*
X6661333Y-15043524D01*
X6670857Y-15034000D01*
X6689905Y-15024476D01*
X6728000Y-15024476D01*
X6747048Y-15034000D01*
X6756571Y-15043524D01*
X6766095Y-15062571D01*
X6766095Y-15072095D01*
X6756571Y-15091143D01*
X6747048Y-15100667D01*
X6728000Y-15110190D01*
X6689905Y-15110190D01*
X6670857Y-15119714D01*
X6661333Y-15129238D01*
X6651809Y-15148286D01*
X6651809Y-15186381D01*
X6661333Y-15205428D01*
X6670857Y-15214952D01*
X6689905Y-15224476D01*
X6728000Y-15224476D01*
X6747048Y-15214952D01*
X6756571Y-15205428D01*
X6766095Y-15186381D01*
X6766095Y-15148286D01*
X6756571Y-15129238D01*
X6747048Y-15119714D01*
X6728000Y-15110190D01*
X6956571Y-15224476D02*
X6842286Y-15224476D01*
X6899428Y-15224476D02*
X6899428Y-15024476D01*
X6880381Y-15053048D01*
X6861333Y-15072095D01*
X6842286Y-15081619D01*
X7023238Y-15024476D02*
X7147048Y-15024476D01*
X7080381Y-15100667D01*
X7108952Y-15100667D01*
X7128000Y-15110190D01*
X7137524Y-15119714D01*
X7147048Y-15138762D01*
X7147048Y-15186381D01*
X7137524Y-15205428D01*
X7128000Y-15214952D01*
X7108952Y-15224476D01*
X7051809Y-15224476D01*
X7032762Y-15214952D01*
X7023238Y-15205428D01*
X7232762Y-15224476D02*
X7232762Y-15091143D01*
X7232762Y-15110190D02*
X7242286Y-15100667D01*
X7261333Y-15091143D01*
X7289905Y-15091143D01*
X7308952Y-15100667D01*
X7318476Y-15119714D01*
X7318476Y-15224476D01*
X7318476Y-15119714D02*
X7328000Y-15100667D01*
X7347048Y-15091143D01*
X7375619Y-15091143D01*
X7394667Y-15100667D01*
X7404190Y-15119714D01*
X7404190Y-15224476D01*
X7499428Y-15224476D02*
X7499428Y-15091143D01*
X7499428Y-15110190D02*
X7508952Y-15100667D01*
X7528000Y-15091143D01*
X7556571Y-15091143D01*
X7575619Y-15100667D01*
X7585143Y-15119714D01*
X7585143Y-15224476D01*
X7585143Y-15119714D02*
X7594667Y-15100667D01*
X7613714Y-15091143D01*
X7642286Y-15091143D01*
X7661333Y-15100667D01*
X7670857Y-15119714D01*
X7670857Y-15224476D01*
X8061333Y-15014952D02*
X7889905Y-15272095D01*
X8318476Y-15024476D02*
X8337524Y-15024476D01*
X8356571Y-15034000D01*
X8366095Y-15043524D01*
X8375619Y-15062571D01*
X8385143Y-15100667D01*
X8385143Y-15148286D01*
X8375619Y-15186381D01*
X8366095Y-15205428D01*
X8356571Y-15214952D01*
X8337524Y-15224476D01*
X8318476Y-15224476D01*
X8299428Y-15214952D01*
X8289905Y-15205428D01*
X8280381Y-15186381D01*
X8270857Y-15148286D01*
X8270857Y-15100667D01*
X8280381Y-15062571D01*
X8289905Y-15043524D01*
X8299428Y-15034000D01*
X8318476Y-15024476D01*
X8470857Y-15205428D02*
X8480381Y-15214952D01*
X8470857Y-15224476D01*
X8461333Y-15214952D01*
X8470857Y-15205428D01*
X8470857Y-15224476D01*
X8604190Y-15024476D02*
X8623238Y-15024476D01*
X8642286Y-15034000D01*
X8651810Y-15043524D01*
X8661333Y-15062571D01*
X8670857Y-15100667D01*
X8670857Y-15148286D01*
X8661333Y-15186381D01*
X8651810Y-15205428D01*
X8642286Y-15214952D01*
X8623238Y-15224476D01*
X8604190Y-15224476D01*
X8585143Y-15214952D01*
X8575619Y-15205428D01*
X8566095Y-15186381D01*
X8556571Y-15148286D01*
X8556571Y-15100667D01*
X8566095Y-15062571D01*
X8575619Y-15043524D01*
X8585143Y-15034000D01*
X8604190Y-15024476D01*
X8737524Y-15024476D02*
X8861333Y-15024476D01*
X8794667Y-15100667D01*
X8823238Y-15100667D01*
X8842286Y-15110190D01*
X8851810Y-15119714D01*
X8861333Y-15138762D01*
X8861333Y-15186381D01*
X8851810Y-15205428D01*
X8842286Y-15214952D01*
X8823238Y-15224476D01*
X8766095Y-15224476D01*
X8747048Y-15214952D01*
X8737524Y-15205428D01*
X8937524Y-15043524D02*
X8947048Y-15034000D01*
X8966095Y-15024476D01*
X9013714Y-15024476D01*
X9032762Y-15034000D01*
X9042286Y-15043524D01*
X9051810Y-15062571D01*
X9051810Y-15081619D01*
X9042286Y-15110190D01*
X8928000Y-15224476D01*
X9051810Y-15224476D01*
X9175619Y-15024476D02*
X9194667Y-15024476D01*
X9213714Y-15034000D01*
X9223238Y-15043524D01*
X9232762Y-15062571D01*
X9242286Y-15100667D01*
X9242286Y-15148286D01*
X9232762Y-15186381D01*
X9223238Y-15205428D01*
X9213714Y-15214952D01*
X9194667Y-15224476D01*
X9175619Y-15224476D01*
X9156571Y-15214952D01*
X9147048Y-15205428D01*
X9137524Y-15186381D01*
X9128000Y-15148286D01*
X9128000Y-15100667D01*
X9137524Y-15062571D01*
X9147048Y-15043524D01*
X9156571Y-15034000D01*
X9175619Y-15024476D01*
X9318476Y-15024476D02*
X9318476Y-15062571D01*
X9394667Y-15024476D02*
X9394667Y-15062571D01*
X9689905Y-15300667D02*
X9680381Y-15291143D01*
X9661333Y-15262571D01*
X9651810Y-15243524D01*
X9642286Y-15214952D01*
X9632762Y-15167333D01*
X9632762Y-15129238D01*
X9642286Y-15081619D01*
X9651810Y-15053048D01*
X9661333Y-15034000D01*
X9680381Y-15005428D01*
X9689905Y-14995905D01*
X9756571Y-15043524D02*
X9766095Y-15034000D01*
X9785143Y-15024476D01*
X9832762Y-15024476D01*
X9851810Y-15034000D01*
X9861333Y-15043524D01*
X9870857Y-15062571D01*
X9870857Y-15081619D01*
X9861333Y-15110190D01*
X9747048Y-15224476D01*
X9870857Y-15224476D01*
X10108952Y-15224476D02*
X10108952Y-15024476D01*
X10194667Y-15224476D02*
X10194667Y-15119714D01*
X10185143Y-15100667D01*
X10166095Y-15091143D01*
X10137524Y-15091143D01*
X10118476Y-15100667D01*
X10108952Y-15110190D01*
X10318476Y-15224476D02*
X10299429Y-15214952D01*
X10289905Y-15205428D01*
X10280381Y-15186381D01*
X10280381Y-15129238D01*
X10289905Y-15110190D01*
X10299429Y-15100667D01*
X10318476Y-15091143D01*
X10347048Y-15091143D01*
X10366095Y-15100667D01*
X10375619Y-15110190D01*
X10385143Y-15129238D01*
X10385143Y-15186381D01*
X10375619Y-15205428D01*
X10366095Y-15214952D01*
X10347048Y-15224476D01*
X10318476Y-15224476D01*
X10499429Y-15224476D02*
X10480381Y-15214952D01*
X10470857Y-15195905D01*
X10470857Y-15024476D01*
X10651810Y-15214952D02*
X10632762Y-15224476D01*
X10594667Y-15224476D01*
X10575619Y-15214952D01*
X10566095Y-15195905D01*
X10566095Y-15119714D01*
X10575619Y-15100667D01*
X10594667Y-15091143D01*
X10632762Y-15091143D01*
X10651810Y-15100667D01*
X10661333Y-15119714D01*
X10661333Y-15138762D01*
X10566095Y-15157809D01*
X10737524Y-15214952D02*
X10756571Y-15224476D01*
X10794667Y-15224476D01*
X10813714Y-15214952D01*
X10823238Y-15195905D01*
X10823238Y-15186381D01*
X10813714Y-15167333D01*
X10794667Y-15157809D01*
X10766095Y-15157809D01*
X10747048Y-15148286D01*
X10737524Y-15129238D01*
X10737524Y-15119714D01*
X10747048Y-15100667D01*
X10766095Y-15091143D01*
X10794667Y-15091143D01*
X10813714Y-15100667D01*
X10889905Y-15300667D02*
X10899429Y-15291143D01*
X10918476Y-15262571D01*
X10928000Y-15243524D01*
X10937524Y-15214952D01*
X10947048Y-15167333D01*
X10947048Y-15129238D01*
X10937524Y-15081619D01*
X10928000Y-15053048D01*
X10918476Y-15034000D01*
X10899429Y-15005428D01*
X10889905Y-14995905D01*
D19*
X6029100Y-15353550D02*
X6118000Y-15442450D01*
X6118000Y-15353550D02*
X6029100Y-15442450D01*
X6104981Y-15429431D02*
X6104981Y-15366569D01*
X6042119Y-15366569D01*
X6042119Y-15429431D01*
X6104981Y-15429431D01*
D11*
X6413714Y-15288476D02*
X6432762Y-15288476D01*
X6451809Y-15298000D01*
X6461333Y-15307524D01*
X6470857Y-15326571D01*
X6480381Y-15364667D01*
X6480381Y-15412286D01*
X6470857Y-15450381D01*
X6461333Y-15469428D01*
X6451809Y-15478952D01*
X6432762Y-15488476D01*
X6413714Y-15488476D01*
X6394667Y-15478952D01*
X6385143Y-15469428D01*
X6375619Y-15450381D01*
X6366095Y-15412286D01*
X6366095Y-15364667D01*
X6375619Y-15326571D01*
X6385143Y-15307524D01*
X6394667Y-15298000D01*
X6413714Y-15288476D01*
X6566095Y-15469428D02*
X6575619Y-15478952D01*
X6566095Y-15488476D01*
X6556571Y-15478952D01*
X6566095Y-15469428D01*
X6566095Y-15488476D01*
X6689905Y-15374190D02*
X6670857Y-15364667D01*
X6661333Y-15355143D01*
X6651809Y-15336095D01*
X6651809Y-15326571D01*
X6661333Y-15307524D01*
X6670857Y-15298000D01*
X6689905Y-15288476D01*
X6728000Y-15288476D01*
X6747048Y-15298000D01*
X6756571Y-15307524D01*
X6766095Y-15326571D01*
X6766095Y-15336095D01*
X6756571Y-15355143D01*
X6747048Y-15364667D01*
X6728000Y-15374190D01*
X6689905Y-15374190D01*
X6670857Y-15383714D01*
X6661333Y-15393238D01*
X6651809Y-15412286D01*
X6651809Y-15450381D01*
X6661333Y-15469428D01*
X6670857Y-15478952D01*
X6689905Y-15488476D01*
X6728000Y-15488476D01*
X6747048Y-15478952D01*
X6756571Y-15469428D01*
X6766095Y-15450381D01*
X6766095Y-15412286D01*
X6756571Y-15393238D01*
X6747048Y-15383714D01*
X6728000Y-15374190D01*
X6880381Y-15374190D02*
X6861333Y-15364667D01*
X6851809Y-15355143D01*
X6842286Y-15336095D01*
X6842286Y-15326571D01*
X6851809Y-15307524D01*
X6861333Y-15298000D01*
X6880381Y-15288476D01*
X6918476Y-15288476D01*
X6937524Y-15298000D01*
X6947048Y-15307524D01*
X6956571Y-15326571D01*
X6956571Y-15336095D01*
X6947048Y-15355143D01*
X6937524Y-15364667D01*
X6918476Y-15374190D01*
X6880381Y-15374190D01*
X6861333Y-15383714D01*
X6851809Y-15393238D01*
X6842286Y-15412286D01*
X6842286Y-15450381D01*
X6851809Y-15469428D01*
X6861333Y-15478952D01*
X6880381Y-15488476D01*
X6918476Y-15488476D01*
X6937524Y-15478952D01*
X6947048Y-15469428D01*
X6956571Y-15450381D01*
X6956571Y-15412286D01*
X6947048Y-15393238D01*
X6937524Y-15383714D01*
X6918476Y-15374190D01*
X7051809Y-15488476D02*
X7089905Y-15488476D01*
X7108952Y-15478952D01*
X7118476Y-15469428D01*
X7137524Y-15440857D01*
X7147048Y-15402762D01*
X7147048Y-15326571D01*
X7137524Y-15307524D01*
X7128000Y-15298000D01*
X7108952Y-15288476D01*
X7070857Y-15288476D01*
X7051809Y-15298000D01*
X7042286Y-15307524D01*
X7032762Y-15326571D01*
X7032762Y-15374190D01*
X7042286Y-15393238D01*
X7051809Y-15402762D01*
X7070857Y-15412286D01*
X7108952Y-15412286D01*
X7128000Y-15402762D01*
X7137524Y-15393238D01*
X7147048Y-15374190D01*
X7232762Y-15488476D02*
X7232762Y-15355143D01*
X7232762Y-15374190D02*
X7242286Y-15364667D01*
X7261333Y-15355143D01*
X7289905Y-15355143D01*
X7308952Y-15364667D01*
X7318476Y-15383714D01*
X7318476Y-15488476D01*
X7318476Y-15383714D02*
X7328000Y-15364667D01*
X7347048Y-15355143D01*
X7375619Y-15355143D01*
X7394667Y-15364667D01*
X7404190Y-15383714D01*
X7404190Y-15488476D01*
X7499428Y-15488476D02*
X7499428Y-15355143D01*
X7499428Y-15374190D02*
X7508952Y-15364667D01*
X7528000Y-15355143D01*
X7556571Y-15355143D01*
X7575619Y-15364667D01*
X7585143Y-15383714D01*
X7585143Y-15488476D01*
X7585143Y-15383714D02*
X7594667Y-15364667D01*
X7613714Y-15355143D01*
X7642286Y-15355143D01*
X7661333Y-15364667D01*
X7670857Y-15383714D01*
X7670857Y-15488476D01*
X8061333Y-15278952D02*
X7889905Y-15536095D01*
X8318476Y-15288476D02*
X8337524Y-15288476D01*
X8356571Y-15298000D01*
X8366095Y-15307524D01*
X8375619Y-15326571D01*
X8385143Y-15364667D01*
X8385143Y-15412286D01*
X8375619Y-15450381D01*
X8366095Y-15469428D01*
X8356571Y-15478952D01*
X8337524Y-15488476D01*
X8318476Y-15488476D01*
X8299428Y-15478952D01*
X8289905Y-15469428D01*
X8280381Y-15450381D01*
X8270857Y-15412286D01*
X8270857Y-15364667D01*
X8280381Y-15326571D01*
X8289905Y-15307524D01*
X8299428Y-15298000D01*
X8318476Y-15288476D01*
X8470857Y-15469428D02*
X8480381Y-15478952D01*
X8470857Y-15488476D01*
X8461333Y-15478952D01*
X8470857Y-15469428D01*
X8470857Y-15488476D01*
X8604190Y-15288476D02*
X8623238Y-15288476D01*
X8642286Y-15298000D01*
X8651810Y-15307524D01*
X8661333Y-15326571D01*
X8670857Y-15364667D01*
X8670857Y-15412286D01*
X8661333Y-15450381D01*
X8651810Y-15469428D01*
X8642286Y-15478952D01*
X8623238Y-15488476D01*
X8604190Y-15488476D01*
X8585143Y-15478952D01*
X8575619Y-15469428D01*
X8566095Y-15450381D01*
X8556571Y-15412286D01*
X8556571Y-15364667D01*
X8566095Y-15326571D01*
X8575619Y-15307524D01*
X8585143Y-15298000D01*
X8604190Y-15288476D01*
X8737524Y-15288476D02*
X8861333Y-15288476D01*
X8794667Y-15364667D01*
X8823238Y-15364667D01*
X8842286Y-15374190D01*
X8851810Y-15383714D01*
X8861333Y-15402762D01*
X8861333Y-15450381D01*
X8851810Y-15469428D01*
X8842286Y-15478952D01*
X8823238Y-15488476D01*
X8766095Y-15488476D01*
X8747048Y-15478952D01*
X8737524Y-15469428D01*
X9042286Y-15288476D02*
X8947048Y-15288476D01*
X8937524Y-15383714D01*
X8947048Y-15374190D01*
X8966095Y-15364667D01*
X9013714Y-15364667D01*
X9032762Y-15374190D01*
X9042286Y-15383714D01*
X9051810Y-15402762D01*
X9051810Y-15450381D01*
X9042286Y-15469428D01*
X9032762Y-15478952D01*
X9013714Y-15488476D01*
X8966095Y-15488476D01*
X8947048Y-15478952D01*
X8937524Y-15469428D01*
X9175619Y-15288476D02*
X9194667Y-15288476D01*
X9213714Y-15298000D01*
X9223238Y-15307524D01*
X9232762Y-15326571D01*
X9242286Y-15364667D01*
X9242286Y-15412286D01*
X9232762Y-15450381D01*
X9223238Y-15469428D01*
X9213714Y-15478952D01*
X9194667Y-15488476D01*
X9175619Y-15488476D01*
X9156571Y-15478952D01*
X9147048Y-15469428D01*
X9137524Y-15450381D01*
X9128000Y-15412286D01*
X9128000Y-15364667D01*
X9137524Y-15326571D01*
X9147048Y-15307524D01*
X9156571Y-15298000D01*
X9175619Y-15288476D01*
X9318476Y-15288476D02*
X9318476Y-15326571D01*
X9394667Y-15288476D02*
X9394667Y-15326571D01*
X9689905Y-15564667D02*
X9680381Y-15555143D01*
X9661333Y-15526571D01*
X9651810Y-15507524D01*
X9642286Y-15478952D01*
X9632762Y-15431333D01*
X9632762Y-15393238D01*
X9642286Y-15345619D01*
X9651810Y-15317048D01*
X9661333Y-15298000D01*
X9680381Y-15269428D01*
X9689905Y-15259905D01*
X9851810Y-15288476D02*
X9813714Y-15288476D01*
X9794667Y-15298000D01*
X9785143Y-15307524D01*
X9766095Y-15336095D01*
X9756571Y-15374190D01*
X9756571Y-15450381D01*
X9766095Y-15469428D01*
X9775619Y-15478952D01*
X9794667Y-15488476D01*
X9832762Y-15488476D01*
X9851810Y-15478952D01*
X9861333Y-15469428D01*
X9870857Y-15450381D01*
X9870857Y-15402762D01*
X9861333Y-15383714D01*
X9851810Y-15374190D01*
X9832762Y-15364667D01*
X9794667Y-15364667D01*
X9775619Y-15374190D01*
X9766095Y-15383714D01*
X9756571Y-15402762D01*
X10108952Y-15488476D02*
X10108952Y-15288476D01*
X10194667Y-15488476D02*
X10194667Y-15383714D01*
X10185143Y-15364667D01*
X10166095Y-15355143D01*
X10137524Y-15355143D01*
X10118476Y-15364667D01*
X10108952Y-15374190D01*
X10318476Y-15488476D02*
X10299429Y-15478952D01*
X10289905Y-15469428D01*
X10280381Y-15450381D01*
X10280381Y-15393238D01*
X10289905Y-15374190D01*
X10299429Y-15364667D01*
X10318476Y-15355143D01*
X10347048Y-15355143D01*
X10366095Y-15364667D01*
X10375619Y-15374190D01*
X10385143Y-15393238D01*
X10385143Y-15450381D01*
X10375619Y-15469428D01*
X10366095Y-15478952D01*
X10347048Y-15488476D01*
X10318476Y-15488476D01*
X10499429Y-15488476D02*
X10480381Y-15478952D01*
X10470857Y-15459905D01*
X10470857Y-15288476D01*
X10651810Y-15478952D02*
X10632762Y-15488476D01*
X10594667Y-15488476D01*
X10575619Y-15478952D01*
X10566095Y-15459905D01*
X10566095Y-15383714D01*
X10575619Y-15364667D01*
X10594667Y-15355143D01*
X10632762Y-15355143D01*
X10651810Y-15364667D01*
X10661333Y-15383714D01*
X10661333Y-15402762D01*
X10566095Y-15421809D01*
X10737524Y-15478952D02*
X10756571Y-15488476D01*
X10794667Y-15488476D01*
X10813714Y-15478952D01*
X10823238Y-15459905D01*
X10823238Y-15450381D01*
X10813714Y-15431333D01*
X10794667Y-15421809D01*
X10766095Y-15421809D01*
X10747048Y-15412286D01*
X10737524Y-15393238D01*
X10737524Y-15383714D01*
X10747048Y-15364667D01*
X10766095Y-15355143D01*
X10794667Y-15355143D01*
X10813714Y-15364667D01*
X10889905Y-15564667D02*
X10899429Y-15555143D01*
X10918476Y-15526571D01*
X10928000Y-15507524D01*
X10937524Y-15478952D01*
X10947048Y-15431333D01*
X10947048Y-15393238D01*
X10937524Y-15345619D01*
X10928000Y-15317048D01*
X10918476Y-15298000D01*
X10899429Y-15269428D01*
X10889905Y-15259905D01*
D20*
X6028084Y-15617042D02*
X6118000Y-15706958D01*
X6118000Y-15617042D02*
X6028084Y-15706958D01*
X6073042Y-15706958D02*
X6118000Y-15662000D01*
X6073042Y-15617042D01*
X6028084Y-15662000D01*
X6073042Y-15706958D01*
D11*
X6413714Y-15552476D02*
X6432762Y-15552476D01*
X6451809Y-15562000D01*
X6461333Y-15571524D01*
X6470857Y-15590571D01*
X6480381Y-15628667D01*
X6480381Y-15676286D01*
X6470857Y-15714381D01*
X6461333Y-15733428D01*
X6451809Y-15742952D01*
X6432762Y-15752476D01*
X6413714Y-15752476D01*
X6394667Y-15742952D01*
X6385143Y-15733428D01*
X6375619Y-15714381D01*
X6366095Y-15676286D01*
X6366095Y-15628667D01*
X6375619Y-15590571D01*
X6385143Y-15571524D01*
X6394667Y-15562000D01*
X6413714Y-15552476D01*
X6566095Y-15733428D02*
X6575619Y-15742952D01*
X6566095Y-15752476D01*
X6556571Y-15742952D01*
X6566095Y-15733428D01*
X6566095Y-15752476D01*
X6689905Y-15638190D02*
X6670857Y-15628667D01*
X6661333Y-15619143D01*
X6651809Y-15600095D01*
X6651809Y-15590571D01*
X6661333Y-15571524D01*
X6670857Y-15562000D01*
X6689905Y-15552476D01*
X6728000Y-15552476D01*
X6747048Y-15562000D01*
X6756571Y-15571524D01*
X6766095Y-15590571D01*
X6766095Y-15600095D01*
X6756571Y-15619143D01*
X6747048Y-15628667D01*
X6728000Y-15638190D01*
X6689905Y-15638190D01*
X6670857Y-15647714D01*
X6661333Y-15657238D01*
X6651809Y-15676286D01*
X6651809Y-15714381D01*
X6661333Y-15733428D01*
X6670857Y-15742952D01*
X6689905Y-15752476D01*
X6728000Y-15752476D01*
X6747048Y-15742952D01*
X6756571Y-15733428D01*
X6766095Y-15714381D01*
X6766095Y-15676286D01*
X6756571Y-15657238D01*
X6747048Y-15647714D01*
X6728000Y-15638190D01*
X6861333Y-15752476D02*
X6899428Y-15752476D01*
X6918476Y-15742952D01*
X6928000Y-15733428D01*
X6947048Y-15704857D01*
X6956571Y-15666762D01*
X6956571Y-15590571D01*
X6947048Y-15571524D01*
X6937524Y-15562000D01*
X6918476Y-15552476D01*
X6880381Y-15552476D01*
X6861333Y-15562000D01*
X6851809Y-15571524D01*
X6842286Y-15590571D01*
X6842286Y-15638190D01*
X6851809Y-15657238D01*
X6861333Y-15666762D01*
X6880381Y-15676286D01*
X6918476Y-15676286D01*
X6937524Y-15666762D01*
X6947048Y-15657238D01*
X6956571Y-15638190D01*
X7051809Y-15752476D02*
X7089905Y-15752476D01*
X7108952Y-15742952D01*
X7118476Y-15733428D01*
X7137524Y-15704857D01*
X7147048Y-15666762D01*
X7147048Y-15590571D01*
X7137524Y-15571524D01*
X7128000Y-15562000D01*
X7108952Y-15552476D01*
X7070857Y-15552476D01*
X7051809Y-15562000D01*
X7042286Y-15571524D01*
X7032762Y-15590571D01*
X7032762Y-15638190D01*
X7042286Y-15657238D01*
X7051809Y-15666762D01*
X7070857Y-15676286D01*
X7108952Y-15676286D01*
X7128000Y-15666762D01*
X7137524Y-15657238D01*
X7147048Y-15638190D01*
X7232762Y-15752476D02*
X7232762Y-15619143D01*
X7232762Y-15638190D02*
X7242286Y-15628667D01*
X7261333Y-15619143D01*
X7289905Y-15619143D01*
X7308952Y-15628667D01*
X7318476Y-15647714D01*
X7318476Y-15752476D01*
X7318476Y-15647714D02*
X7328000Y-15628667D01*
X7347048Y-15619143D01*
X7375619Y-15619143D01*
X7394667Y-15628667D01*
X7404190Y-15647714D01*
X7404190Y-15752476D01*
X7499428Y-15752476D02*
X7499428Y-15619143D01*
X7499428Y-15638190D02*
X7508952Y-15628667D01*
X7528000Y-15619143D01*
X7556571Y-15619143D01*
X7575619Y-15628667D01*
X7585143Y-15647714D01*
X7585143Y-15752476D01*
X7585143Y-15647714D02*
X7594667Y-15628667D01*
X7613714Y-15619143D01*
X7642286Y-15619143D01*
X7661333Y-15628667D01*
X7670857Y-15647714D01*
X7670857Y-15752476D01*
X8061333Y-15542952D02*
X7889905Y-15800095D01*
X8318476Y-15552476D02*
X8337524Y-15552476D01*
X8356571Y-15562000D01*
X8366095Y-15571524D01*
X8375619Y-15590571D01*
X8385143Y-15628667D01*
X8385143Y-15676286D01*
X8375619Y-15714381D01*
X8366095Y-15733428D01*
X8356571Y-15742952D01*
X8337524Y-15752476D01*
X8318476Y-15752476D01*
X8299428Y-15742952D01*
X8289905Y-15733428D01*
X8280381Y-15714381D01*
X8270857Y-15676286D01*
X8270857Y-15628667D01*
X8280381Y-15590571D01*
X8289905Y-15571524D01*
X8299428Y-15562000D01*
X8318476Y-15552476D01*
X8470857Y-15733428D02*
X8480381Y-15742952D01*
X8470857Y-15752476D01*
X8461333Y-15742952D01*
X8470857Y-15733428D01*
X8470857Y-15752476D01*
X8604190Y-15552476D02*
X8623238Y-15552476D01*
X8642286Y-15562000D01*
X8651810Y-15571524D01*
X8661333Y-15590571D01*
X8670857Y-15628667D01*
X8670857Y-15676286D01*
X8661333Y-15714381D01*
X8651810Y-15733428D01*
X8642286Y-15742952D01*
X8623238Y-15752476D01*
X8604190Y-15752476D01*
X8585143Y-15742952D01*
X8575619Y-15733428D01*
X8566095Y-15714381D01*
X8556571Y-15676286D01*
X8556571Y-15628667D01*
X8566095Y-15590571D01*
X8575619Y-15571524D01*
X8585143Y-15562000D01*
X8604190Y-15552476D01*
X8737524Y-15552476D02*
X8861333Y-15552476D01*
X8794667Y-15628667D01*
X8823238Y-15628667D01*
X8842286Y-15638190D01*
X8851810Y-15647714D01*
X8861333Y-15666762D01*
X8861333Y-15714381D01*
X8851810Y-15733428D01*
X8842286Y-15742952D01*
X8823238Y-15752476D01*
X8766095Y-15752476D01*
X8747048Y-15742952D01*
X8737524Y-15733428D01*
X9042286Y-15552476D02*
X8947048Y-15552476D01*
X8937524Y-15647714D01*
X8947048Y-15638190D01*
X8966095Y-15628667D01*
X9013714Y-15628667D01*
X9032762Y-15638190D01*
X9042286Y-15647714D01*
X9051810Y-15666762D01*
X9051810Y-15714381D01*
X9042286Y-15733428D01*
X9032762Y-15742952D01*
X9013714Y-15752476D01*
X8966095Y-15752476D01*
X8947048Y-15742952D01*
X8937524Y-15733428D01*
X9223238Y-15619143D02*
X9223238Y-15752476D01*
X9175619Y-15542952D02*
X9128000Y-15685809D01*
X9251810Y-15685809D01*
X9318476Y-15552476D02*
X9318476Y-15590571D01*
X9394667Y-15552476D02*
X9394667Y-15590571D01*
X9689905Y-15828667D02*
X9680381Y-15819143D01*
X9661333Y-15790571D01*
X9651810Y-15771524D01*
X9642286Y-15742952D01*
X9632762Y-15695333D01*
X9632762Y-15657238D01*
X9642286Y-15609619D01*
X9651810Y-15581048D01*
X9661333Y-15562000D01*
X9680381Y-15533428D01*
X9689905Y-15523905D01*
X9851810Y-15619143D02*
X9851810Y-15752476D01*
X9804190Y-15542952D02*
X9756571Y-15685809D01*
X9880381Y-15685809D01*
X10108952Y-15752476D02*
X10108952Y-15552476D01*
X10194667Y-15752476D02*
X10194667Y-15647714D01*
X10185143Y-15628667D01*
X10166095Y-15619143D01*
X10137524Y-15619143D01*
X10118476Y-15628667D01*
X10108952Y-15638190D01*
X10318476Y-15752476D02*
X10299429Y-15742952D01*
X10289905Y-15733428D01*
X10280381Y-15714381D01*
X10280381Y-15657238D01*
X10289905Y-15638190D01*
X10299429Y-15628667D01*
X10318476Y-15619143D01*
X10347048Y-15619143D01*
X10366095Y-15628667D01*
X10375619Y-15638190D01*
X10385143Y-15657238D01*
X10385143Y-15714381D01*
X10375619Y-15733428D01*
X10366095Y-15742952D01*
X10347048Y-15752476D01*
X10318476Y-15752476D01*
X10499429Y-15752476D02*
X10480381Y-15742952D01*
X10470857Y-15723905D01*
X10470857Y-15552476D01*
X10651810Y-15742952D02*
X10632762Y-15752476D01*
X10594667Y-15752476D01*
X10575619Y-15742952D01*
X10566095Y-15723905D01*
X10566095Y-15647714D01*
X10575619Y-15628667D01*
X10594667Y-15619143D01*
X10632762Y-15619143D01*
X10651810Y-15628667D01*
X10661333Y-15647714D01*
X10661333Y-15666762D01*
X10566095Y-15685809D01*
X10737524Y-15742952D02*
X10756571Y-15752476D01*
X10794667Y-15752476D01*
X10813714Y-15742952D01*
X10823238Y-15723905D01*
X10823238Y-15714381D01*
X10813714Y-15695333D01*
X10794667Y-15685809D01*
X10766095Y-15685809D01*
X10747048Y-15676286D01*
X10737524Y-15657238D01*
X10737524Y-15647714D01*
X10747048Y-15628667D01*
X10766095Y-15619143D01*
X10794667Y-15619143D01*
X10813714Y-15628667D01*
X10889905Y-15828667D02*
X10899429Y-15819143D01*
X10918476Y-15790571D01*
X10928000Y-15771524D01*
X10937524Y-15742952D01*
X10947048Y-15695333D01*
X10947048Y-15657238D01*
X10937524Y-15609619D01*
X10928000Y-15581048D01*
X10918476Y-15562000D01*
X10899429Y-15533428D01*
X10889905Y-15523905D01*
D10*
X6068000Y-15876000D02*
X6068000Y-15976000D01*
X6018000Y-15926000D02*
X6118000Y-15926000D01*
X6118000Y-15926000D02*
G75*
G03*
X6118000Y-15926000I-50000J0D01*
G01*
D11*
X6480381Y-16016476D02*
X6366095Y-16016476D01*
X6423238Y-16016476D02*
X6423238Y-15816476D01*
X6404190Y-15845048D01*
X6385143Y-15864095D01*
X6366095Y-15873619D01*
X6566095Y-15997428D02*
X6575619Y-16006952D01*
X6566095Y-16016476D01*
X6556571Y-16006952D01*
X6566095Y-15997428D01*
X6566095Y-16016476D01*
X6699428Y-15816476D02*
X6718476Y-15816476D01*
X6737524Y-15826000D01*
X6747048Y-15835524D01*
X6756571Y-15854571D01*
X6766095Y-15892667D01*
X6766095Y-15940286D01*
X6756571Y-15978381D01*
X6747048Y-15997428D01*
X6737524Y-16006952D01*
X6718476Y-16016476D01*
X6699428Y-16016476D01*
X6680381Y-16006952D01*
X6670857Y-15997428D01*
X6661333Y-15978381D01*
X6651809Y-15940286D01*
X6651809Y-15892667D01*
X6661333Y-15854571D01*
X6670857Y-15835524D01*
X6680381Y-15826000D01*
X6699428Y-15816476D01*
X6889905Y-15816476D02*
X6908952Y-15816476D01*
X6928000Y-15826000D01*
X6937524Y-15835524D01*
X6947048Y-15854571D01*
X6956571Y-15892667D01*
X6956571Y-15940286D01*
X6947048Y-15978381D01*
X6937524Y-15997428D01*
X6928000Y-16006952D01*
X6908952Y-16016476D01*
X6889905Y-16016476D01*
X6870857Y-16006952D01*
X6861333Y-15997428D01*
X6851809Y-15978381D01*
X6842286Y-15940286D01*
X6842286Y-15892667D01*
X6851809Y-15854571D01*
X6861333Y-15835524D01*
X6870857Y-15826000D01*
X6889905Y-15816476D01*
X7080381Y-15816476D02*
X7099428Y-15816476D01*
X7118476Y-15826000D01*
X7128000Y-15835524D01*
X7137524Y-15854571D01*
X7147048Y-15892667D01*
X7147048Y-15940286D01*
X7137524Y-15978381D01*
X7128000Y-15997428D01*
X7118476Y-16006952D01*
X7099428Y-16016476D01*
X7080381Y-16016476D01*
X7061333Y-16006952D01*
X7051809Y-15997428D01*
X7042286Y-15978381D01*
X7032762Y-15940286D01*
X7032762Y-15892667D01*
X7042286Y-15854571D01*
X7051809Y-15835524D01*
X7061333Y-15826000D01*
X7080381Y-15816476D01*
X7232762Y-16016476D02*
X7232762Y-15883143D01*
X7232762Y-15902190D02*
X7242286Y-15892667D01*
X7261333Y-15883143D01*
X7289905Y-15883143D01*
X7308952Y-15892667D01*
X7318476Y-15911714D01*
X7318476Y-16016476D01*
X7318476Y-15911714D02*
X7328000Y-15892667D01*
X7347048Y-15883143D01*
X7375619Y-15883143D01*
X7394667Y-15892667D01*
X7404190Y-15911714D01*
X7404190Y-16016476D01*
X7499428Y-16016476D02*
X7499428Y-15883143D01*
X7499428Y-15902190D02*
X7508952Y-15892667D01*
X7528000Y-15883143D01*
X7556571Y-15883143D01*
X7575619Y-15892667D01*
X7585143Y-15911714D01*
X7585143Y-16016476D01*
X7585143Y-15911714D02*
X7594667Y-15892667D01*
X7613714Y-15883143D01*
X7642286Y-15883143D01*
X7661333Y-15892667D01*
X7670857Y-15911714D01*
X7670857Y-16016476D01*
X8061333Y-15806952D02*
X7889905Y-16064095D01*
X8318476Y-15816476D02*
X8337524Y-15816476D01*
X8356571Y-15826000D01*
X8366095Y-15835524D01*
X8375619Y-15854571D01*
X8385143Y-15892667D01*
X8385143Y-15940286D01*
X8375619Y-15978381D01*
X8366095Y-15997428D01*
X8356571Y-16006952D01*
X8337524Y-16016476D01*
X8318476Y-16016476D01*
X8299428Y-16006952D01*
X8289905Y-15997428D01*
X8280381Y-15978381D01*
X8270857Y-15940286D01*
X8270857Y-15892667D01*
X8280381Y-15854571D01*
X8289905Y-15835524D01*
X8299428Y-15826000D01*
X8318476Y-15816476D01*
X8470857Y-15997428D02*
X8480381Y-16006952D01*
X8470857Y-16016476D01*
X8461333Y-16006952D01*
X8470857Y-15997428D01*
X8470857Y-16016476D01*
X8604190Y-15816476D02*
X8623238Y-15816476D01*
X8642286Y-15826000D01*
X8651810Y-15835524D01*
X8661333Y-15854571D01*
X8670857Y-15892667D01*
X8670857Y-15940286D01*
X8661333Y-15978381D01*
X8651810Y-15997428D01*
X8642286Y-16006952D01*
X8623238Y-16016476D01*
X8604190Y-16016476D01*
X8585143Y-16006952D01*
X8575619Y-15997428D01*
X8566095Y-15978381D01*
X8556571Y-15940286D01*
X8556571Y-15892667D01*
X8566095Y-15854571D01*
X8575619Y-15835524D01*
X8585143Y-15826000D01*
X8604190Y-15816476D01*
X8737524Y-15816476D02*
X8861333Y-15816476D01*
X8794667Y-15892667D01*
X8823238Y-15892667D01*
X8842286Y-15902190D01*
X8851810Y-15911714D01*
X8861333Y-15930762D01*
X8861333Y-15978381D01*
X8851810Y-15997428D01*
X8842286Y-16006952D01*
X8823238Y-16016476D01*
X8766095Y-16016476D01*
X8747048Y-16006952D01*
X8737524Y-15997428D01*
X8956571Y-16016476D02*
X8994667Y-16016476D01*
X9013714Y-16006952D01*
X9023238Y-15997428D01*
X9042286Y-15968857D01*
X9051810Y-15930762D01*
X9051810Y-15854571D01*
X9042286Y-15835524D01*
X9032762Y-15826000D01*
X9013714Y-15816476D01*
X8975619Y-15816476D01*
X8956571Y-15826000D01*
X8947048Y-15835524D01*
X8937524Y-15854571D01*
X8937524Y-15902190D01*
X8947048Y-15921238D01*
X8956571Y-15930762D01*
X8975619Y-15940286D01*
X9013714Y-15940286D01*
X9032762Y-15930762D01*
X9042286Y-15921238D01*
X9051810Y-15902190D01*
X9223238Y-15883143D02*
X9223238Y-16016476D01*
X9175619Y-15806952D02*
X9128000Y-15949809D01*
X9251810Y-15949809D01*
X9318476Y-15816476D02*
X9318476Y-15854571D01*
X9394667Y-15816476D02*
X9394667Y-15854571D01*
X9689905Y-16092667D02*
X9680381Y-16083143D01*
X9661333Y-16054571D01*
X9651810Y-16035524D01*
X9642286Y-16006952D01*
X9632762Y-15959333D01*
X9632762Y-15921238D01*
X9642286Y-15873619D01*
X9651810Y-15845048D01*
X9661333Y-15826000D01*
X9680381Y-15797428D01*
X9689905Y-15787905D01*
X9756571Y-15835524D02*
X9766095Y-15826000D01*
X9785143Y-15816476D01*
X9832762Y-15816476D01*
X9851810Y-15826000D01*
X9861333Y-15835524D01*
X9870857Y-15854571D01*
X9870857Y-15873619D01*
X9861333Y-15902190D01*
X9747048Y-16016476D01*
X9870857Y-16016476D01*
X10108952Y-16016476D02*
X10108952Y-15816476D01*
X10194667Y-16016476D02*
X10194667Y-15911714D01*
X10185143Y-15892667D01*
X10166095Y-15883143D01*
X10137524Y-15883143D01*
X10118476Y-15892667D01*
X10108952Y-15902190D01*
X10318476Y-16016476D02*
X10299429Y-16006952D01*
X10289905Y-15997428D01*
X10280381Y-15978381D01*
X10280381Y-15921238D01*
X10289905Y-15902190D01*
X10299429Y-15892667D01*
X10318476Y-15883143D01*
X10347048Y-15883143D01*
X10366095Y-15892667D01*
X10375619Y-15902190D01*
X10385143Y-15921238D01*
X10385143Y-15978381D01*
X10375619Y-15997428D01*
X10366095Y-16006952D01*
X10347048Y-16016476D01*
X10318476Y-16016476D01*
X10499429Y-16016476D02*
X10480381Y-16006952D01*
X10470857Y-15987905D01*
X10470857Y-15816476D01*
X10651810Y-16006952D02*
X10632762Y-16016476D01*
X10594667Y-16016476D01*
X10575619Y-16006952D01*
X10566095Y-15987905D01*
X10566095Y-15911714D01*
X10575619Y-15892667D01*
X10594667Y-15883143D01*
X10632762Y-15883143D01*
X10651810Y-15892667D01*
X10661333Y-15911714D01*
X10661333Y-15930762D01*
X10566095Y-15949809D01*
X10737524Y-16006952D02*
X10756571Y-16016476D01*
X10794667Y-16016476D01*
X10813714Y-16006952D01*
X10823238Y-15987905D01*
X10823238Y-15978381D01*
X10813714Y-15959333D01*
X10794667Y-15949809D01*
X10766095Y-15949809D01*
X10747048Y-15940286D01*
X10737524Y-15921238D01*
X10737524Y-15911714D01*
X10747048Y-15892667D01*
X10766095Y-15883143D01*
X10794667Y-15883143D01*
X10813714Y-15892667D01*
X10889905Y-16092667D02*
X10899429Y-16083143D01*
X10918476Y-16054571D01*
X10928000Y-16035524D01*
X10937524Y-16006952D01*
X10947048Y-15959333D01*
X10947048Y-15921238D01*
X10937524Y-15873619D01*
X10928000Y-15845048D01*
X10918476Y-15826000D01*
X10899429Y-15797428D01*
X10889905Y-15787905D01*
D21*
X6103121Y-16225921D02*
X6103121Y-16154079D01*
X6031279Y-16154079D01*
X6031279Y-16225921D01*
X6103121Y-16225921D01*
X6118000Y-16190000D02*
G75*
G03*
X6118000Y-16190000I-50800J0D01*
G01*
D11*
X6480381Y-16280476D02*
X6366095Y-16280476D01*
X6423238Y-16280476D02*
X6423238Y-16080476D01*
X6404190Y-16109048D01*
X6385143Y-16128095D01*
X6366095Y-16137619D01*
X6566095Y-16261428D02*
X6575619Y-16270952D01*
X6566095Y-16280476D01*
X6556571Y-16270952D01*
X6566095Y-16261428D01*
X6566095Y-16280476D01*
X6699428Y-16080476D02*
X6718476Y-16080476D01*
X6737524Y-16090000D01*
X6747048Y-16099524D01*
X6756571Y-16118571D01*
X6766095Y-16156667D01*
X6766095Y-16204286D01*
X6756571Y-16242381D01*
X6747048Y-16261428D01*
X6737524Y-16270952D01*
X6718476Y-16280476D01*
X6699428Y-16280476D01*
X6680381Y-16270952D01*
X6670857Y-16261428D01*
X6661333Y-16242381D01*
X6651809Y-16204286D01*
X6651809Y-16156667D01*
X6661333Y-16118571D01*
X6670857Y-16099524D01*
X6680381Y-16090000D01*
X6699428Y-16080476D01*
X6956571Y-16280476D02*
X6842286Y-16280476D01*
X6899428Y-16280476D02*
X6899428Y-16080476D01*
X6880381Y-16109048D01*
X6861333Y-16128095D01*
X6842286Y-16137619D01*
X7128000Y-16080476D02*
X7089905Y-16080476D01*
X7070857Y-16090000D01*
X7061333Y-16099524D01*
X7042286Y-16128095D01*
X7032762Y-16166190D01*
X7032762Y-16242381D01*
X7042286Y-16261428D01*
X7051809Y-16270952D01*
X7070857Y-16280476D01*
X7108952Y-16280476D01*
X7128000Y-16270952D01*
X7137524Y-16261428D01*
X7147048Y-16242381D01*
X7147048Y-16194762D01*
X7137524Y-16175714D01*
X7128000Y-16166190D01*
X7108952Y-16156667D01*
X7070857Y-16156667D01*
X7051809Y-16166190D01*
X7042286Y-16175714D01*
X7032762Y-16194762D01*
X7232762Y-16280476D02*
X7232762Y-16147143D01*
X7232762Y-16166190D02*
X7242286Y-16156667D01*
X7261333Y-16147143D01*
X7289905Y-16147143D01*
X7308952Y-16156667D01*
X7318476Y-16175714D01*
X7318476Y-16280476D01*
X7318476Y-16175714D02*
X7328000Y-16156667D01*
X7347048Y-16147143D01*
X7375619Y-16147143D01*
X7394667Y-16156667D01*
X7404190Y-16175714D01*
X7404190Y-16280476D01*
X7499428Y-16280476D02*
X7499428Y-16147143D01*
X7499428Y-16166190D02*
X7508952Y-16156667D01*
X7528000Y-16147143D01*
X7556571Y-16147143D01*
X7575619Y-16156667D01*
X7585143Y-16175714D01*
X7585143Y-16280476D01*
X7585143Y-16175714D02*
X7594667Y-16156667D01*
X7613714Y-16147143D01*
X7642286Y-16147143D01*
X7661333Y-16156667D01*
X7670857Y-16175714D01*
X7670857Y-16280476D01*
X8061333Y-16070952D02*
X7889905Y-16328095D01*
X8318476Y-16080476D02*
X8337524Y-16080476D01*
X8356571Y-16090000D01*
X8366095Y-16099524D01*
X8375619Y-16118571D01*
X8385143Y-16156667D01*
X8385143Y-16204286D01*
X8375619Y-16242381D01*
X8366095Y-16261428D01*
X8356571Y-16270952D01*
X8337524Y-16280476D01*
X8318476Y-16280476D01*
X8299428Y-16270952D01*
X8289905Y-16261428D01*
X8280381Y-16242381D01*
X8270857Y-16204286D01*
X8270857Y-16156667D01*
X8280381Y-16118571D01*
X8289905Y-16099524D01*
X8299428Y-16090000D01*
X8318476Y-16080476D01*
X8470857Y-16261428D02*
X8480381Y-16270952D01*
X8470857Y-16280476D01*
X8461333Y-16270952D01*
X8470857Y-16261428D01*
X8470857Y-16280476D01*
X8604190Y-16080476D02*
X8623238Y-16080476D01*
X8642286Y-16090000D01*
X8651810Y-16099524D01*
X8661333Y-16118571D01*
X8670857Y-16156667D01*
X8670857Y-16204286D01*
X8661333Y-16242381D01*
X8651810Y-16261428D01*
X8642286Y-16270952D01*
X8623238Y-16280476D01*
X8604190Y-16280476D01*
X8585143Y-16270952D01*
X8575619Y-16261428D01*
X8566095Y-16242381D01*
X8556571Y-16204286D01*
X8556571Y-16156667D01*
X8566095Y-16118571D01*
X8575619Y-16099524D01*
X8585143Y-16090000D01*
X8604190Y-16080476D01*
X8842286Y-16147143D02*
X8842286Y-16280476D01*
X8794667Y-16070952D02*
X8747048Y-16213809D01*
X8870857Y-16213809D01*
X8985143Y-16080476D02*
X9004190Y-16080476D01*
X9023238Y-16090000D01*
X9032762Y-16099524D01*
X9042286Y-16118571D01*
X9051810Y-16156667D01*
X9051810Y-16204286D01*
X9042286Y-16242381D01*
X9032762Y-16261428D01*
X9023238Y-16270952D01*
X9004190Y-16280476D01*
X8985143Y-16280476D01*
X8966095Y-16270952D01*
X8956571Y-16261428D01*
X8947048Y-16242381D01*
X8937524Y-16204286D01*
X8937524Y-16156667D01*
X8947048Y-16118571D01*
X8956571Y-16099524D01*
X8966095Y-16090000D01*
X8985143Y-16080476D01*
X9175619Y-16080476D02*
X9194667Y-16080476D01*
X9213714Y-16090000D01*
X9223238Y-16099524D01*
X9232762Y-16118571D01*
X9242286Y-16156667D01*
X9242286Y-16204286D01*
X9232762Y-16242381D01*
X9223238Y-16261428D01*
X9213714Y-16270952D01*
X9194667Y-16280476D01*
X9175619Y-16280476D01*
X9156571Y-16270952D01*
X9147048Y-16261428D01*
X9137524Y-16242381D01*
X9128000Y-16204286D01*
X9128000Y-16156667D01*
X9137524Y-16118571D01*
X9147048Y-16099524D01*
X9156571Y-16090000D01*
X9175619Y-16080476D01*
X9318476Y-16080476D02*
X9318476Y-16118571D01*
X9394667Y-16080476D02*
X9394667Y-16118571D01*
X9689905Y-16356667D02*
X9680381Y-16347143D01*
X9661333Y-16318571D01*
X9651810Y-16299524D01*
X9642286Y-16270952D01*
X9632762Y-16223333D01*
X9632762Y-16185238D01*
X9642286Y-16137619D01*
X9651810Y-16109048D01*
X9661333Y-16090000D01*
X9680381Y-16061428D01*
X9689905Y-16051905D01*
X9870857Y-16280476D02*
X9756571Y-16280476D01*
X9813714Y-16280476D02*
X9813714Y-16080476D01*
X9794667Y-16109048D01*
X9775619Y-16128095D01*
X9756571Y-16137619D01*
X10061333Y-16280476D02*
X9947048Y-16280476D01*
X10004190Y-16280476D02*
X10004190Y-16080476D01*
X9985143Y-16109048D01*
X9966095Y-16128095D01*
X9947048Y-16137619D01*
X10299429Y-16280476D02*
X10299429Y-16080476D01*
X10385143Y-16280476D02*
X10385143Y-16175714D01*
X10375619Y-16156667D01*
X10356571Y-16147143D01*
X10328000Y-16147143D01*
X10308952Y-16156667D01*
X10299429Y-16166190D01*
X10508952Y-16280476D02*
X10489905Y-16270952D01*
X10480381Y-16261428D01*
X10470857Y-16242381D01*
X10470857Y-16185238D01*
X10480381Y-16166190D01*
X10489905Y-16156667D01*
X10508952Y-16147143D01*
X10537524Y-16147143D01*
X10556571Y-16156667D01*
X10566095Y-16166190D01*
X10575619Y-16185238D01*
X10575619Y-16242381D01*
X10566095Y-16261428D01*
X10556571Y-16270952D01*
X10537524Y-16280476D01*
X10508952Y-16280476D01*
X10689905Y-16280476D02*
X10670857Y-16270952D01*
X10661333Y-16251905D01*
X10661333Y-16080476D01*
X10842286Y-16270952D02*
X10823238Y-16280476D01*
X10785143Y-16280476D01*
X10766095Y-16270952D01*
X10756571Y-16251905D01*
X10756571Y-16175714D01*
X10766095Y-16156667D01*
X10785143Y-16147143D01*
X10823238Y-16147143D01*
X10842286Y-16156667D01*
X10851810Y-16175714D01*
X10851810Y-16194762D01*
X10756571Y-16213809D01*
X10928000Y-16270952D02*
X10947048Y-16280476D01*
X10985143Y-16280476D01*
X11004190Y-16270952D01*
X11013714Y-16251905D01*
X11013714Y-16242381D01*
X11004190Y-16223333D01*
X10985143Y-16213809D01*
X10956571Y-16213809D01*
X10937524Y-16204286D01*
X10928000Y-16185238D01*
X10928000Y-16175714D01*
X10937524Y-16156667D01*
X10956571Y-16147143D01*
X10985143Y-16147143D01*
X11004190Y-16156667D01*
X11080381Y-16356667D02*
X11089905Y-16347143D01*
X11108952Y-16318571D01*
X11118476Y-16299524D01*
X11128000Y-16270952D01*
X11137524Y-16223333D01*
X11137524Y-16185238D01*
X11128000Y-16137619D01*
X11118476Y-16109048D01*
X11108952Y-16090000D01*
X11089905Y-16061428D01*
X11080381Y-16051905D01*
D22*
X6063000Y-16509000D02*
X6118000Y-16454000D01*
X6063000Y-16399000D01*
X6008000Y-16454000D01*
X6063000Y-16509000D01*
X6118000Y-16454000D02*
G75*
G03*
X6118000Y-16454000I-55000J0D01*
G01*
D11*
X6480381Y-16544476D02*
X6366095Y-16544476D01*
X6423238Y-16544476D02*
X6423238Y-16344476D01*
X6404190Y-16373048D01*
X6385143Y-16392095D01*
X6366095Y-16401619D01*
X6566095Y-16525428D02*
X6575619Y-16534952D01*
X6566095Y-16544476D01*
X6556571Y-16534952D01*
X6566095Y-16525428D01*
X6566095Y-16544476D01*
X6766095Y-16544476D02*
X6651809Y-16544476D01*
X6708952Y-16544476D02*
X6708952Y-16344476D01*
X6689905Y-16373048D01*
X6670857Y-16392095D01*
X6651809Y-16401619D01*
X6889905Y-16344476D02*
X6908952Y-16344476D01*
X6928000Y-16354000D01*
X6937524Y-16363524D01*
X6947048Y-16382571D01*
X6956571Y-16420667D01*
X6956571Y-16468286D01*
X6947048Y-16506381D01*
X6937524Y-16525428D01*
X6928000Y-16534952D01*
X6908952Y-16544476D01*
X6889905Y-16544476D01*
X6870857Y-16534952D01*
X6861333Y-16525428D01*
X6851809Y-16506381D01*
X6842286Y-16468286D01*
X6842286Y-16420667D01*
X6851809Y-16382571D01*
X6861333Y-16363524D01*
X6870857Y-16354000D01*
X6889905Y-16344476D01*
X7080381Y-16344476D02*
X7099428Y-16344476D01*
X7118476Y-16354000D01*
X7128000Y-16363524D01*
X7137524Y-16382571D01*
X7147048Y-16420667D01*
X7147048Y-16468286D01*
X7137524Y-16506381D01*
X7128000Y-16525428D01*
X7118476Y-16534952D01*
X7099428Y-16544476D01*
X7080381Y-16544476D01*
X7061333Y-16534952D01*
X7051809Y-16525428D01*
X7042286Y-16506381D01*
X7032762Y-16468286D01*
X7032762Y-16420667D01*
X7042286Y-16382571D01*
X7051809Y-16363524D01*
X7061333Y-16354000D01*
X7080381Y-16344476D01*
X7232762Y-16544476D02*
X7232762Y-16411143D01*
X7232762Y-16430190D02*
X7242286Y-16420667D01*
X7261333Y-16411143D01*
X7289905Y-16411143D01*
X7308952Y-16420667D01*
X7318476Y-16439714D01*
X7318476Y-16544476D01*
X7318476Y-16439714D02*
X7328000Y-16420667D01*
X7347048Y-16411143D01*
X7375619Y-16411143D01*
X7394667Y-16420667D01*
X7404190Y-16439714D01*
X7404190Y-16544476D01*
X7499428Y-16544476D02*
X7499428Y-16411143D01*
X7499428Y-16430190D02*
X7508952Y-16420667D01*
X7528000Y-16411143D01*
X7556571Y-16411143D01*
X7575619Y-16420667D01*
X7585143Y-16439714D01*
X7585143Y-16544476D01*
X7585143Y-16439714D02*
X7594667Y-16420667D01*
X7613714Y-16411143D01*
X7642286Y-16411143D01*
X7661333Y-16420667D01*
X7670857Y-16439714D01*
X7670857Y-16544476D01*
X8061333Y-16334952D02*
X7889905Y-16592095D01*
X8318476Y-16344476D02*
X8337524Y-16344476D01*
X8356571Y-16354000D01*
X8366095Y-16363524D01*
X8375619Y-16382571D01*
X8385143Y-16420667D01*
X8385143Y-16468286D01*
X8375619Y-16506381D01*
X8366095Y-16525428D01*
X8356571Y-16534952D01*
X8337524Y-16544476D01*
X8318476Y-16544476D01*
X8299428Y-16534952D01*
X8289905Y-16525428D01*
X8280381Y-16506381D01*
X8270857Y-16468286D01*
X8270857Y-16420667D01*
X8280381Y-16382571D01*
X8289905Y-16363524D01*
X8299428Y-16354000D01*
X8318476Y-16344476D01*
X8470857Y-16525428D02*
X8480381Y-16534952D01*
X8470857Y-16544476D01*
X8461333Y-16534952D01*
X8470857Y-16525428D01*
X8470857Y-16544476D01*
X8604190Y-16344476D02*
X8623238Y-16344476D01*
X8642286Y-16354000D01*
X8651810Y-16363524D01*
X8661333Y-16382571D01*
X8670857Y-16420667D01*
X8670857Y-16468286D01*
X8661333Y-16506381D01*
X8651810Y-16525428D01*
X8642286Y-16534952D01*
X8623238Y-16544476D01*
X8604190Y-16544476D01*
X8585143Y-16534952D01*
X8575619Y-16525428D01*
X8566095Y-16506381D01*
X8556571Y-16468286D01*
X8556571Y-16420667D01*
X8566095Y-16382571D01*
X8575619Y-16363524D01*
X8585143Y-16354000D01*
X8604190Y-16344476D01*
X8842286Y-16411143D02*
X8842286Y-16544476D01*
X8794667Y-16334952D02*
X8747048Y-16477809D01*
X8870857Y-16477809D01*
X8928000Y-16344476D02*
X9051810Y-16344476D01*
X8985143Y-16420667D01*
X9013714Y-16420667D01*
X9032762Y-16430190D01*
X9042286Y-16439714D01*
X9051810Y-16458762D01*
X9051810Y-16506381D01*
X9042286Y-16525428D01*
X9032762Y-16534952D01*
X9013714Y-16544476D01*
X8956571Y-16544476D01*
X8937524Y-16534952D01*
X8928000Y-16525428D01*
X9118476Y-16344476D02*
X9242286Y-16344476D01*
X9175619Y-16420667D01*
X9204190Y-16420667D01*
X9223238Y-16430190D01*
X9232762Y-16439714D01*
X9242286Y-16458762D01*
X9242286Y-16506381D01*
X9232762Y-16525428D01*
X9223238Y-16534952D01*
X9204190Y-16544476D01*
X9147048Y-16544476D01*
X9128000Y-16534952D01*
X9118476Y-16525428D01*
X9318476Y-16344476D02*
X9318476Y-16382571D01*
X9394667Y-16344476D02*
X9394667Y-16382571D01*
X9689905Y-16620667D02*
X9680381Y-16611143D01*
X9661333Y-16582571D01*
X9651810Y-16563524D01*
X9642286Y-16534952D01*
X9632762Y-16487333D01*
X9632762Y-16449238D01*
X9642286Y-16401619D01*
X9651810Y-16373048D01*
X9661333Y-16354000D01*
X9680381Y-16325428D01*
X9689905Y-16315905D01*
X9851810Y-16411143D02*
X9851810Y-16544476D01*
X9804190Y-16334952D02*
X9756571Y-16477809D01*
X9880381Y-16477809D01*
X10108952Y-16544476D02*
X10108952Y-16344476D01*
X10194667Y-16544476D02*
X10194667Y-16439714D01*
X10185143Y-16420667D01*
X10166095Y-16411143D01*
X10137524Y-16411143D01*
X10118476Y-16420667D01*
X10108952Y-16430190D01*
X10318476Y-16544476D02*
X10299429Y-16534952D01*
X10289905Y-16525428D01*
X10280381Y-16506381D01*
X10280381Y-16449238D01*
X10289905Y-16430190D01*
X10299429Y-16420667D01*
X10318476Y-16411143D01*
X10347048Y-16411143D01*
X10366095Y-16420667D01*
X10375619Y-16430190D01*
X10385143Y-16449238D01*
X10385143Y-16506381D01*
X10375619Y-16525428D01*
X10366095Y-16534952D01*
X10347048Y-16544476D01*
X10318476Y-16544476D01*
X10499429Y-16544476D02*
X10480381Y-16534952D01*
X10470857Y-16515905D01*
X10470857Y-16344476D01*
X10651810Y-16534952D02*
X10632762Y-16544476D01*
X10594667Y-16544476D01*
X10575619Y-16534952D01*
X10566095Y-16515905D01*
X10566095Y-16439714D01*
X10575619Y-16420667D01*
X10594667Y-16411143D01*
X10632762Y-16411143D01*
X10651810Y-16420667D01*
X10661333Y-16439714D01*
X10661333Y-16458762D01*
X10566095Y-16477809D01*
X10737524Y-16534952D02*
X10756571Y-16544476D01*
X10794667Y-16544476D01*
X10813714Y-16534952D01*
X10823238Y-16515905D01*
X10823238Y-16506381D01*
X10813714Y-16487333D01*
X10794667Y-16477809D01*
X10766095Y-16477809D01*
X10747048Y-16468286D01*
X10737524Y-16449238D01*
X10737524Y-16439714D01*
X10747048Y-16420667D01*
X10766095Y-16411143D01*
X10794667Y-16411143D01*
X10813714Y-16420667D01*
X10889905Y-16620667D02*
X10899429Y-16611143D01*
X10918476Y-16582571D01*
X10928000Y-16563524D01*
X10937524Y-16534952D01*
X10947048Y-16487333D01*
X10947048Y-16449238D01*
X10937524Y-16401619D01*
X10928000Y-16373048D01*
X10918476Y-16354000D01*
X10899429Y-16325428D01*
X10889905Y-16315905D01*
D23*
X6058310Y-16658310D02*
X6058310Y-16777690D01*
X5998620Y-16718000D02*
X6118000Y-16718000D01*
X6100518Y-16760208D02*
X6100518Y-16675792D01*
X6016102Y-16675792D01*
X6016102Y-16760208D01*
X6100518Y-16760208D01*
D11*
X6480381Y-16808476D02*
X6366095Y-16808476D01*
X6423238Y-16808476D02*
X6423238Y-16608476D01*
X6404190Y-16637048D01*
X6385143Y-16656095D01*
X6366095Y-16665619D01*
X6566095Y-16789429D02*
X6575619Y-16798952D01*
X6566095Y-16808476D01*
X6556571Y-16798952D01*
X6566095Y-16789429D01*
X6566095Y-16808476D01*
X6766095Y-16808476D02*
X6651809Y-16808476D01*
X6708952Y-16808476D02*
X6708952Y-16608476D01*
X6689905Y-16637048D01*
X6670857Y-16656095D01*
X6651809Y-16665619D01*
X6861333Y-16808476D02*
X6899428Y-16808476D01*
X6918476Y-16798952D01*
X6928000Y-16789429D01*
X6947048Y-16760857D01*
X6956571Y-16722762D01*
X6956571Y-16646571D01*
X6947048Y-16627524D01*
X6937524Y-16618000D01*
X6918476Y-16608476D01*
X6880381Y-16608476D01*
X6861333Y-16618000D01*
X6851809Y-16627524D01*
X6842286Y-16646571D01*
X6842286Y-16694190D01*
X6851809Y-16713238D01*
X6861333Y-16722762D01*
X6880381Y-16732286D01*
X6918476Y-16732286D01*
X6937524Y-16722762D01*
X6947048Y-16713238D01*
X6956571Y-16694190D01*
X7128000Y-16675143D02*
X7128000Y-16808476D01*
X7080381Y-16598952D02*
X7032762Y-16741809D01*
X7156571Y-16741809D01*
X7232762Y-16808476D02*
X7232762Y-16675143D01*
X7232762Y-16694190D02*
X7242286Y-16684667D01*
X7261333Y-16675143D01*
X7289905Y-16675143D01*
X7308952Y-16684667D01*
X7318476Y-16703714D01*
X7318476Y-16808476D01*
X7318476Y-16703714D02*
X7328000Y-16684667D01*
X7347048Y-16675143D01*
X7375619Y-16675143D01*
X7394667Y-16684667D01*
X7404190Y-16703714D01*
X7404190Y-16808476D01*
X7499428Y-16808476D02*
X7499428Y-16675143D01*
X7499428Y-16694190D02*
X7508952Y-16684667D01*
X7528000Y-16675143D01*
X7556571Y-16675143D01*
X7575619Y-16684667D01*
X7585143Y-16703714D01*
X7585143Y-16808476D01*
X7585143Y-16703714D02*
X7594667Y-16684667D01*
X7613714Y-16675143D01*
X7642286Y-16675143D01*
X7661333Y-16684667D01*
X7670857Y-16703714D01*
X7670857Y-16808476D01*
X8061333Y-16598952D02*
X7889905Y-16856095D01*
X8318476Y-16608476D02*
X8337524Y-16608476D01*
X8356571Y-16618000D01*
X8366095Y-16627524D01*
X8375619Y-16646571D01*
X8385143Y-16684667D01*
X8385143Y-16732286D01*
X8375619Y-16770381D01*
X8366095Y-16789429D01*
X8356571Y-16798952D01*
X8337524Y-16808476D01*
X8318476Y-16808476D01*
X8299428Y-16798952D01*
X8289905Y-16789429D01*
X8280381Y-16770381D01*
X8270857Y-16732286D01*
X8270857Y-16684667D01*
X8280381Y-16646571D01*
X8289905Y-16627524D01*
X8299428Y-16618000D01*
X8318476Y-16608476D01*
X8470857Y-16789429D02*
X8480381Y-16798952D01*
X8470857Y-16808476D01*
X8461333Y-16798952D01*
X8470857Y-16789429D01*
X8470857Y-16808476D01*
X8604190Y-16608476D02*
X8623238Y-16608476D01*
X8642286Y-16618000D01*
X8651810Y-16627524D01*
X8661333Y-16646571D01*
X8670857Y-16684667D01*
X8670857Y-16732286D01*
X8661333Y-16770381D01*
X8651810Y-16789429D01*
X8642286Y-16798952D01*
X8623238Y-16808476D01*
X8604190Y-16808476D01*
X8585143Y-16798952D01*
X8575619Y-16789429D01*
X8566095Y-16770381D01*
X8556571Y-16732286D01*
X8556571Y-16684667D01*
X8566095Y-16646571D01*
X8575619Y-16627524D01*
X8585143Y-16618000D01*
X8604190Y-16608476D01*
X8842286Y-16675143D02*
X8842286Y-16808476D01*
X8794667Y-16598952D02*
X8747048Y-16741809D01*
X8870857Y-16741809D01*
X8928000Y-16608476D02*
X9061333Y-16608476D01*
X8975619Y-16808476D01*
X9175619Y-16608476D02*
X9194667Y-16608476D01*
X9213714Y-16618000D01*
X9223238Y-16627524D01*
X9232762Y-16646571D01*
X9242286Y-16684667D01*
X9242286Y-16732286D01*
X9232762Y-16770381D01*
X9223238Y-16789429D01*
X9213714Y-16798952D01*
X9194667Y-16808476D01*
X9175619Y-16808476D01*
X9156571Y-16798952D01*
X9147048Y-16789429D01*
X9137524Y-16770381D01*
X9128000Y-16732286D01*
X9128000Y-16684667D01*
X9137524Y-16646571D01*
X9147048Y-16627524D01*
X9156571Y-16618000D01*
X9175619Y-16608476D01*
X9318476Y-16608476D02*
X9318476Y-16646571D01*
X9394667Y-16608476D02*
X9394667Y-16646571D01*
X9689905Y-16884667D02*
X9680381Y-16875143D01*
X9661333Y-16846571D01*
X9651810Y-16827524D01*
X9642286Y-16798952D01*
X9632762Y-16751333D01*
X9632762Y-16713238D01*
X9642286Y-16665619D01*
X9651810Y-16637048D01*
X9661333Y-16618000D01*
X9680381Y-16589428D01*
X9689905Y-16579905D01*
X9870857Y-16808476D02*
X9756571Y-16808476D01*
X9813714Y-16808476D02*
X9813714Y-16608476D01*
X9794667Y-16637048D01*
X9775619Y-16656095D01*
X9756571Y-16665619D01*
X10042286Y-16608476D02*
X10004190Y-16608476D01*
X9985143Y-16618000D01*
X9975619Y-16627524D01*
X9956571Y-16656095D01*
X9947048Y-16694190D01*
X9947048Y-16770381D01*
X9956571Y-16789429D01*
X9966095Y-16798952D01*
X9985143Y-16808476D01*
X10023238Y-16808476D01*
X10042286Y-16798952D01*
X10051810Y-16789429D01*
X10061333Y-16770381D01*
X10061333Y-16722762D01*
X10051810Y-16703714D01*
X10042286Y-16694190D01*
X10023238Y-16684667D01*
X9985143Y-16684667D01*
X9966095Y-16694190D01*
X9956571Y-16703714D01*
X9947048Y-16722762D01*
X10299429Y-16808476D02*
X10299429Y-16608476D01*
X10385143Y-16808476D02*
X10385143Y-16703714D01*
X10375619Y-16684667D01*
X10356571Y-16675143D01*
X10328000Y-16675143D01*
X10308952Y-16684667D01*
X10299429Y-16694190D01*
X10508952Y-16808476D02*
X10489905Y-16798952D01*
X10480381Y-16789429D01*
X10470857Y-16770381D01*
X10470857Y-16713238D01*
X10480381Y-16694190D01*
X10489905Y-16684667D01*
X10508952Y-16675143D01*
X10537524Y-16675143D01*
X10556571Y-16684667D01*
X10566095Y-16694190D01*
X10575619Y-16713238D01*
X10575619Y-16770381D01*
X10566095Y-16789429D01*
X10556571Y-16798952D01*
X10537524Y-16808476D01*
X10508952Y-16808476D01*
X10689905Y-16808476D02*
X10670857Y-16798952D01*
X10661333Y-16779905D01*
X10661333Y-16608476D01*
X10842286Y-16798952D02*
X10823238Y-16808476D01*
X10785143Y-16808476D01*
X10766095Y-16798952D01*
X10756571Y-16779905D01*
X10756571Y-16703714D01*
X10766095Y-16684667D01*
X10785143Y-16675143D01*
X10823238Y-16675143D01*
X10842286Y-16684667D01*
X10851810Y-16703714D01*
X10851810Y-16722762D01*
X10756571Y-16741809D01*
X10928000Y-16798952D02*
X10947048Y-16808476D01*
X10985143Y-16808476D01*
X11004190Y-16798952D01*
X11013714Y-16779905D01*
X11013714Y-16770381D01*
X11004190Y-16751333D01*
X10985143Y-16741809D01*
X10956571Y-16741809D01*
X10937524Y-16732286D01*
X10928000Y-16713238D01*
X10928000Y-16703714D01*
X10937524Y-16684667D01*
X10956571Y-16675143D01*
X10985143Y-16675143D01*
X11004190Y-16684667D01*
X11080381Y-16884667D02*
X11089905Y-16875143D01*
X11108952Y-16846571D01*
X11118476Y-16827524D01*
X11128000Y-16798952D01*
X11137524Y-16751333D01*
X11137524Y-16713238D01*
X11128000Y-16665619D01*
X11118476Y-16637048D01*
X11108952Y-16618000D01*
X11089905Y-16589428D01*
X11080381Y-16579905D01*
D24*
X6048150Y-16912150D02*
X6048150Y-17051850D01*
X5978300Y-16982000D02*
X6118000Y-16982000D01*
X6048150Y-17051850D02*
X6118000Y-16982000D01*
X6048150Y-16912150D01*
X5978300Y-16982000D01*
X6048150Y-17051850D01*
D11*
X6480381Y-17072476D02*
X6366095Y-17072476D01*
X6423238Y-17072476D02*
X6423238Y-16872476D01*
X6404190Y-16901048D01*
X6385143Y-16920095D01*
X6366095Y-16929619D01*
X6566095Y-17053429D02*
X6575619Y-17062952D01*
X6566095Y-17072476D01*
X6556571Y-17062952D01*
X6566095Y-17053429D01*
X6566095Y-17072476D01*
X6642286Y-16872476D02*
X6766095Y-16872476D01*
X6699428Y-16948667D01*
X6728000Y-16948667D01*
X6747048Y-16958190D01*
X6756571Y-16967714D01*
X6766095Y-16986762D01*
X6766095Y-17034381D01*
X6756571Y-17053429D01*
X6747048Y-17062952D01*
X6728000Y-17072476D01*
X6670857Y-17072476D01*
X6651809Y-17062952D01*
X6642286Y-17053429D01*
X6861333Y-17072476D02*
X6899428Y-17072476D01*
X6918476Y-17062952D01*
X6928000Y-17053429D01*
X6947048Y-17024857D01*
X6956571Y-16986762D01*
X6956571Y-16910571D01*
X6947048Y-16891524D01*
X6937524Y-16882000D01*
X6918476Y-16872476D01*
X6880381Y-16872476D01*
X6861333Y-16882000D01*
X6851809Y-16891524D01*
X6842286Y-16910571D01*
X6842286Y-16958190D01*
X6851809Y-16977238D01*
X6861333Y-16986762D01*
X6880381Y-16996286D01*
X6918476Y-16996286D01*
X6937524Y-16986762D01*
X6947048Y-16977238D01*
X6956571Y-16958190D01*
X7023238Y-16872476D02*
X7156571Y-16872476D01*
X7070857Y-17072476D01*
X7232762Y-17072476D02*
X7232762Y-16939143D01*
X7232762Y-16958190D02*
X7242286Y-16948667D01*
X7261333Y-16939143D01*
X7289905Y-16939143D01*
X7308952Y-16948667D01*
X7318476Y-16967714D01*
X7318476Y-17072476D01*
X7318476Y-16967714D02*
X7328000Y-16948667D01*
X7347048Y-16939143D01*
X7375619Y-16939143D01*
X7394667Y-16948667D01*
X7404190Y-16967714D01*
X7404190Y-17072476D01*
X7499428Y-17072476D02*
X7499428Y-16939143D01*
X7499428Y-16958190D02*
X7508952Y-16948667D01*
X7528000Y-16939143D01*
X7556571Y-16939143D01*
X7575619Y-16948667D01*
X7585143Y-16967714D01*
X7585143Y-17072476D01*
X7585143Y-16967714D02*
X7594667Y-16948667D01*
X7613714Y-16939143D01*
X7642286Y-16939143D01*
X7661333Y-16948667D01*
X7670857Y-16967714D01*
X7670857Y-17072476D01*
X8061333Y-16862952D02*
X7889905Y-17120095D01*
X8318476Y-16872476D02*
X8337524Y-16872476D01*
X8356571Y-16882000D01*
X8366095Y-16891524D01*
X8375619Y-16910571D01*
X8385143Y-16948667D01*
X8385143Y-16996286D01*
X8375619Y-17034381D01*
X8366095Y-17053429D01*
X8356571Y-17062952D01*
X8337524Y-17072476D01*
X8318476Y-17072476D01*
X8299428Y-17062952D01*
X8289905Y-17053429D01*
X8280381Y-17034381D01*
X8270857Y-16996286D01*
X8270857Y-16948667D01*
X8280381Y-16910571D01*
X8289905Y-16891524D01*
X8299428Y-16882000D01*
X8318476Y-16872476D01*
X8470857Y-17053429D02*
X8480381Y-17062952D01*
X8470857Y-17072476D01*
X8461333Y-17062952D01*
X8470857Y-17053429D01*
X8470857Y-17072476D01*
X8604190Y-16872476D02*
X8623238Y-16872476D01*
X8642286Y-16882000D01*
X8651810Y-16891524D01*
X8661333Y-16910571D01*
X8670857Y-16948667D01*
X8670857Y-16996286D01*
X8661333Y-17034381D01*
X8651810Y-17053429D01*
X8642286Y-17062952D01*
X8623238Y-17072476D01*
X8604190Y-17072476D01*
X8585143Y-17062952D01*
X8575619Y-17053429D01*
X8566095Y-17034381D01*
X8556571Y-16996286D01*
X8556571Y-16948667D01*
X8566095Y-16910571D01*
X8575619Y-16891524D01*
X8585143Y-16882000D01*
X8604190Y-16872476D01*
X8851810Y-16872476D02*
X8756571Y-16872476D01*
X8747048Y-16967714D01*
X8756571Y-16958190D01*
X8775619Y-16948667D01*
X8823238Y-16948667D01*
X8842286Y-16958190D01*
X8851810Y-16967714D01*
X8861333Y-16986762D01*
X8861333Y-17034381D01*
X8851810Y-17053429D01*
X8842286Y-17062952D01*
X8823238Y-17072476D01*
X8775619Y-17072476D01*
X8756571Y-17062952D01*
X8747048Y-17053429D01*
X9042286Y-16872476D02*
X8947048Y-16872476D01*
X8937524Y-16967714D01*
X8947048Y-16958190D01*
X8966095Y-16948667D01*
X9013714Y-16948667D01*
X9032762Y-16958190D01*
X9042286Y-16967714D01*
X9051810Y-16986762D01*
X9051810Y-17034381D01*
X9042286Y-17053429D01*
X9032762Y-17062952D01*
X9013714Y-17072476D01*
X8966095Y-17072476D01*
X8947048Y-17062952D01*
X8937524Y-17053429D01*
X9175619Y-16872476D02*
X9194667Y-16872476D01*
X9213714Y-16882000D01*
X9223238Y-16891524D01*
X9232762Y-16910571D01*
X9242286Y-16948667D01*
X9242286Y-16996286D01*
X9232762Y-17034381D01*
X9223238Y-17053429D01*
X9213714Y-17062952D01*
X9194667Y-17072476D01*
X9175619Y-17072476D01*
X9156571Y-17062952D01*
X9147048Y-17053429D01*
X9137524Y-17034381D01*
X9128000Y-16996286D01*
X9128000Y-16948667D01*
X9137524Y-16910571D01*
X9147048Y-16891524D01*
X9156571Y-16882000D01*
X9175619Y-16872476D01*
X9318476Y-16872476D02*
X9318476Y-16910571D01*
X9394667Y-16872476D02*
X9394667Y-16910571D01*
X9689905Y-17148667D02*
X9680381Y-17139143D01*
X9661333Y-17110571D01*
X9651810Y-17091524D01*
X9642286Y-17062952D01*
X9632762Y-17015333D01*
X9632762Y-16977238D01*
X9642286Y-16929619D01*
X9651810Y-16901048D01*
X9661333Y-16882000D01*
X9680381Y-16853429D01*
X9689905Y-16843905D01*
X9851810Y-16939143D02*
X9851810Y-17072476D01*
X9804190Y-16862952D02*
X9756571Y-17005810D01*
X9880381Y-17005810D01*
X10108952Y-17072476D02*
X10108952Y-16872476D01*
X10194667Y-17072476D02*
X10194667Y-16967714D01*
X10185143Y-16948667D01*
X10166095Y-16939143D01*
X10137524Y-16939143D01*
X10118476Y-16948667D01*
X10108952Y-16958190D01*
X10318476Y-17072476D02*
X10299429Y-17062952D01*
X10289905Y-17053429D01*
X10280381Y-17034381D01*
X10280381Y-16977238D01*
X10289905Y-16958190D01*
X10299429Y-16948667D01*
X10318476Y-16939143D01*
X10347048Y-16939143D01*
X10366095Y-16948667D01*
X10375619Y-16958190D01*
X10385143Y-16977238D01*
X10385143Y-17034381D01*
X10375619Y-17053429D01*
X10366095Y-17062952D01*
X10347048Y-17072476D01*
X10318476Y-17072476D01*
X10499429Y-17072476D02*
X10480381Y-17062952D01*
X10470857Y-17043905D01*
X10470857Y-16872476D01*
X10651810Y-17062952D02*
X10632762Y-17072476D01*
X10594667Y-17072476D01*
X10575619Y-17062952D01*
X10566095Y-17043905D01*
X10566095Y-16967714D01*
X10575619Y-16948667D01*
X10594667Y-16939143D01*
X10632762Y-16939143D01*
X10651810Y-16948667D01*
X10661333Y-16967714D01*
X10661333Y-16986762D01*
X10566095Y-17005810D01*
X10737524Y-17062952D02*
X10756571Y-17072476D01*
X10794667Y-17072476D01*
X10813714Y-17062952D01*
X10823238Y-17043905D01*
X10823238Y-17034381D01*
X10813714Y-17015333D01*
X10794667Y-17005810D01*
X10766095Y-17005810D01*
X10747048Y-16996286D01*
X10737524Y-16977238D01*
X10737524Y-16967714D01*
X10747048Y-16948667D01*
X10766095Y-16939143D01*
X10794667Y-16939143D01*
X10813714Y-16948667D01*
X10889905Y-17148667D02*
X10899429Y-17139143D01*
X10918476Y-17110571D01*
X10928000Y-17091524D01*
X10937524Y-17062952D01*
X10947048Y-17015333D01*
X10947048Y-16977238D01*
X10937524Y-16929619D01*
X10928000Y-16901048D01*
X10918476Y-16882000D01*
X10899429Y-16853429D01*
X10889905Y-16843905D01*
X6018000Y-17346000D02*
X6118000Y-17246000D01*
X6018000Y-17146000D01*
X5918000Y-17246000D01*
X6018000Y-17346000D01*
X6088711Y-17316711D02*
X6088711Y-17175289D01*
X5947289Y-17175289D01*
X5947289Y-17316711D01*
X6088711Y-17316711D01*
X6366095Y-17155524D02*
X6375619Y-17146000D01*
X6394667Y-17136476D01*
X6442286Y-17136476D01*
X6461333Y-17146000D01*
X6470857Y-17155524D01*
X6480381Y-17174571D01*
X6480381Y-17193619D01*
X6470857Y-17222190D01*
X6356571Y-17336476D01*
X6480381Y-17336476D01*
X6566095Y-17317429D02*
X6575619Y-17326952D01*
X6566095Y-17336476D01*
X6556571Y-17326952D01*
X6566095Y-17317429D01*
X6566095Y-17336476D01*
X6651809Y-17155524D02*
X6661333Y-17146000D01*
X6680381Y-17136476D01*
X6728000Y-17136476D01*
X6747048Y-17146000D01*
X6756571Y-17155524D01*
X6766095Y-17174571D01*
X6766095Y-17193619D01*
X6756571Y-17222190D01*
X6642286Y-17336476D01*
X6766095Y-17336476D01*
X6880381Y-17222190D02*
X6861333Y-17212667D01*
X6851809Y-17203143D01*
X6842286Y-17184095D01*
X6842286Y-17174571D01*
X6851809Y-17155524D01*
X6861333Y-17146000D01*
X6880381Y-17136476D01*
X6918476Y-17136476D01*
X6937524Y-17146000D01*
X6947048Y-17155524D01*
X6956571Y-17174571D01*
X6956571Y-17184095D01*
X6947048Y-17203143D01*
X6937524Y-17212667D01*
X6918476Y-17222190D01*
X6880381Y-17222190D01*
X6861333Y-17231714D01*
X6851809Y-17241238D01*
X6842286Y-17260286D01*
X6842286Y-17298381D01*
X6851809Y-17317429D01*
X6861333Y-17326952D01*
X6880381Y-17336476D01*
X6918476Y-17336476D01*
X6937524Y-17326952D01*
X6947048Y-17317429D01*
X6956571Y-17298381D01*
X6956571Y-17260286D01*
X6947048Y-17241238D01*
X6937524Y-17231714D01*
X6918476Y-17222190D01*
X7128000Y-17136476D02*
X7089905Y-17136476D01*
X7070857Y-17146000D01*
X7061333Y-17155524D01*
X7042286Y-17184095D01*
X7032762Y-17222190D01*
X7032762Y-17298381D01*
X7042286Y-17317429D01*
X7051809Y-17326952D01*
X7070857Y-17336476D01*
X7108952Y-17336476D01*
X7128000Y-17326952D01*
X7137524Y-17317429D01*
X7147048Y-17298381D01*
X7147048Y-17250762D01*
X7137524Y-17231714D01*
X7128000Y-17222190D01*
X7108952Y-17212667D01*
X7070857Y-17212667D01*
X7051809Y-17222190D01*
X7042286Y-17231714D01*
X7032762Y-17250762D01*
X7232762Y-17336476D02*
X7232762Y-17203143D01*
X7232762Y-17222190D02*
X7242286Y-17212667D01*
X7261333Y-17203143D01*
X7289905Y-17203143D01*
X7308952Y-17212667D01*
X7318476Y-17231714D01*
X7318476Y-17336476D01*
X7318476Y-17231714D02*
X7328000Y-17212667D01*
X7347048Y-17203143D01*
X7375619Y-17203143D01*
X7394667Y-17212667D01*
X7404190Y-17231714D01*
X7404190Y-17336476D01*
X7499428Y-17336476D02*
X7499428Y-17203143D01*
X7499428Y-17222190D02*
X7508952Y-17212667D01*
X7528000Y-17203143D01*
X7556571Y-17203143D01*
X7575619Y-17212667D01*
X7585143Y-17231714D01*
X7585143Y-17336476D01*
X7585143Y-17231714D02*
X7594667Y-17212667D01*
X7613714Y-17203143D01*
X7642286Y-17203143D01*
X7661333Y-17212667D01*
X7670857Y-17231714D01*
X7670857Y-17336476D01*
X8061333Y-17126952D02*
X7889905Y-17384095D01*
X8318476Y-17136476D02*
X8337524Y-17136476D01*
X8356571Y-17146000D01*
X8366095Y-17155524D01*
X8375619Y-17174571D01*
X8385143Y-17212667D01*
X8385143Y-17260286D01*
X8375619Y-17298381D01*
X8366095Y-17317429D01*
X8356571Y-17326952D01*
X8337524Y-17336476D01*
X8318476Y-17336476D01*
X8299428Y-17326952D01*
X8289905Y-17317429D01*
X8280381Y-17298381D01*
X8270857Y-17260286D01*
X8270857Y-17212667D01*
X8280381Y-17174571D01*
X8289905Y-17155524D01*
X8299428Y-17146000D01*
X8318476Y-17136476D01*
X8470857Y-17317429D02*
X8480381Y-17326952D01*
X8470857Y-17336476D01*
X8461333Y-17326952D01*
X8470857Y-17317429D01*
X8470857Y-17336476D01*
X8604190Y-17136476D02*
X8623238Y-17136476D01*
X8642286Y-17146000D01*
X8651810Y-17155524D01*
X8661333Y-17174571D01*
X8670857Y-17212667D01*
X8670857Y-17260286D01*
X8661333Y-17298381D01*
X8651810Y-17317429D01*
X8642286Y-17326952D01*
X8623238Y-17336476D01*
X8604190Y-17336476D01*
X8585143Y-17326952D01*
X8575619Y-17317429D01*
X8566095Y-17298381D01*
X8556571Y-17260286D01*
X8556571Y-17212667D01*
X8566095Y-17174571D01*
X8575619Y-17155524D01*
X8585143Y-17146000D01*
X8604190Y-17136476D01*
X8766095Y-17336476D02*
X8804190Y-17336476D01*
X8823238Y-17326952D01*
X8832762Y-17317429D01*
X8851810Y-17288857D01*
X8861333Y-17250762D01*
X8861333Y-17174571D01*
X8851810Y-17155524D01*
X8842286Y-17146000D01*
X8823238Y-17136476D01*
X8785143Y-17136476D01*
X8766095Y-17146000D01*
X8756571Y-17155524D01*
X8747048Y-17174571D01*
X8747048Y-17222190D01*
X8756571Y-17241238D01*
X8766095Y-17250762D01*
X8785143Y-17260286D01*
X8823238Y-17260286D01*
X8842286Y-17250762D01*
X8851810Y-17241238D01*
X8861333Y-17222190D01*
X8985143Y-17136476D02*
X9004190Y-17136476D01*
X9023238Y-17146000D01*
X9032762Y-17155524D01*
X9042286Y-17174571D01*
X9051810Y-17212667D01*
X9051810Y-17260286D01*
X9042286Y-17298381D01*
X9032762Y-17317429D01*
X9023238Y-17326952D01*
X9004190Y-17336476D01*
X8985143Y-17336476D01*
X8966095Y-17326952D01*
X8956571Y-17317429D01*
X8947048Y-17298381D01*
X8937524Y-17260286D01*
X8937524Y-17212667D01*
X8947048Y-17174571D01*
X8956571Y-17155524D01*
X8966095Y-17146000D01*
X8985143Y-17136476D01*
X9175619Y-17136476D02*
X9194667Y-17136476D01*
X9213714Y-17146000D01*
X9223238Y-17155524D01*
X9232762Y-17174571D01*
X9242286Y-17212667D01*
X9242286Y-17260286D01*
X9232762Y-17298381D01*
X9223238Y-17317429D01*
X9213714Y-17326952D01*
X9194667Y-17336476D01*
X9175619Y-17336476D01*
X9156571Y-17326952D01*
X9147048Y-17317429D01*
X9137524Y-17298381D01*
X9128000Y-17260286D01*
X9128000Y-17212667D01*
X9137524Y-17174571D01*
X9147048Y-17155524D01*
X9156571Y-17146000D01*
X9175619Y-17136476D01*
X9318476Y-17136476D02*
X9318476Y-17174571D01*
X9394667Y-17136476D02*
X9394667Y-17174571D01*
X9689905Y-17412667D02*
X9680381Y-17403143D01*
X9661333Y-17374571D01*
X9651810Y-17355524D01*
X9642286Y-17326952D01*
X9632762Y-17279333D01*
X9632762Y-17241238D01*
X9642286Y-17193619D01*
X9651810Y-17165048D01*
X9661333Y-17146000D01*
X9680381Y-17117429D01*
X9689905Y-17107905D01*
X9851810Y-17203143D02*
X9851810Y-17336476D01*
X9804190Y-17126952D02*
X9756571Y-17269810D01*
X9880381Y-17269810D01*
X10108952Y-17336476D02*
X10108952Y-17136476D01*
X10194667Y-17336476D02*
X10194667Y-17231714D01*
X10185143Y-17212667D01*
X10166095Y-17203143D01*
X10137524Y-17203143D01*
X10118476Y-17212667D01*
X10108952Y-17222190D01*
X10318476Y-17336476D02*
X10299429Y-17326952D01*
X10289905Y-17317429D01*
X10280381Y-17298381D01*
X10280381Y-17241238D01*
X10289905Y-17222190D01*
X10299429Y-17212667D01*
X10318476Y-17203143D01*
X10347048Y-17203143D01*
X10366095Y-17212667D01*
X10375619Y-17222190D01*
X10385143Y-17241238D01*
X10385143Y-17298381D01*
X10375619Y-17317429D01*
X10366095Y-17326952D01*
X10347048Y-17336476D01*
X10318476Y-17336476D01*
X10499429Y-17336476D02*
X10480381Y-17326952D01*
X10470857Y-17307905D01*
X10470857Y-17136476D01*
X10651810Y-17326952D02*
X10632762Y-17336476D01*
X10594667Y-17336476D01*
X10575619Y-17326952D01*
X10566095Y-17307905D01*
X10566095Y-17231714D01*
X10575619Y-17212667D01*
X10594667Y-17203143D01*
X10632762Y-17203143D01*
X10651810Y-17212667D01*
X10661333Y-17231714D01*
X10661333Y-17250762D01*
X10566095Y-17269810D01*
X10737524Y-17326952D02*
X10756571Y-17336476D01*
X10794667Y-17336476D01*
X10813714Y-17326952D01*
X10823238Y-17307905D01*
X10823238Y-17298381D01*
X10813714Y-17279333D01*
X10794667Y-17269810D01*
X10766095Y-17269810D01*
X10747048Y-17260286D01*
X10737524Y-17241238D01*
X10737524Y-17231714D01*
X10747048Y-17212667D01*
X10766095Y-17203143D01*
X10794667Y-17203143D01*
X10813714Y-17212667D01*
X10889905Y-17412667D02*
X10899429Y-17403143D01*
X10918476Y-17374571D01*
X10928000Y-17355524D01*
X10937524Y-17326952D01*
X10947048Y-17279333D01*
X10947048Y-17241238D01*
X10937524Y-17193619D01*
X10928000Y-17165048D01*
X10918476Y-17146000D01*
X10899429Y-17117429D01*
X10889905Y-17107905D01*
M02*
