M48
; DRILL file {KiCad (6.0.9)} date Wed Dec 14 16:33:35 2022
; FORMAT={-:-/ absolute / inch / decimal}
; #@! TF.CreationDate,2022-12-14T16:33:35-05:00
; #@! TF.GenerationSoftware,Kicad,Pcbnew,(6.0.9)
; #@! TF.FileFunction,Plated,1,2,PTH
FMAT,2
INCH
; #@! TA.AperFunction,Plated,PTH,ViaDrill
T1C0.0200
; #@! TA.AperFunction,Plated,PTH,ViaDrill
T2C0.0230
; #@! TA.AperFunction,Plated,PTH,ViaDrill
T3C0.0250
; #@! TA.AperFunction,Plated,PTH,ComponentDrill
T4C0.0299
; #@! TA.AperFunction,Plated,PTH,ComponentDrill
T5C0.0315
; #@! TA.AperFunction,Plated,PTH,ComponentDrill
T6C0.0315
; #@! TA.AperFunction,Plated,PTH,ViaDrill
T7C0.0320
; #@! TA.AperFunction,Plated,PTH,ComponentDrill
T8C0.0350
; #@! TA.AperFunction,Plated,PTH,ComponentDrill
T9C0.0354
; #@! TA.AperFunction,Plated,PTH,ComponentDrill
T10C0.0394
; #@! TA.AperFunction,Plated,PTH,ComponentDrill
T11C0.0400
; #@! TA.AperFunction,Plated,PTH,ComponentDrill
T12C0.0433
; #@! TA.AperFunction,Plated,PTH,ComponentDrill
T13C0.0470
; #@! TA.AperFunction,Plated,PTH,ComponentDrill
T14C0.0550
; #@! TA.AperFunction,Plated,PTH,ComponentDrill
T15C0.0900
%
G90
G05
T1
X3.575Y-4.6275
X4.04Y-4.18
X4.04Y-4.6275
X4.25Y-3.9297
X4.298Y-3.93
X4.37Y-4.77
X4.37Y-4.925
X4.65Y-2.95
X4.87Y-3.77
X4.92Y-3.77
X4.975Y-4.4
X4.975Y-4.3349
X4.9981Y-3.478
X5.025Y-4.4001
X5.025Y-4.335
X5.026Y-3.2696
X5.075Y-4.3996
X5.075Y-4.3345
X5.1045Y-3.64
X5.1896Y-3.478
X5.205Y-3.64
X5.22Y-3.2706
X5.264Y-3.478
X5.29Y-4.449
X5.29Y-4.409
X5.3147Y-3.52
X5.317Y-3.553
X5.405Y-3.2706
X5.4484Y-3.478
X5.455Y-3.67
X5.592Y-3.2706
X5.765Y-4.535
X5.89Y-3.6776
X5.95Y-4.411
X6.07Y-4.755
X6.17Y-3.58
X6.19Y-4.84
X6.25Y-3.79
X6.375Y-4.73
X6.44Y-3.5037
X6.46Y-4.168
X6.51Y-4.12
X6.545Y-4.755
X6.56Y-4.075
T2
X3.94Y-4.575
X4.275Y-4.575
X4.416Y-4.695
X4.465Y-4.695
X4.515Y-4.6946
X4.63Y-4.575
X5.29Y-3.8789
X5.29Y-3.9465
X5.29Y-4.0082
X5.29Y-4.51
X5.35Y-3.8789
X5.35Y-3.9462
X5.35Y-4.0076
X5.41Y-3.88
X5.41Y-3.9479
X5.41Y-4.01
X5.555Y-4.325
X6.46Y-4.365
X6.978Y-2.9049
X6.98Y-3.0151
X7.68Y-3.092
T3
X5.78Y-3.03
T4
X4.025Y-3.15
X4.075Y-3.25
X4.125Y-3.15
X4.175Y-3.25
X4.225Y-3.15
X4.275Y-3.25
T5
X6.815Y-4.575
X6.815Y-4.675
T6
X5.2181Y-4.93
X5.3181Y-4.93
X5.4181Y-4.93
X5.5181Y-4.93
X5.6181Y-4.93
X5.7181Y-4.93
X5.8181Y-4.93
X5.9181Y-4.93
T7
X5.975Y-3.2
X6.251Y-3.131
T8
X3.4936Y-4.296
X3.5936Y-4.296
X3.6936Y-4.296
X3.9886Y-3.801
X3.9886Y-3.901
X3.9886Y-4.001
T9
X3.1113Y-3.773
X3.1113Y-4.029
X3.2885Y-3.773
X3.2885Y-4.029
T10
X3.15Y-3.0004
X3.15Y-3.2996
T11
X4.8202Y-2.93
X4.9202Y-2.93
X5.0202Y-2.93
X5.1202Y-2.93
X5.3098Y-2.93
X5.4098Y-2.93
X5.5098Y-2.93
X5.6098Y-2.93
X6.63Y-2.93
X6.73Y-2.93
X6.83Y-2.93
T12
X2.5969Y-3.5878
X2.7222Y-3.7131
X2.7778Y-3.4068
X2.9031Y-3.5321
T13
X6.8468Y-3.7953
X6.9853Y-3.6568
X7.1947Y-4.1432
X7.2868Y-3.5647
X7.2868Y-4.4447
X7.3332Y-4.0047
X7.4253Y-3.7032
X7.4253Y-4.5832
X7.6347Y-3.2168
X7.6347Y-4.0968
X7.7268Y-3.7953
X7.7732Y-3.3553
X7.7732Y-4.2353
X7.8653Y-3.6568
X8.0747Y-4.1432
X8.2132Y-4.0047
T14
X3.3261Y-3.606
X3.3261Y-4.196
X3.8611Y-3.606
X3.8611Y-4.196
T15
X4.7577Y-3.3397
X4.7577Y-4.9597
X6.3777Y-3.3397
X6.3777Y-4.9597
T0
M30
