%TF.GenerationSoftware,KiCad,Pcbnew,(6.0.7)*%
%TF.CreationDate,2022-08-17T15:13:11-05:00*%
%TF.ProjectId,Game_Cat_R3,47616d65-5f43-4617-945f-52332e6b6963,3.5*%
%TF.SameCoordinates,Original*%
%TF.FileFunction,Soldermask,Top*%
%TF.FilePolarity,Negative*%
%FSLAX46Y46*%
G04 Gerber Fmt 4.6, Leading zero omitted, Abs format (unit mm)*
G04 Created by KiCad (PCBNEW (6.0.7)) date 2022-08-17 15:13:11*
%MOMM*%
%LPD*%
G01*
G04 APERTURE LIST*
G04 Aperture macros list*
%AMRoundRect*
0 Rectangle with rounded corners*
0 $1 Rounding radius*
0 $2 $3 $4 $5 $6 $7 $8 $9 X,Y pos of 4 corners*
0 Add a 4 corners polygon primitive as box body*
4,1,4,$2,$3,$4,$5,$6,$7,$8,$9,$2,$3,0*
0 Add four circle primitives for the rounded corners*
1,1,$1+$1,$2,$3*
1,1,$1+$1,$4,$5*
1,1,$1+$1,$6,$7*
1,1,$1+$1,$8,$9*
0 Add four rect primitives between the rounded corners*
20,1,$1+$1,$2,$3,$4,$5,0*
20,1,$1+$1,$4,$5,$6,$7,0*
20,1,$1+$1,$6,$7,$8,$9,0*
20,1,$1+$1,$8,$9,$2,$3,0*%
%AMHorizOval*
0 Thick line with rounded ends*
0 $1 width*
0 $2 $3 position (X,Y) of the first rounded end (center of the circle)*
0 $4 $5 position (X,Y) of the second rounded end (center of the circle)*
0 Add line between two ends*
20,1,$1,$2,$3,$4,$5,0*
0 Add two circle primitives to create the rounded ends*
1,1,$1,$2,$3*
1,1,$1,$4,$5*%
G04 Aperture macros list end*
%TA.AperFunction,Profile*%
%ADD10C,0.100000*%
%TD*%
%TA.AperFunction,Profile*%
%ADD11C,0.200000*%
%TD*%
%ADD12O,1.600200X2.286000*%
%ADD13C,3.403600*%
%ADD14RoundRect,0.200800X-0.150000X0.825000X-0.150000X-0.825000X0.150000X-0.825000X0.150000X0.825000X0*%
%ADD15RoundRect,0.300800X0.625000X-0.312500X0.625000X0.312500X-0.625000X0.312500X-0.625000X-0.312500X0*%
%ADD16RoundRect,0.300800X-0.625000X0.312500X-0.625000X-0.312500X0.625000X-0.312500X0.625000X0.312500X0*%
%ADD17RoundRect,0.300800X0.312500X0.625000X-0.312500X0.625000X-0.312500X-0.625000X0.312500X-0.625000X0*%
%ADD18RoundRect,0.300800X-1.075000X0.312500X-1.075000X-0.312500X1.075000X-0.312500X1.075000X0.312500X0*%
%ADD19C,2.101600*%
%ADD20C,1.701600*%
%ADD21RoundRect,0.200800X0.150000X-0.587500X0.150000X0.587500X-0.150000X0.587500X-0.150000X-0.587500X0*%
%ADD22RoundRect,0.050800X0.875000X0.225000X-0.875000X0.225000X-0.875000X-0.225000X0.875000X-0.225000X0*%
%ADD23RoundRect,0.300800X-0.312500X-0.625000X0.312500X-0.625000X0.312500X0.625000X-0.312500X0.625000X0*%
%ADD24RoundRect,0.050800X0.750000X-1.000000X0.750000X1.000000X-0.750000X1.000000X-0.750000X-1.000000X0*%
%ADD25RoundRect,0.050800X1.900000X-1.000000X1.900000X1.000000X-1.900000X1.000000X-1.900000X-1.000000X0*%
%ADD26RoundRect,0.050800X-0.325000X0.610000X-0.325000X-0.610000X0.325000X-0.610000X0.325000X0.610000X0*%
%ADD27RoundRect,0.300800X-0.250000X-0.475000X0.250000X-0.475000X0.250000X0.475000X-0.250000X0.475000X0*%
%ADD28RoundRect,0.300800X0.625000X-0.375000X0.625000X0.375000X-0.625000X0.375000X-0.625000X-0.375000X0*%
%ADD29C,1.101600*%
%ADD30RoundRect,0.050800X0.250000X1.000000X-0.250000X1.000000X-0.250000X-1.000000X0.250000X-1.000000X0*%
%ADD31RoundRect,0.050800X1.000000X0.850000X-1.000000X0.850000X-1.000000X-0.850000X1.000000X-0.850000X0*%
%ADD32O,1.625600X3.149600*%
%ADD33C,3.351600*%
%ADD34RoundRect,0.050800X0.760000X0.760000X-0.760000X0.760000X-0.760000X-0.760000X0.760000X-0.760000X0*%
%ADD35C,1.621600*%
%ADD36C,3.911600*%
%ADD37C,1.498600*%
%ADD38C,2.197100*%
%ADD39RoundRect,0.300800X0.671751X1.449569X-1.449569X-0.671751X-0.671751X-1.449569X1.449569X0.671751X0*%
%ADD40RoundRect,0.300800X0.159099X-0.512652X0.512652X-0.159099X-0.159099X0.512652X-0.512652X0.159099X0*%
%ADD41RoundRect,0.300800X0.250000X0.475000X-0.250000X0.475000X-0.250000X-0.475000X0.250000X-0.475000X0*%
%ADD42HorizOval,1.892300X-0.633108X0.633108X0.633108X-0.633108X0*%
%ADD43RoundRect,0.200800X-0.150000X0.587500X-0.150000X-0.587500X0.150000X-0.587500X0.150000X0.587500X0*%
%ADD44RoundRect,0.050800X0.750000X0.275000X-0.750000X0.275000X-0.750000X-0.275000X0.750000X-0.275000X0*%
%ADD45RoundRect,0.050800X-0.275000X0.750000X-0.275000X-0.750000X0.275000X-0.750000X0.275000X0.750000X0*%
%ADD46RoundRect,0.300800X0.475000X-0.250000X0.475000X0.250000X-0.475000X0.250000X-0.475000X-0.250000X0*%
%ADD47RoundRect,0.050800X-1.000000X1.000000X-1.000000X-1.000000X1.000000X-1.000000X1.000000X1.000000X0*%
%ADD48HorizOval,1.892300X0.633108X0.633108X-0.633108X-0.633108X0*%
%ADD49RoundRect,0.050800X1.000000X-2.250000X1.000000X2.250000X-1.000000X2.250000X-1.000000X-2.250000X0*%
%ADD50RoundRect,0.050800X0.900000X-1.250000X0.900000X1.250000X-0.900000X1.250000X-0.900000X-1.250000X0*%
%ADD51RoundRect,0.300800X0.220971X-0.662913X0.662913X-0.220971X-0.220971X0.662913X-0.662913X0.220971X0*%
%ADD52RoundRect,0.300800X-0.475000X0.250000X-0.475000X-0.250000X0.475000X-0.250000X0.475000X0.250000X0*%
%ADD53RoundRect,0.200800X0.150000X-0.825000X0.150000X0.825000X-0.150000X0.825000X-0.150000X-0.825000X0*%
%ADD54HorizOval,1.892300X-0.633108X-0.633108X0.633108X0.633108X0*%
%ADD55RoundRect,0.300800X-0.625000X0.375000X-0.625000X-0.375000X0.625000X-0.375000X0.625000X0.375000X0*%
%ADD56RoundRect,0.300800X-0.220971X0.662913X-0.662913X0.220971X0.220971X-0.662913X0.662913X-0.220971X0*%
%ADD57RoundRect,0.050800X-0.625000X-0.625000X0.625000X-0.625000X0.625000X0.625000X-0.625000X0.625000X0*%
%ADD58RoundRect,0.050800X-0.406500X-0.152500X0.406500X-0.152500X0.406500X0.152500X-0.406500X0.152500X0*%
%ADD59RoundRect,0.050800X-0.152500X-0.406500X0.152500X-0.406500X0.152500X0.406500X-0.152500X0.406500X0*%
%ADD60RoundRect,0.300800X-0.450000X-0.425000X0.450000X-0.425000X0.450000X0.425000X-0.450000X0.425000X0*%
%ADD61RoundRect,0.050800X-1.202082X0.353553X0.353553X-1.202082X1.202082X-0.353553X-0.353553X1.202082X0*%
%ADD62RoundRect,0.050800X-4.313351X0.212132X0.212132X-4.313351X4.313351X-0.212132X-0.212132X4.313351X0*%
%ADD63RoundRect,0.050800X-0.400050X-0.839470X0.400050X-0.839470X0.400050X0.839470X-0.400050X0.839470X0*%
%ADD64RoundRect,0.050800X-0.645160X-0.650240X0.645160X-0.650240X0.645160X0.650240X-0.645160X0.650240X0*%
%ADD65RoundRect,0.050800X-0.849630X-0.750570X0.849630X-0.750570X0.849630X0.750570X-0.849630X0.750570X0*%
%ADD66RoundRect,0.050800X-0.750570X-0.849630X0.750570X-0.849630X0.750570X0.849630X-0.750570X0.849630X0*%
G04 APERTURE END LIST*
D10*
X92730000Y-126550000D02*
G75*
G03*
X92730000Y-126550000I-1500000J0D01*
G01*
X192730000Y-71550000D02*
G75*
G03*
X192730000Y-71550000I-1500000J0D01*
G01*
X192730000Y-126550000D02*
G75*
G03*
X192730000Y-126550000I-1500000J0D01*
G01*
D11*
X93032851Y-99092749D02*
G75*
G03*
X93032851Y-99092749I-1796051J0D01*
G01*
X193058051Y-99060000D02*
G75*
G03*
X193058051Y-99060000I-1796051J0D01*
G01*
D10*
X61230000Y-99050000D02*
G75*
G03*
X91230000Y-129050000I30000000J0D01*
G01*
X91230000Y-69050000D02*
G75*
G03*
X61230000Y-99050000I0J-30000000D01*
G01*
X191230000Y-129050000D02*
X91230000Y-129050000D01*
X221230000Y-99050000D02*
G75*
G03*
X191230000Y-69050000I-30000000J0D01*
G01*
X91230000Y-69050000D02*
X191230000Y-69050000D01*
X92730000Y-71550000D02*
G75*
G03*
X92730000Y-71550000I-1500000J0D01*
G01*
X191230000Y-129050000D02*
G75*
G03*
X221230000Y-99050000I0J30000000D01*
G01*
X92730000Y-126550000D02*
G75*
G03*
X92730000Y-126550000I-1500000J0D01*
G01*
X192730000Y-71550000D02*
G75*
G03*
X192730000Y-71550000I-1500000J0D01*
G01*
X192730000Y-126550000D02*
G75*
G03*
X192730000Y-126550000I-1500000J0D01*
G01*
D11*
X93032851Y-99092749D02*
G75*
G03*
X93032851Y-99092749I-1796051J0D01*
G01*
X193058051Y-99060000D02*
G75*
G03*
X193058051Y-99060000I-1796051J0D01*
G01*
D10*
X61230000Y-99050000D02*
G75*
G03*
X91230000Y-129050000I30000000J0D01*
G01*
X91230000Y-69050000D02*
G75*
G03*
X61230000Y-99050000I0J-30000000D01*
G01*
X191230000Y-129050000D02*
X91230000Y-129050000D01*
X221230000Y-99050000D02*
G75*
G03*
X191230000Y-69050000I-30000000J0D01*
G01*
X91230000Y-69050000D02*
X191230000Y-69050000D01*
X92730000Y-71550000D02*
G75*
G03*
X92730000Y-71550000I-1500000J0D01*
G01*
X191230000Y-129050000D02*
G75*
G03*
X221230000Y-99050000I0J30000000D01*
G01*
D12*
%TO.C,LCD1*%
X132540000Y-125222000D03*
X135080000Y-125222000D03*
X137620000Y-125222000D03*
X140160000Y-125222000D03*
X142700000Y-125222000D03*
X145240000Y-125222000D03*
X147780000Y-125222000D03*
D13*
X161994000Y-125976000D03*
X120846000Y-125976000D03*
D12*
X150320000Y-125222000D03*
D13*
X161994000Y-84828000D03*
X120846000Y-84828000D03*
%TD*%
D14*
%TO.C,U2*%
X169164000Y-108015000D03*
X167894000Y-108015000D03*
X166624000Y-108015000D03*
X165354000Y-108015000D03*
X164084000Y-108015000D03*
X162814000Y-108015000D03*
X161544000Y-108015000D03*
X160274000Y-108015000D03*
X160274000Y-112965000D03*
X161544000Y-112965000D03*
X162814000Y-112965000D03*
X164084000Y-112965000D03*
X165354000Y-112965000D03*
X166624000Y-112965000D03*
X167894000Y-112965000D03*
X169164000Y-112965000D03*
%TD*%
D15*
%TO.C,R29*%
X115316000Y-74375200D03*
X115316000Y-71450200D03*
%TD*%
D16*
%TO.C,R1*%
X94488000Y-116139500D03*
X94488000Y-119064500D03*
%TD*%
D17*
%TO.C,R15*%
X91952000Y-84836000D03*
X89027000Y-84836000D03*
%TD*%
D18*
%TO.C,F1*%
X153416000Y-83246500D03*
X153416000Y-86171500D03*
%TD*%
D19*
%TO.C,SW5*%
X73739088Y-89715734D03*
X69142894Y-94311928D03*
X65960913Y-91129948D03*
X70557107Y-86533753D03*
%TD*%
D20*
%TO.C,R7*%
X173101000Y-118745000D03*
X173101000Y-116205000D03*
%TD*%
D17*
%TO.C,R18*%
X131853400Y-79872840D03*
X128928400Y-79872840D03*
%TD*%
D21*
%TO.C,Q4*%
X124526000Y-84033870D03*
X126426000Y-84033870D03*
X125476000Y-82158870D03*
%TD*%
D16*
%TO.C,R36*%
X166370000Y-80325500D03*
X166370000Y-83250500D03*
%TD*%
D21*
%TO.C,Q6*%
X134152600Y-84033870D03*
X136052600Y-84033870D03*
X135102600Y-82158870D03*
%TD*%
D15*
%TO.C,R16*%
X148209000Y-116651500D03*
X148209000Y-113726500D03*
%TD*%
D22*
%TO.C,U8*%
X161334000Y-97443000D03*
X161334000Y-96793000D03*
X161334000Y-96143000D03*
X161334000Y-95493000D03*
X161334000Y-94843000D03*
X161334000Y-94193000D03*
X161334000Y-93543000D03*
X161334000Y-92893000D03*
X161334000Y-92243000D03*
X161334000Y-91593000D03*
X161334000Y-90943000D03*
X161334000Y-90293000D03*
X161334000Y-89643000D03*
X161334000Y-88993000D03*
X154134000Y-88993000D03*
X154134000Y-89643000D03*
X154134000Y-90293000D03*
X154134000Y-90943000D03*
X154134000Y-91593000D03*
X154134000Y-92243000D03*
X154134000Y-92893000D03*
X154134000Y-93543000D03*
X154134000Y-94193000D03*
X154134000Y-94843000D03*
X154134000Y-95493000D03*
X154134000Y-96143000D03*
X154134000Y-96793000D03*
X154134000Y-97443000D03*
%TD*%
D23*
%TO.C,R34*%
X113853500Y-82550000D03*
X116778500Y-82550000D03*
%TD*%
D24*
%TO.C,Q7*%
X145653760Y-87454740D03*
X147953760Y-87454740D03*
X150253760Y-87454740D03*
D25*
X147953760Y-81154740D03*
%TD*%
D26*
%TO.C,U3*%
X179448500Y-122682000D03*
X177548500Y-122682000D03*
X178498500Y-125302000D03*
%TD*%
D23*
%TO.C,R9*%
X119695500Y-113157000D03*
X122620500Y-113157000D03*
%TD*%
D27*
%TO.C,C24*%
X166624000Y-101727000D03*
X168524000Y-101727000D03*
%TD*%
D28*
%TO.C,LD2*%
X97345500Y-124079000D03*
X97345500Y-121279000D03*
%TD*%
D23*
%TO.C,R31*%
X107122500Y-88646000D03*
X110047500Y-88646000D03*
%TD*%
D17*
%TO.C,R26*%
X141314900Y-86563200D03*
X138389900Y-86563200D03*
%TD*%
%TO.C,R21*%
X126951200Y-86563200D03*
X124026200Y-86563200D03*
%TD*%
D16*
%TO.C,R38*%
X145653760Y-90485500D03*
X145653760Y-93410500D03*
%TD*%
%TO.C,R8*%
X181864000Y-117094000D03*
X181864000Y-120019000D03*
%TD*%
%TO.C,R35*%
X169672000Y-80325500D03*
X169672000Y-83250500D03*
%TD*%
D17*
%TO.C,R20*%
X126938500Y-79872840D03*
X124013500Y-79872840D03*
%TD*%
D29*
%TO.C,USB1*%
X157650340Y-73588900D03*
X153250340Y-73588900D03*
D30*
X157050340Y-76288900D03*
X156250340Y-76288900D03*
X155450340Y-76288900D03*
X154650340Y-76288900D03*
X153850340Y-76288900D03*
D31*
X159900340Y-70738900D03*
X151000340Y-70738900D03*
X151000340Y-76188900D03*
X159900340Y-76188900D03*
%TD*%
D32*
%TO.C,J4*%
X173482000Y-74422000D03*
X170942000Y-74422000D03*
X168402000Y-74422000D03*
%TD*%
D16*
%TO.C,R12*%
X175260000Y-122616500D03*
X175260000Y-125541500D03*
%TD*%
D33*
%TO.C,RJ1*%
X110495000Y-73660000D03*
X100335000Y-73660000D03*
D34*
X108585000Y-82550000D03*
D35*
X107315000Y-80010000D03*
X106045000Y-82550000D03*
X104775000Y-80010000D03*
X103505000Y-82550000D03*
X102235000Y-80010000D03*
%TD*%
D36*
%TO.C,J1*%
X91277081Y-99085400D03*
D37*
X88737081Y-109118400D03*
X91277081Y-109118400D03*
X93817081Y-109118400D03*
X101310081Y-101625400D03*
X101310081Y-99085400D03*
X101310081Y-96545400D03*
D20*
X79027081Y-102335400D03*
X79027081Y-95835400D03*
X83527081Y-102335400D03*
X83527081Y-95835400D03*
D38*
X84482581Y-106578400D03*
X98071581Y-106578400D03*
X84482581Y-91592400D03*
X98071581Y-91592400D03*
%TD*%
D39*
%TO.C,C22*%
X210951188Y-83053812D03*
X207132812Y-86872188D03*
%TD*%
D40*
%TO.C,C23*%
X212180249Y-90333751D03*
X213523751Y-88990249D03*
%TD*%
D41*
%TO.C,C6*%
X128651000Y-125730000D03*
X126751000Y-125730000D03*
%TD*%
D27*
%TO.C,C14*%
X89474000Y-77724000D03*
X91374000Y-77724000D03*
%TD*%
D21*
%TO.C,Q2*%
X89601000Y-82090500D03*
X91501000Y-82090500D03*
X90551000Y-80215500D03*
%TD*%
D42*
%TO.C,SW4*%
X197440416Y-85225844D03*
X188603844Y-94062416D03*
X193920156Y-81705584D03*
X185083584Y-90542156D03*
%TD*%
D15*
%TO.C,R5*%
X105918000Y-106172000D03*
X105918000Y-103247000D03*
%TD*%
D43*
%TO.C,Q1*%
X167193000Y-122760500D03*
X165293000Y-122760500D03*
X166243000Y-124635500D03*
%TD*%
D44*
%TO.C,U1*%
X140320000Y-105346000D03*
X140320000Y-104546000D03*
X140320000Y-103746000D03*
X140320000Y-102946000D03*
X140320000Y-102146000D03*
X140320000Y-101346000D03*
X140320000Y-100546000D03*
X140320000Y-99746000D03*
X140320000Y-98946000D03*
X140320000Y-98146000D03*
X140320000Y-97346000D03*
D45*
X138620000Y-95646000D03*
X137820000Y-95646000D03*
X137020000Y-95646000D03*
X136220000Y-95646000D03*
X135420000Y-95646000D03*
X134620000Y-95646000D03*
X133820000Y-95646000D03*
X133020000Y-95646000D03*
X132220000Y-95646000D03*
X131420000Y-95646000D03*
X130620000Y-95646000D03*
D44*
X128920000Y-97346000D03*
X128920000Y-98146000D03*
X128920000Y-98946000D03*
X128920000Y-99746000D03*
X128920000Y-100546000D03*
X128920000Y-101346000D03*
X128920000Y-102146000D03*
X128920000Y-102946000D03*
X128920000Y-103746000D03*
X128920000Y-104546000D03*
X128920000Y-105346000D03*
D45*
X130620000Y-107046000D03*
X131420000Y-107046000D03*
X132220000Y-107046000D03*
X133020000Y-107046000D03*
X133820000Y-107046000D03*
X134620000Y-107046000D03*
X135420000Y-107046000D03*
X136220000Y-107046000D03*
X137020000Y-107046000D03*
X137820000Y-107046000D03*
X138620000Y-107046000D03*
%TD*%
D32*
%TO.C,J3*%
X142489766Y-74422000D03*
X139949766Y-74422000D03*
X137409766Y-74422000D03*
X134869766Y-74422000D03*
%TD*%
D46*
%TO.C,C9*%
X105918000Y-97470000D03*
X105918000Y-95570000D03*
%TD*%
D28*
%TO.C,D5*%
X179598000Y-76584000D03*
X179598000Y-73784000D03*
%TD*%
D47*
%TO.C,BZ1*%
X80010000Y-76210000D03*
D19*
X80010000Y-83810000D03*
%TD*%
D32*
%TO.C,J2*%
X130052233Y-74422000D03*
X127512233Y-74422000D03*
X124972233Y-74422000D03*
X122432233Y-74422000D03*
%TD*%
D48*
%TO.C,SW3*%
X205096156Y-105238416D03*
X196259584Y-96401844D03*
X208616416Y-101718156D03*
X199779844Y-92881584D03*
%TD*%
D49*
%TO.C,X1*%
X113538000Y-104072000D03*
X113538000Y-95572000D03*
%TD*%
D50*
%TO.C,D1*%
X187706000Y-78073000D03*
X187706000Y-74073000D03*
%TD*%
D46*
%TO.C,C13*%
X172339000Y-124516500D03*
X172339000Y-122616500D03*
%TD*%
D51*
%TO.C,R10*%
X208922256Y-111168544D03*
X210990544Y-109100256D03*
%TD*%
D52*
%TO.C,C2*%
X109169200Y-102172000D03*
X109169200Y-104072000D03*
%TD*%
D46*
%TO.C,C17*%
X118110000Y-78303200D03*
X118110000Y-76403200D03*
%TD*%
D53*
%TO.C,U6*%
X173355000Y-87565000D03*
X174625000Y-87565000D03*
X175895000Y-87565000D03*
X177165000Y-87565000D03*
X177165000Y-82615000D03*
X175895000Y-82615000D03*
X174625000Y-82615000D03*
X173355000Y-82615000D03*
%TD*%
D17*
%TO.C,R25*%
X141314900Y-79872840D03*
X138389900Y-79872840D03*
%TD*%
D54*
%TO.C,SW2*%
X177427844Y-92881584D03*
X186264416Y-101718156D03*
X173907584Y-96401844D03*
X182744156Y-105238416D03*
%TD*%
D52*
%TO.C,C19*%
X146812000Y-71501000D03*
X146812000Y-73401000D03*
%TD*%
D16*
%TO.C,R4*%
X169291000Y-122616500D03*
X169291000Y-125541500D03*
%TD*%
%TO.C,R23*%
X100076000Y-121236500D03*
X100076000Y-124161500D03*
%TD*%
D21*
%TO.C,Q3*%
X129440900Y-84033870D03*
X131340900Y-84033870D03*
X130390900Y-82158870D03*
%TD*%
D55*
%TO.C,D4*%
X166370000Y-86585600D03*
X166370000Y-89385600D03*
%TD*%
D56*
%TO.C,R13*%
X206113744Y-113977056D03*
X204045456Y-116045344D03*
%TD*%
D41*
%TO.C,C10*%
X85313600Y-114312700D03*
X83413600Y-114312700D03*
%TD*%
D56*
%TO.C,R14*%
X203675344Y-111538656D03*
X201607056Y-113606944D03*
%TD*%
D46*
%TO.C,C11*%
X178435000Y-114427000D03*
X178435000Y-112527000D03*
%TD*%
D41*
%TO.C,C16*%
X152660000Y-119150000D03*
X150760000Y-119150000D03*
%TD*%
D53*
%TO.C,U4*%
X141097000Y-118364000D03*
X142367000Y-118364000D03*
X143637000Y-118364000D03*
X144907000Y-118364000D03*
X144907000Y-113414000D03*
X143637000Y-113414000D03*
X142367000Y-113414000D03*
X141097000Y-113414000D03*
%TD*%
D41*
%TO.C,C7*%
X85313600Y-117544850D03*
X83413600Y-117544850D03*
%TD*%
D57*
%TO.C,U7*%
X157728996Y-119650000D03*
D58*
X156453996Y-118650000D03*
X156453996Y-119150000D03*
X156453996Y-119650000D03*
X156453996Y-120150000D03*
X156453996Y-120650000D03*
D59*
X157228996Y-120925000D03*
X157728996Y-120925000D03*
X158228996Y-120925000D03*
D58*
X159003996Y-120650000D03*
X159003996Y-120150000D03*
X159003996Y-119650000D03*
X159003996Y-119150000D03*
X159003996Y-118650000D03*
D59*
X158228996Y-118375000D03*
X157728996Y-118375000D03*
X157228996Y-118375000D03*
%TD*%
D42*
%TO.C,SW1*%
X185083584Y-112894156D03*
X193920156Y-104057584D03*
X188603844Y-116414416D03*
X197440416Y-107577844D03*
%TD*%
D50*
%TO.C,D2*%
X183642000Y-78073000D03*
X183642000Y-74073000D03*
%TD*%
D16*
%TO.C,R30*%
X115316000Y-76403200D03*
X115316000Y-79328200D03*
%TD*%
D46*
%TO.C,C15*%
X154178000Y-116651500D03*
X154178000Y-114751500D03*
%TD*%
D27*
%TO.C,C8*%
X119761000Y-119253000D03*
X121661000Y-119253000D03*
%TD*%
D52*
%TO.C,C1*%
X109169200Y-95572000D03*
X109169200Y-97472000D03*
%TD*%
D17*
%TO.C,R19*%
X131815300Y-86563200D03*
X128890300Y-86563200D03*
%TD*%
D52*
%TO.C,C18*%
X142290800Y-90998000D03*
X142290800Y-92898000D03*
%TD*%
D14*
%TO.C,U5*%
X130175000Y-114303000D03*
X128905000Y-114303000D03*
X127635000Y-114303000D03*
X126365000Y-114303000D03*
X126365000Y-119253000D03*
X127635000Y-119253000D03*
X128905000Y-119253000D03*
X130175000Y-119253000D03*
%TD*%
D23*
%TO.C,R22*%
X119695500Y-116205000D03*
X122620500Y-116205000D03*
%TD*%
%TO.C,R33*%
X113853500Y-85598000D03*
X116778500Y-85598000D03*
%TD*%
D52*
%TO.C,C12*%
X181864000Y-122682000D03*
X181864000Y-124582000D03*
%TD*%
D21*
%TO.C,Q5*%
X138902400Y-84033870D03*
X140802400Y-84033870D03*
X139852400Y-82158870D03*
%TD*%
D15*
%TO.C,R37*%
X147953760Y-93410500D03*
X147953760Y-90485500D03*
%TD*%
%TO.C,R6*%
X178409600Y-120019000D03*
X178409600Y-117094000D03*
%TD*%
D55*
%TO.C,D3*%
X169672000Y-86585600D03*
X169672000Y-89385600D03*
%TD*%
D16*
%TO.C,R2*%
X97345500Y-116139500D03*
X97345500Y-119064500D03*
%TD*%
D52*
%TO.C,C3*%
X118110000Y-99062500D03*
X118110000Y-100962500D03*
%TD*%
D23*
%TO.C,R3*%
X79027081Y-111379000D03*
X81952081Y-111379000D03*
%TD*%
D27*
%TO.C,C5*%
X79027081Y-114300000D03*
X80927081Y-114300000D03*
%TD*%
D17*
%TO.C,R28*%
X136565100Y-86563200D03*
X133640100Y-86563200D03*
%TD*%
D16*
%TO.C,R24*%
X179598000Y-80391000D03*
X179598000Y-83316000D03*
%TD*%
D60*
%TO.C,C4*%
X161150000Y-101727000D03*
X163850000Y-101727000D03*
%TD*%
D46*
%TO.C,C25*%
X166370000Y-95147000D03*
X166370000Y-93247000D03*
%TD*%
D51*
%TO.C,R11*%
X206483856Y-108730144D03*
X208552144Y-106661856D03*
%TD*%
D61*
%TO.C,U10*%
X200318355Y-73181066D03*
D62*
X203160924Y-79248042D03*
D61*
X197093948Y-76405473D03*
%TD*%
D63*
%TO.C,SD1*%
X111861600Y-113266220D03*
X110761780Y-113266220D03*
X109661960Y-113266220D03*
X108562140Y-113266220D03*
X107459780Y-113266220D03*
X106359960Y-113266220D03*
X105260140Y-113266220D03*
X104160320Y-113266220D03*
D64*
X102616000Y-113030000D03*
X102616000Y-123444000D03*
D65*
X113411000Y-112966500D03*
D66*
X102471220Y-128026160D03*
X115968780Y-128026160D03*
%TD*%
D28*
%TO.C,LD1*%
X94488000Y-124079000D03*
X94488000Y-121279000D03*
%TD*%
D15*
%TO.C,R17*%
X151130000Y-116651500D03*
X151130000Y-113726500D03*
%TD*%
D17*
%TO.C,R27*%
X136565100Y-79872840D03*
X133640100Y-79872840D03*
%TD*%
D23*
%TO.C,R32*%
X107122500Y-85979000D03*
X110047500Y-85979000D03*
%TD*%
G36*
X158380291Y-120318555D02*
G01*
X158379908Y-120319869D01*
X158347334Y-120364295D01*
X158351215Y-120423522D01*
X158387426Y-120461349D01*
X158387671Y-120462353D01*
X158389474Y-120463557D01*
X158389808Y-120463837D01*
X158392424Y-120466570D01*
X158395345Y-120467561D01*
X158395813Y-120467792D01*
X158397671Y-120469034D01*
X158398556Y-120470828D01*
X158397444Y-120472491D01*
X158396170Y-120472659D01*
X158381297Y-120469700D01*
X158076695Y-120469700D01*
X158057835Y-120473452D01*
X158042017Y-120484021D01*
X158031448Y-120499839D01*
X158027696Y-120518699D01*
X158027696Y-121331301D01*
X158031448Y-121350161D01*
X158039759Y-121362599D01*
X158039890Y-121364595D01*
X158038227Y-121365706D01*
X158036985Y-121365373D01*
X158027568Y-121359081D01*
X157969430Y-121344855D01*
X157930519Y-121359018D01*
X157921007Y-121365373D01*
X157919011Y-121365504D01*
X157917900Y-121363841D01*
X157918233Y-121362599D01*
X157926544Y-121350161D01*
X157930296Y-121331301D01*
X157930296Y-120518699D01*
X157926544Y-120499839D01*
X157915975Y-120484021D01*
X157900157Y-120473452D01*
X157881297Y-120469700D01*
X157576695Y-120469700D01*
X157557835Y-120473452D01*
X157542017Y-120484021D01*
X157531448Y-120499839D01*
X157527696Y-120518699D01*
X157527696Y-121331301D01*
X157531448Y-121350161D01*
X157539759Y-121362599D01*
X157539890Y-121364595D01*
X157538227Y-121365706D01*
X157536985Y-121365373D01*
X157527568Y-121359081D01*
X157469430Y-121344855D01*
X157430519Y-121359018D01*
X157421007Y-121365373D01*
X157419011Y-121365504D01*
X157417900Y-121363841D01*
X157418233Y-121362599D01*
X157426544Y-121350161D01*
X157430296Y-121331301D01*
X157430296Y-120518699D01*
X157426544Y-120499839D01*
X157415975Y-120484021D01*
X157400157Y-120473452D01*
X157381297Y-120469700D01*
X157076695Y-120469700D01*
X157061824Y-120472658D01*
X157059930Y-120472015D01*
X157059540Y-120470053D01*
X157060323Y-120469033D01*
X157069651Y-120462800D01*
X157068665Y-120461325D01*
X157068534Y-120459330D01*
X157069291Y-120458504D01*
X157095025Y-120442890D01*
X157114105Y-120386685D01*
X157092508Y-120331144D01*
X157083861Y-120323561D01*
X157083218Y-120321667D01*
X157084537Y-120320163D01*
X157085570Y-120320095D01*
X157104195Y-120323800D01*
X157472766Y-120323800D01*
X157474498Y-120324800D01*
X157474498Y-120326800D01*
X157473450Y-120327679D01*
X157416991Y-120348228D01*
X157387314Y-120399631D01*
X157397644Y-120458216D01*
X157424686Y-120487085D01*
X157430430Y-120490923D01*
X157488569Y-120505144D01*
X157527467Y-120490986D01*
X157533204Y-120487153D01*
X157568527Y-120438987D01*
X157564651Y-120379759D01*
X157523518Y-120336784D01*
X157484772Y-120327748D01*
X157483312Y-120326381D01*
X157483766Y-120324433D01*
X157485226Y-120323800D01*
X157972762Y-120323800D01*
X157974494Y-120324800D01*
X157974494Y-120326800D01*
X157973446Y-120327679D01*
X157916990Y-120348227D01*
X157887313Y-120399630D01*
X157897643Y-120458215D01*
X157924682Y-120487082D01*
X157930427Y-120490921D01*
X157988565Y-120505144D01*
X158027470Y-120490984D01*
X158033208Y-120487150D01*
X158068529Y-120438983D01*
X158064651Y-120379755D01*
X158023516Y-120336782D01*
X157984777Y-120327748D01*
X157983317Y-120326381D01*
X157983771Y-120324433D01*
X157985231Y-120323800D01*
X158353797Y-120323800D01*
X158372656Y-120320048D01*
X158377184Y-120317023D01*
X158379179Y-120316892D01*
X158380291Y-120318555D01*
G37*
G36*
X158553691Y-120475981D02*
G01*
X158553384Y-120477440D01*
X158552447Y-120478841D01*
X158548696Y-120497699D01*
X158548696Y-120802301D01*
X158552448Y-120821161D01*
X158563017Y-120836979D01*
X158566843Y-120839535D01*
X158567728Y-120841329D01*
X158566617Y-120842992D01*
X158565257Y-120843141D01*
X158511746Y-120830049D01*
X158458547Y-120856285D01*
X158434152Y-120917046D01*
X158432579Y-120918281D01*
X158430723Y-120917536D01*
X158430296Y-120916301D01*
X158430296Y-120518699D01*
X158426544Y-120499839D01*
X158418233Y-120487401D01*
X158418102Y-120485405D01*
X158419765Y-120484294D01*
X158421007Y-120484627D01*
X158430337Y-120490861D01*
X158431406Y-120489261D01*
X158433200Y-120488376D01*
X158434252Y-120488759D01*
X158458194Y-120506316D01*
X158517495Y-120502434D01*
X158550436Y-120474796D01*
X158552405Y-120474449D01*
X158553691Y-120475981D01*
G37*
G36*
X156906806Y-120473744D02*
G01*
X156951230Y-120506317D01*
X157010531Y-120502432D01*
X157024747Y-120490502D01*
X157026717Y-120490155D01*
X157027634Y-120490875D01*
X157036984Y-120484627D01*
X157038980Y-120484496D01*
X157040091Y-120486159D01*
X157039758Y-120487401D01*
X157031448Y-120499839D01*
X157027696Y-120518699D01*
X157027696Y-120916303D01*
X157026696Y-120918035D01*
X157024696Y-120918035D01*
X157023817Y-120916987D01*
X157003267Y-120860528D01*
X156951897Y-120830870D01*
X156892307Y-120843399D01*
X156890406Y-120842777D01*
X156889994Y-120840820D01*
X156890784Y-120839779D01*
X156894975Y-120836979D01*
X156905544Y-120821161D01*
X156909296Y-120802301D01*
X156909296Y-120497699D01*
X156905544Y-120478839D01*
X156903960Y-120476468D01*
X156903829Y-120474472D01*
X156905492Y-120473361D01*
X156906806Y-120473744D01*
G37*
G36*
X158566397Y-120339237D02*
G01*
X158578835Y-120347548D01*
X158597695Y-120351300D01*
X159410297Y-120351300D01*
X159429157Y-120347548D01*
X159441595Y-120339237D01*
X159443591Y-120339106D01*
X159444702Y-120340769D01*
X159444369Y-120342011D01*
X159438077Y-120351428D01*
X159423851Y-120409566D01*
X159438014Y-120448477D01*
X159444369Y-120457989D01*
X159444500Y-120459985D01*
X159442837Y-120461096D01*
X159441595Y-120460763D01*
X159429157Y-120452452D01*
X159410297Y-120448700D01*
X158597695Y-120448700D01*
X158578835Y-120452452D01*
X158566399Y-120460761D01*
X158564403Y-120460892D01*
X158563292Y-120459229D01*
X158563625Y-120457987D01*
X158569916Y-120448572D01*
X158584140Y-120390434D01*
X158569978Y-120351523D01*
X158563623Y-120342011D01*
X158563492Y-120340015D01*
X158565155Y-120338904D01*
X158566397Y-120339237D01*
G37*
G36*
X156016397Y-120339237D02*
G01*
X156028835Y-120347548D01*
X156047695Y-120351300D01*
X156860297Y-120351300D01*
X156879157Y-120347548D01*
X156891595Y-120339237D01*
X156893591Y-120339106D01*
X156894702Y-120340769D01*
X156894369Y-120342011D01*
X156888077Y-120351428D01*
X156873851Y-120409566D01*
X156888013Y-120448477D01*
X156894367Y-120457987D01*
X156894498Y-120459983D01*
X156892835Y-120461094D01*
X156891593Y-120460761D01*
X156879157Y-120452452D01*
X156860297Y-120448700D01*
X156047695Y-120448700D01*
X156028835Y-120452452D01*
X156016397Y-120460763D01*
X156014401Y-120460894D01*
X156013290Y-120459231D01*
X156013623Y-120457989D01*
X156019915Y-120448572D01*
X156034141Y-120390434D01*
X156019978Y-120351523D01*
X156013623Y-120342011D01*
X156013492Y-120340015D01*
X156015155Y-120338904D01*
X156016397Y-120339237D01*
G37*
G36*
X156909963Y-118981326D02*
G01*
X156916196Y-118990655D01*
X156917671Y-118989669D01*
X156919666Y-118989538D01*
X156920492Y-118990295D01*
X156936106Y-119016029D01*
X156992311Y-119035109D01*
X157047852Y-119013512D01*
X157055435Y-119004865D01*
X157057329Y-119004222D01*
X157058833Y-119005541D01*
X157058901Y-119006574D01*
X157055196Y-119025199D01*
X157055196Y-119393769D01*
X157054196Y-119395501D01*
X157052196Y-119395501D01*
X157051317Y-119394453D01*
X157030768Y-119337995D01*
X156979365Y-119308318D01*
X156920781Y-119318648D01*
X156891911Y-119345690D01*
X156888073Y-119351434D01*
X156873852Y-119409573D01*
X156888010Y-119448471D01*
X156891843Y-119454208D01*
X156940009Y-119489531D01*
X156999237Y-119485655D01*
X157042212Y-119444522D01*
X157051248Y-119405777D01*
X157052616Y-119404317D01*
X157054563Y-119404771D01*
X157055196Y-119406231D01*
X157055196Y-119893766D01*
X157054196Y-119895498D01*
X157052196Y-119895498D01*
X157051317Y-119894450D01*
X157030769Y-119837994D01*
X156979366Y-119808317D01*
X156920782Y-119818647D01*
X156891914Y-119845686D01*
X156888075Y-119851431D01*
X156873852Y-119909569D01*
X156888012Y-119948474D01*
X156891846Y-119954212D01*
X156940013Y-119989533D01*
X156999241Y-119985655D01*
X157042214Y-119944520D01*
X157051248Y-119905781D01*
X157052615Y-119904321D01*
X157054563Y-119904775D01*
X157055196Y-119906235D01*
X157055196Y-120274801D01*
X157058948Y-120293660D01*
X157061973Y-120298188D01*
X157062104Y-120300183D01*
X157060441Y-120301295D01*
X157059127Y-120300912D01*
X157014701Y-120268338D01*
X156955474Y-120272219D01*
X156917647Y-120308430D01*
X156916643Y-120308675D01*
X156915439Y-120310478D01*
X156915159Y-120310812D01*
X156912426Y-120313428D01*
X156911434Y-120316349D01*
X156911203Y-120316817D01*
X156909963Y-120318673D01*
X156908169Y-120319558D01*
X156906506Y-120318447D01*
X156906338Y-120317172D01*
X156909296Y-120302301D01*
X156909296Y-119997699D01*
X156905544Y-119978839D01*
X156894975Y-119963021D01*
X156879157Y-119952452D01*
X156860297Y-119948700D01*
X156047695Y-119948700D01*
X156028835Y-119952452D01*
X156016397Y-119960763D01*
X156014401Y-119960894D01*
X156013290Y-119959231D01*
X156013623Y-119957989D01*
X156019915Y-119948572D01*
X156034141Y-119890434D01*
X156019978Y-119851523D01*
X156013623Y-119842011D01*
X156013492Y-119840015D01*
X156015155Y-119838904D01*
X156016397Y-119839237D01*
X156028835Y-119847548D01*
X156047695Y-119851300D01*
X156860297Y-119851300D01*
X156879157Y-119847548D01*
X156894975Y-119836979D01*
X156905544Y-119821161D01*
X156909296Y-119802301D01*
X156909296Y-119497699D01*
X156905544Y-119478839D01*
X156894975Y-119463021D01*
X156879157Y-119452452D01*
X156860297Y-119448700D01*
X156047695Y-119448700D01*
X156028835Y-119452452D01*
X156016397Y-119460763D01*
X156014401Y-119460894D01*
X156013290Y-119459231D01*
X156013623Y-119457989D01*
X156019915Y-119448572D01*
X156034141Y-119390434D01*
X156019978Y-119351523D01*
X156013623Y-119342011D01*
X156013492Y-119340015D01*
X156015155Y-119338904D01*
X156016397Y-119339237D01*
X156028835Y-119347548D01*
X156047695Y-119351300D01*
X156860297Y-119351300D01*
X156879157Y-119347548D01*
X156894975Y-119336979D01*
X156905544Y-119321161D01*
X156909296Y-119302301D01*
X156909296Y-118997699D01*
X156906338Y-118982827D01*
X156906981Y-118980933D01*
X156908943Y-118980543D01*
X156909963Y-118981326D01*
G37*
G36*
X158551486Y-118981553D02*
G01*
X158551654Y-118982828D01*
X158548696Y-118997699D01*
X158548696Y-119302301D01*
X158552448Y-119321161D01*
X158563017Y-119336979D01*
X158578835Y-119347548D01*
X158597695Y-119351300D01*
X159410297Y-119351300D01*
X159429157Y-119347548D01*
X159441595Y-119339237D01*
X159443591Y-119339106D01*
X159444702Y-119340769D01*
X159444369Y-119342011D01*
X159438077Y-119351428D01*
X159423851Y-119409566D01*
X159438014Y-119448477D01*
X159444369Y-119457989D01*
X159444500Y-119459985D01*
X159442837Y-119461096D01*
X159441595Y-119460763D01*
X159429157Y-119452452D01*
X159410297Y-119448700D01*
X158597695Y-119448700D01*
X158578835Y-119452452D01*
X158563017Y-119463021D01*
X158552448Y-119478839D01*
X158548696Y-119497699D01*
X158548696Y-119802301D01*
X158552448Y-119821161D01*
X158563017Y-119836979D01*
X158578835Y-119847548D01*
X158597695Y-119851300D01*
X159410297Y-119851300D01*
X159429157Y-119847548D01*
X159441595Y-119839237D01*
X159443591Y-119839106D01*
X159444702Y-119840769D01*
X159444369Y-119842011D01*
X159438077Y-119851428D01*
X159423851Y-119909566D01*
X159438014Y-119948477D01*
X159444369Y-119957989D01*
X159444500Y-119959985D01*
X159442837Y-119961096D01*
X159441595Y-119960763D01*
X159429157Y-119952452D01*
X159410297Y-119948700D01*
X158597695Y-119948700D01*
X158578835Y-119952452D01*
X158563017Y-119963021D01*
X158552448Y-119978839D01*
X158548696Y-119997699D01*
X158548696Y-120302301D01*
X158551654Y-120317173D01*
X158551011Y-120319067D01*
X158549049Y-120319457D01*
X158548029Y-120318674D01*
X158541796Y-120309345D01*
X158540321Y-120310331D01*
X158538326Y-120310462D01*
X158537500Y-120309705D01*
X158521886Y-120283971D01*
X158465681Y-120264891D01*
X158410140Y-120286488D01*
X158402557Y-120295135D01*
X158400663Y-120295778D01*
X158399159Y-120294459D01*
X158399091Y-120293426D01*
X158402796Y-120274801D01*
X158402796Y-119906231D01*
X158403796Y-119904499D01*
X158405796Y-119904499D01*
X158406675Y-119905547D01*
X158427224Y-119962005D01*
X158478627Y-119991682D01*
X158537212Y-119981352D01*
X158566081Y-119954310D01*
X158569919Y-119948566D01*
X158584140Y-119890427D01*
X158569982Y-119851529D01*
X158566149Y-119845792D01*
X158517983Y-119810469D01*
X158458755Y-119814345D01*
X158415780Y-119855478D01*
X158406744Y-119894223D01*
X158405376Y-119895683D01*
X158403429Y-119895229D01*
X158402796Y-119893769D01*
X158402796Y-119406234D01*
X158403796Y-119404502D01*
X158405796Y-119404502D01*
X158406675Y-119405550D01*
X158427223Y-119462006D01*
X158478626Y-119491683D01*
X158537211Y-119481353D01*
X158566078Y-119454314D01*
X158569917Y-119448569D01*
X158584140Y-119390431D01*
X158569980Y-119351526D01*
X158566146Y-119345788D01*
X158517979Y-119310467D01*
X158458751Y-119314345D01*
X158415778Y-119355480D01*
X158406744Y-119394219D01*
X158405377Y-119395679D01*
X158403429Y-119395225D01*
X158402796Y-119393765D01*
X158402796Y-119025199D01*
X158399044Y-119006340D01*
X158396019Y-119001812D01*
X158395888Y-118999817D01*
X158397551Y-118998705D01*
X158398865Y-118999088D01*
X158443291Y-119031662D01*
X158502518Y-119027781D01*
X158540345Y-118991570D01*
X158541349Y-118991325D01*
X158542553Y-118989522D01*
X158542833Y-118989188D01*
X158545566Y-118986572D01*
X158546558Y-118983651D01*
X158546789Y-118983183D01*
X158548029Y-118981327D01*
X158549823Y-118980442D01*
X158551486Y-118981553D01*
G37*
G36*
X157921007Y-117934627D02*
G01*
X157930424Y-117940919D01*
X157988562Y-117955145D01*
X158027473Y-117940982D01*
X158036985Y-117934627D01*
X158038981Y-117934496D01*
X158040092Y-117936159D01*
X158039759Y-117937401D01*
X158031448Y-117949839D01*
X158027696Y-117968699D01*
X158027696Y-118781301D01*
X158031448Y-118800161D01*
X158042017Y-118815979D01*
X158057835Y-118826548D01*
X158076695Y-118830300D01*
X158381297Y-118830300D01*
X158396168Y-118827342D01*
X158398062Y-118827985D01*
X158398452Y-118829947D01*
X158397669Y-118830967D01*
X158388341Y-118837200D01*
X158389327Y-118838675D01*
X158389458Y-118840670D01*
X158388701Y-118841496D01*
X158362967Y-118857110D01*
X158343887Y-118913315D01*
X158365484Y-118968856D01*
X158374131Y-118976439D01*
X158374774Y-118978333D01*
X158373455Y-118979837D01*
X158372422Y-118979905D01*
X158353797Y-118976200D01*
X157985226Y-118976200D01*
X157983494Y-118975200D01*
X157983494Y-118973200D01*
X157984542Y-118972321D01*
X158041001Y-118951772D01*
X158070678Y-118900369D01*
X158060348Y-118841785D01*
X158033306Y-118812915D01*
X158027562Y-118809077D01*
X157969423Y-118794856D01*
X157930525Y-118809014D01*
X157924788Y-118812847D01*
X157889465Y-118861013D01*
X157893341Y-118920241D01*
X157934474Y-118963216D01*
X157973220Y-118972252D01*
X157974680Y-118973619D01*
X157974226Y-118975567D01*
X157972766Y-118976200D01*
X157485230Y-118976200D01*
X157483498Y-118975200D01*
X157483498Y-118973200D01*
X157484546Y-118972321D01*
X157541002Y-118951773D01*
X157570679Y-118900370D01*
X157560349Y-118841786D01*
X157533310Y-118812918D01*
X157527565Y-118809079D01*
X157469427Y-118794856D01*
X157430522Y-118809016D01*
X157424784Y-118812850D01*
X157389463Y-118861017D01*
X157393341Y-118920245D01*
X157434476Y-118963218D01*
X157473215Y-118972252D01*
X157474675Y-118973619D01*
X157474221Y-118975567D01*
X157472761Y-118976200D01*
X157104195Y-118976200D01*
X157085336Y-118979952D01*
X157080808Y-118982977D01*
X157078813Y-118983108D01*
X157077701Y-118981445D01*
X157078084Y-118980131D01*
X157110658Y-118935705D01*
X157106777Y-118876478D01*
X157070566Y-118838651D01*
X157070321Y-118837647D01*
X157068518Y-118836443D01*
X157068184Y-118836163D01*
X157065568Y-118833430D01*
X157062647Y-118832439D01*
X157062179Y-118832208D01*
X157060321Y-118830966D01*
X157059436Y-118829172D01*
X157060548Y-118827509D01*
X157061822Y-118827341D01*
X157076695Y-118830300D01*
X157381297Y-118830300D01*
X157400157Y-118826548D01*
X157415975Y-118815979D01*
X157426544Y-118800161D01*
X157430296Y-118781301D01*
X157430296Y-117968699D01*
X157426544Y-117949839D01*
X157418233Y-117937401D01*
X157418102Y-117935405D01*
X157419765Y-117934294D01*
X157421007Y-117934627D01*
X157430424Y-117940919D01*
X157488562Y-117955145D01*
X157527473Y-117940982D01*
X157536985Y-117934627D01*
X157538981Y-117934496D01*
X157540092Y-117936159D01*
X157539759Y-117937401D01*
X157531448Y-117949839D01*
X157527696Y-117968699D01*
X157527696Y-118781301D01*
X157531448Y-118800161D01*
X157542017Y-118815979D01*
X157557835Y-118826548D01*
X157576695Y-118830300D01*
X157881297Y-118830300D01*
X157900157Y-118826548D01*
X157915975Y-118815979D01*
X157926544Y-118800161D01*
X157930296Y-118781301D01*
X157930296Y-117968699D01*
X157926544Y-117949839D01*
X157918233Y-117937401D01*
X157918102Y-117935405D01*
X157919765Y-117934294D01*
X157921007Y-117934627D01*
G37*
G36*
X156016397Y-118839237D02*
G01*
X156028835Y-118847548D01*
X156047695Y-118851300D01*
X156860297Y-118851300D01*
X156879157Y-118847548D01*
X156891593Y-118839239D01*
X156893589Y-118839108D01*
X156894700Y-118840771D01*
X156894367Y-118842013D01*
X156888076Y-118851428D01*
X156873852Y-118909566D01*
X156888014Y-118948477D01*
X156894369Y-118957989D01*
X156894500Y-118959985D01*
X156892837Y-118961096D01*
X156891595Y-118960763D01*
X156879157Y-118952452D01*
X156860297Y-118948700D01*
X156047695Y-118948700D01*
X156028835Y-118952452D01*
X156016397Y-118960763D01*
X156014401Y-118960894D01*
X156013290Y-118959231D01*
X156013623Y-118957989D01*
X156019915Y-118948572D01*
X156034141Y-118890434D01*
X156019978Y-118851523D01*
X156013623Y-118842011D01*
X156013492Y-118840015D01*
X156015155Y-118838904D01*
X156016397Y-118839237D01*
G37*
G36*
X158566399Y-118839239D02*
G01*
X158578835Y-118847548D01*
X158597695Y-118851300D01*
X159410297Y-118851300D01*
X159429157Y-118847548D01*
X159441595Y-118839237D01*
X159443591Y-118839106D01*
X159444702Y-118840769D01*
X159444369Y-118842011D01*
X159438077Y-118851428D01*
X159423851Y-118909566D01*
X159438014Y-118948477D01*
X159444369Y-118957989D01*
X159444500Y-118959985D01*
X159442837Y-118961096D01*
X159441595Y-118960763D01*
X159429157Y-118952452D01*
X159410297Y-118948700D01*
X158597695Y-118948700D01*
X158578835Y-118952452D01*
X158566397Y-118960763D01*
X158564401Y-118960894D01*
X158563290Y-118959231D01*
X158563623Y-118957989D01*
X158569915Y-118948572D01*
X158584141Y-118890434D01*
X158569979Y-118851523D01*
X158563625Y-118842013D01*
X158563494Y-118840017D01*
X158565157Y-118838906D01*
X158566399Y-118839239D01*
G37*
G36*
X158434175Y-118383013D02*
G01*
X158454725Y-118439472D01*
X158506095Y-118469130D01*
X158565685Y-118456601D01*
X158567586Y-118457223D01*
X158567998Y-118459180D01*
X158567208Y-118460221D01*
X158563017Y-118463021D01*
X158552448Y-118478839D01*
X158548696Y-118497699D01*
X158548696Y-118802301D01*
X158552448Y-118821161D01*
X158554032Y-118823532D01*
X158554163Y-118825528D01*
X158552500Y-118826639D01*
X158551186Y-118826256D01*
X158506762Y-118793683D01*
X158447461Y-118797568D01*
X158433245Y-118809498D01*
X158431275Y-118809845D01*
X158430358Y-118809125D01*
X158421008Y-118815373D01*
X158419012Y-118815504D01*
X158417901Y-118813841D01*
X158418234Y-118812599D01*
X158426544Y-118800161D01*
X158430296Y-118781301D01*
X158430296Y-118383697D01*
X158431296Y-118381965D01*
X158433296Y-118381965D01*
X158434175Y-118383013D01*
G37*
G36*
X157027269Y-118382464D02*
G01*
X157027696Y-118383699D01*
X157027696Y-118781301D01*
X157031448Y-118800161D01*
X157039759Y-118812599D01*
X157039890Y-118814595D01*
X157038227Y-118815706D01*
X157036985Y-118815373D01*
X157027655Y-118809139D01*
X157026586Y-118810739D01*
X157024792Y-118811624D01*
X157023740Y-118811241D01*
X156999798Y-118793684D01*
X156940497Y-118797566D01*
X156907556Y-118825204D01*
X156905587Y-118825551D01*
X156904301Y-118824019D01*
X156904608Y-118822560D01*
X156905545Y-118821159D01*
X156909296Y-118802301D01*
X156909296Y-118497699D01*
X156905544Y-118478839D01*
X156894975Y-118463021D01*
X156891149Y-118460465D01*
X156890264Y-118458671D01*
X156891375Y-118457008D01*
X156892735Y-118456859D01*
X156946246Y-118469951D01*
X156999445Y-118443715D01*
X157023840Y-118382954D01*
X157025413Y-118381719D01*
X157027269Y-118382464D01*
G37*
G36*
X134298990Y-106280054D02*
G01*
X134299158Y-106281329D01*
X134296200Y-106296199D01*
X134296200Y-107795801D01*
X134299158Y-107810671D01*
X134298515Y-107812565D01*
X134296553Y-107812955D01*
X134295533Y-107812172D01*
X134292451Y-107807559D01*
X134244281Y-107772241D01*
X134184980Y-107776127D01*
X134147587Y-107807503D01*
X134144467Y-107812172D01*
X134142673Y-107813057D01*
X134141010Y-107811946D01*
X134140842Y-107810671D01*
X134143800Y-107795801D01*
X134143800Y-106296199D01*
X134140842Y-106281329D01*
X134141485Y-106279435D01*
X134143447Y-106279045D01*
X134144467Y-106279828D01*
X134147549Y-106284441D01*
X134195719Y-106319759D01*
X134255020Y-106315873D01*
X134292413Y-106284497D01*
X134295533Y-106279828D01*
X134297327Y-106278943D01*
X134298990Y-106280054D01*
G37*
G36*
X135098990Y-106280054D02*
G01*
X135099158Y-106281329D01*
X135096200Y-106296199D01*
X135096200Y-107795801D01*
X135099158Y-107810671D01*
X135098515Y-107812565D01*
X135096553Y-107812955D01*
X135095533Y-107812172D01*
X135092451Y-107807559D01*
X135044281Y-107772241D01*
X134984980Y-107776127D01*
X134947587Y-107807503D01*
X134944467Y-107812172D01*
X134942673Y-107813057D01*
X134941010Y-107811946D01*
X134940842Y-107810671D01*
X134943800Y-107795801D01*
X134943800Y-106296199D01*
X134940842Y-106281329D01*
X134941485Y-106279435D01*
X134943447Y-106279045D01*
X134944467Y-106279828D01*
X134947549Y-106284441D01*
X134995719Y-106319759D01*
X135055020Y-106315873D01*
X135092413Y-106284497D01*
X135095533Y-106279828D01*
X135097327Y-106278943D01*
X135098990Y-106280054D01*
G37*
G36*
X135898990Y-106280054D02*
G01*
X135899158Y-106281329D01*
X135896200Y-106296199D01*
X135896200Y-107795801D01*
X135899158Y-107810671D01*
X135898515Y-107812565D01*
X135896553Y-107812955D01*
X135895533Y-107812172D01*
X135892451Y-107807559D01*
X135844281Y-107772241D01*
X135784980Y-107776127D01*
X135747587Y-107807503D01*
X135744467Y-107812172D01*
X135742673Y-107813057D01*
X135741010Y-107811946D01*
X135740842Y-107810671D01*
X135743800Y-107795801D01*
X135743800Y-106296199D01*
X135740842Y-106281329D01*
X135741485Y-106279435D01*
X135743447Y-106279045D01*
X135744467Y-106279828D01*
X135747549Y-106284441D01*
X135795719Y-106319759D01*
X135855020Y-106315873D01*
X135892413Y-106284497D01*
X135895533Y-106279828D01*
X135897327Y-106278943D01*
X135898990Y-106280054D01*
G37*
G36*
X133498990Y-106280054D02*
G01*
X133499158Y-106281329D01*
X133496200Y-106296199D01*
X133496200Y-107795801D01*
X133499158Y-107810671D01*
X133498515Y-107812565D01*
X133496553Y-107812955D01*
X133495533Y-107812172D01*
X133492451Y-107807559D01*
X133444281Y-107772241D01*
X133384980Y-107776127D01*
X133347587Y-107807503D01*
X133344467Y-107812172D01*
X133342673Y-107813057D01*
X133341010Y-107811946D01*
X133340842Y-107810671D01*
X133343800Y-107795801D01*
X133343800Y-106296199D01*
X133340842Y-106281329D01*
X133341485Y-106279435D01*
X133343447Y-106279045D01*
X133344467Y-106279828D01*
X133347549Y-106284441D01*
X133395719Y-106319759D01*
X133455020Y-106315873D01*
X133492413Y-106284497D01*
X133495533Y-106279828D01*
X133497327Y-106278943D01*
X133498990Y-106280054D01*
G37*
G36*
X132698990Y-106280054D02*
G01*
X132699158Y-106281329D01*
X132696200Y-106296199D01*
X132696200Y-107795801D01*
X132699158Y-107810671D01*
X132698515Y-107812565D01*
X132696553Y-107812955D01*
X132695533Y-107812172D01*
X132692451Y-107807559D01*
X132644281Y-107772241D01*
X132584980Y-107776127D01*
X132547587Y-107807503D01*
X132544467Y-107812172D01*
X132542673Y-107813057D01*
X132541010Y-107811946D01*
X132540842Y-107810671D01*
X132543800Y-107795801D01*
X132543800Y-106296199D01*
X132540842Y-106281329D01*
X132541485Y-106279435D01*
X132543447Y-106279045D01*
X132544467Y-106279828D01*
X132547549Y-106284441D01*
X132595719Y-106319759D01*
X132655020Y-106315873D01*
X132692413Y-106284497D01*
X132695533Y-106279828D01*
X132697327Y-106278943D01*
X132698990Y-106280054D01*
G37*
G36*
X136698990Y-106280054D02*
G01*
X136699158Y-106281329D01*
X136696200Y-106296199D01*
X136696200Y-107795801D01*
X136699158Y-107810671D01*
X136698515Y-107812565D01*
X136696553Y-107812955D01*
X136695533Y-107812172D01*
X136692451Y-107807559D01*
X136644281Y-107772241D01*
X136584980Y-107776127D01*
X136547587Y-107807503D01*
X136544467Y-107812172D01*
X136542673Y-107813057D01*
X136541010Y-107811946D01*
X136540842Y-107810671D01*
X136543800Y-107795801D01*
X136543800Y-106296199D01*
X136540842Y-106281329D01*
X136541485Y-106279435D01*
X136543447Y-106279045D01*
X136544467Y-106279828D01*
X136547549Y-106284441D01*
X136595719Y-106319759D01*
X136655020Y-106315873D01*
X136692413Y-106284497D01*
X136695533Y-106279828D01*
X136697327Y-106278943D01*
X136698990Y-106280054D01*
G37*
G36*
X131098990Y-106280054D02*
G01*
X131099158Y-106281329D01*
X131096200Y-106296199D01*
X131096200Y-107795801D01*
X131099158Y-107810671D01*
X131098515Y-107812565D01*
X131096553Y-107812955D01*
X131095533Y-107812172D01*
X131092451Y-107807559D01*
X131044281Y-107772241D01*
X130984980Y-107776127D01*
X130947587Y-107807503D01*
X130944467Y-107812172D01*
X130942673Y-107813057D01*
X130941010Y-107811946D01*
X130940842Y-107810671D01*
X130943800Y-107795801D01*
X130943800Y-106296199D01*
X130940842Y-106281329D01*
X130941485Y-106279435D01*
X130943447Y-106279045D01*
X130944467Y-106279828D01*
X130947549Y-106284441D01*
X130995719Y-106319759D01*
X131055020Y-106315873D01*
X131092413Y-106284497D01*
X131095533Y-106279828D01*
X131097327Y-106278943D01*
X131098990Y-106280054D01*
G37*
G36*
X137498990Y-106280054D02*
G01*
X137499158Y-106281329D01*
X137496200Y-106296199D01*
X137496200Y-107795801D01*
X137499158Y-107810671D01*
X137498515Y-107812565D01*
X137496553Y-107812955D01*
X137495533Y-107812172D01*
X137492451Y-107807559D01*
X137444281Y-107772241D01*
X137384980Y-107776127D01*
X137347587Y-107807503D01*
X137344467Y-107812172D01*
X137342673Y-107813057D01*
X137341010Y-107811946D01*
X137340842Y-107810671D01*
X137343800Y-107795801D01*
X137343800Y-106296199D01*
X137340842Y-106281329D01*
X137341485Y-106279435D01*
X137343447Y-106279045D01*
X137344467Y-106279828D01*
X137347549Y-106284441D01*
X137395719Y-106319759D01*
X137455020Y-106315873D01*
X137492413Y-106284497D01*
X137495533Y-106279828D01*
X137497327Y-106278943D01*
X137498990Y-106280054D01*
G37*
G36*
X138298990Y-106280054D02*
G01*
X138299158Y-106281329D01*
X138296200Y-106296199D01*
X138296200Y-107795801D01*
X138299158Y-107810671D01*
X138298515Y-107812565D01*
X138296553Y-107812955D01*
X138295533Y-107812172D01*
X138292451Y-107807559D01*
X138244281Y-107772241D01*
X138184980Y-107776127D01*
X138147587Y-107807503D01*
X138144467Y-107812172D01*
X138142673Y-107813057D01*
X138141010Y-107811946D01*
X138140842Y-107810671D01*
X138143800Y-107795801D01*
X138143800Y-106296199D01*
X138140842Y-106281329D01*
X138141485Y-106279435D01*
X138143447Y-106279045D01*
X138144467Y-106279828D01*
X138147549Y-106284441D01*
X138195719Y-106319759D01*
X138255020Y-106315873D01*
X138292413Y-106284497D01*
X138295533Y-106279828D01*
X138297327Y-106278943D01*
X138298990Y-106280054D01*
G37*
G36*
X131898990Y-106280054D02*
G01*
X131899158Y-106281329D01*
X131896200Y-106296199D01*
X131896200Y-107795801D01*
X131899158Y-107810671D01*
X131898515Y-107812565D01*
X131896553Y-107812955D01*
X131895533Y-107812172D01*
X131892451Y-107807559D01*
X131844281Y-107772241D01*
X131784980Y-107776127D01*
X131747587Y-107807503D01*
X131744467Y-107812172D01*
X131742673Y-107813057D01*
X131741010Y-107811946D01*
X131740842Y-107810671D01*
X131743800Y-107795801D01*
X131743800Y-106296199D01*
X131740842Y-106281329D01*
X131741485Y-106279435D01*
X131743447Y-106279045D01*
X131744467Y-106279828D01*
X131747549Y-106284441D01*
X131795719Y-106319759D01*
X131855020Y-106315873D01*
X131892413Y-106284497D01*
X131895533Y-106279828D01*
X131897327Y-106278943D01*
X131898990Y-106280054D01*
G37*
G36*
X129686565Y-104867485D02*
G01*
X129686955Y-104869447D01*
X129686172Y-104870467D01*
X129681559Y-104873549D01*
X129646241Y-104921719D01*
X129650127Y-104981020D01*
X129681503Y-105018413D01*
X129686172Y-105021533D01*
X129687057Y-105023327D01*
X129685946Y-105024990D01*
X129684671Y-105025158D01*
X129669801Y-105022200D01*
X128170199Y-105022200D01*
X128155329Y-105025158D01*
X128153435Y-105024515D01*
X128153045Y-105022553D01*
X128153828Y-105021533D01*
X128158441Y-105018451D01*
X128193759Y-104970281D01*
X128189873Y-104910980D01*
X128158497Y-104873587D01*
X128153828Y-104870467D01*
X128152943Y-104868673D01*
X128154054Y-104867010D01*
X128155329Y-104866842D01*
X128170199Y-104869800D01*
X129669801Y-104869800D01*
X129684671Y-104866842D01*
X129686565Y-104867485D01*
G37*
G36*
X141086565Y-104867485D02*
G01*
X141086955Y-104869447D01*
X141086172Y-104870467D01*
X141081559Y-104873549D01*
X141046241Y-104921719D01*
X141050127Y-104981020D01*
X141081503Y-105018413D01*
X141086172Y-105021533D01*
X141087057Y-105023327D01*
X141085946Y-105024990D01*
X141084671Y-105025158D01*
X141069801Y-105022200D01*
X139570199Y-105022200D01*
X139555329Y-105025158D01*
X139553435Y-105024515D01*
X139553045Y-105022553D01*
X139553828Y-105021533D01*
X139558441Y-105018451D01*
X139593759Y-104970281D01*
X139589873Y-104910980D01*
X139558497Y-104873587D01*
X139553828Y-104870467D01*
X139552943Y-104868673D01*
X139554054Y-104867010D01*
X139555329Y-104866842D01*
X139570199Y-104869800D01*
X141069801Y-104869800D01*
X141084671Y-104866842D01*
X141086565Y-104867485D01*
G37*
G36*
X141086565Y-104067485D02*
G01*
X141086955Y-104069447D01*
X141086172Y-104070467D01*
X141081559Y-104073549D01*
X141046241Y-104121719D01*
X141050127Y-104181020D01*
X141081503Y-104218413D01*
X141086172Y-104221533D01*
X141087057Y-104223327D01*
X141085946Y-104224990D01*
X141084671Y-104225158D01*
X141069801Y-104222200D01*
X139570199Y-104222200D01*
X139555329Y-104225158D01*
X139553435Y-104224515D01*
X139553045Y-104222553D01*
X139553828Y-104221533D01*
X139558441Y-104218451D01*
X139593759Y-104170281D01*
X139589873Y-104110980D01*
X139558497Y-104073587D01*
X139553828Y-104070467D01*
X139552943Y-104068673D01*
X139554054Y-104067010D01*
X139555329Y-104066842D01*
X139570199Y-104069800D01*
X141069801Y-104069800D01*
X141084671Y-104066842D01*
X141086565Y-104067485D01*
G37*
G36*
X129686565Y-104067485D02*
G01*
X129686955Y-104069447D01*
X129686172Y-104070467D01*
X129681559Y-104073549D01*
X129646241Y-104121719D01*
X129650127Y-104181020D01*
X129681503Y-104218413D01*
X129686172Y-104221533D01*
X129687057Y-104223327D01*
X129685946Y-104224990D01*
X129684671Y-104225158D01*
X129669801Y-104222200D01*
X128170199Y-104222200D01*
X128155329Y-104225158D01*
X128153435Y-104224515D01*
X128153045Y-104222553D01*
X128153828Y-104221533D01*
X128158441Y-104218451D01*
X128193759Y-104170281D01*
X128189873Y-104110980D01*
X128158497Y-104073587D01*
X128153828Y-104070467D01*
X128152943Y-104068673D01*
X128154054Y-104067010D01*
X128155329Y-104066842D01*
X128170199Y-104069800D01*
X129669801Y-104069800D01*
X129684671Y-104066842D01*
X129686565Y-104067485D01*
G37*
G36*
X129686565Y-103267485D02*
G01*
X129686955Y-103269447D01*
X129686172Y-103270467D01*
X129681559Y-103273549D01*
X129646241Y-103321719D01*
X129650127Y-103381020D01*
X129681503Y-103418413D01*
X129686172Y-103421533D01*
X129687057Y-103423327D01*
X129685946Y-103424990D01*
X129684671Y-103425158D01*
X129669801Y-103422200D01*
X128170199Y-103422200D01*
X128155329Y-103425158D01*
X128153435Y-103424515D01*
X128153045Y-103422553D01*
X128153828Y-103421533D01*
X128158441Y-103418451D01*
X128193759Y-103370281D01*
X128189873Y-103310980D01*
X128158497Y-103273587D01*
X128153828Y-103270467D01*
X128152943Y-103268673D01*
X128154054Y-103267010D01*
X128155329Y-103266842D01*
X128170199Y-103269800D01*
X129669801Y-103269800D01*
X129684671Y-103266842D01*
X129686565Y-103267485D01*
G37*
G36*
X141086565Y-103267485D02*
G01*
X141086955Y-103269447D01*
X141086172Y-103270467D01*
X141081559Y-103273549D01*
X141046241Y-103321719D01*
X141050127Y-103381020D01*
X141081503Y-103418413D01*
X141086172Y-103421533D01*
X141087057Y-103423327D01*
X141085946Y-103424990D01*
X141084671Y-103425158D01*
X141069801Y-103422200D01*
X139570199Y-103422200D01*
X139555329Y-103425158D01*
X139553435Y-103424515D01*
X139553045Y-103422553D01*
X139553828Y-103421533D01*
X139558441Y-103418451D01*
X139593759Y-103370281D01*
X139589873Y-103310980D01*
X139558497Y-103273587D01*
X139553828Y-103270467D01*
X139552943Y-103268673D01*
X139554054Y-103267010D01*
X139555329Y-103266842D01*
X139570199Y-103269800D01*
X141069801Y-103269800D01*
X141084671Y-103266842D01*
X141086565Y-103267485D01*
G37*
G36*
X129686565Y-102467485D02*
G01*
X129686955Y-102469447D01*
X129686172Y-102470467D01*
X129681559Y-102473549D01*
X129646241Y-102521719D01*
X129650127Y-102581020D01*
X129681503Y-102618413D01*
X129686172Y-102621533D01*
X129687057Y-102623327D01*
X129685946Y-102624990D01*
X129684671Y-102625158D01*
X129669801Y-102622200D01*
X128170199Y-102622200D01*
X128155329Y-102625158D01*
X128153435Y-102624515D01*
X128153045Y-102622553D01*
X128153828Y-102621533D01*
X128158441Y-102618451D01*
X128193759Y-102570281D01*
X128189873Y-102510980D01*
X128158497Y-102473587D01*
X128153828Y-102470467D01*
X128152943Y-102468673D01*
X128154054Y-102467010D01*
X128155329Y-102466842D01*
X128170199Y-102469800D01*
X129669801Y-102469800D01*
X129684671Y-102466842D01*
X129686565Y-102467485D01*
G37*
G36*
X141086565Y-102467485D02*
G01*
X141086955Y-102469447D01*
X141086172Y-102470467D01*
X141081559Y-102473549D01*
X141046241Y-102521719D01*
X141050127Y-102581020D01*
X141081503Y-102618413D01*
X141086172Y-102621533D01*
X141087057Y-102623327D01*
X141085946Y-102624990D01*
X141084671Y-102625158D01*
X141069801Y-102622200D01*
X139570199Y-102622200D01*
X139555329Y-102625158D01*
X139553435Y-102624515D01*
X139553045Y-102622553D01*
X139553828Y-102621533D01*
X139558441Y-102618451D01*
X139593759Y-102570281D01*
X139589873Y-102510980D01*
X139558497Y-102473587D01*
X139553828Y-102470467D01*
X139552943Y-102468673D01*
X139554054Y-102467010D01*
X139555329Y-102466842D01*
X139570199Y-102469800D01*
X141069801Y-102469800D01*
X141084671Y-102466842D01*
X141086565Y-102467485D01*
G37*
G36*
X141086565Y-101667485D02*
G01*
X141086955Y-101669447D01*
X141086172Y-101670467D01*
X141081559Y-101673549D01*
X141046241Y-101721719D01*
X141050127Y-101781020D01*
X141081503Y-101818413D01*
X141086172Y-101821533D01*
X141087057Y-101823327D01*
X141085946Y-101824990D01*
X141084671Y-101825158D01*
X141069801Y-101822200D01*
X139570199Y-101822200D01*
X139555329Y-101825158D01*
X139553435Y-101824515D01*
X139553045Y-101822553D01*
X139553828Y-101821533D01*
X139558441Y-101818451D01*
X139593759Y-101770281D01*
X139589873Y-101710980D01*
X139558497Y-101673587D01*
X139553828Y-101670467D01*
X139552943Y-101668673D01*
X139554054Y-101667010D01*
X139555329Y-101666842D01*
X139570199Y-101669800D01*
X141069801Y-101669800D01*
X141084671Y-101666842D01*
X141086565Y-101667485D01*
G37*
G36*
X129686565Y-101667485D02*
G01*
X129686955Y-101669447D01*
X129686172Y-101670467D01*
X129681559Y-101673549D01*
X129646241Y-101721719D01*
X129650127Y-101781020D01*
X129681503Y-101818413D01*
X129686172Y-101821533D01*
X129687057Y-101823327D01*
X129685946Y-101824990D01*
X129684671Y-101825158D01*
X129669801Y-101822200D01*
X128170199Y-101822200D01*
X128155329Y-101825158D01*
X128153435Y-101824515D01*
X128153045Y-101822553D01*
X128153828Y-101821533D01*
X128158441Y-101818451D01*
X128193759Y-101770281D01*
X128189873Y-101710980D01*
X128158497Y-101673587D01*
X128153828Y-101670467D01*
X128152943Y-101668673D01*
X128154054Y-101667010D01*
X128155329Y-101666842D01*
X128170199Y-101669800D01*
X129669801Y-101669800D01*
X129684671Y-101666842D01*
X129686565Y-101667485D01*
G37*
G36*
X129686565Y-100867485D02*
G01*
X129686955Y-100869447D01*
X129686172Y-100870467D01*
X129681559Y-100873549D01*
X129646241Y-100921719D01*
X129650127Y-100981020D01*
X129681503Y-101018413D01*
X129686172Y-101021533D01*
X129687057Y-101023327D01*
X129685946Y-101024990D01*
X129684671Y-101025158D01*
X129669801Y-101022200D01*
X128170199Y-101022200D01*
X128155329Y-101025158D01*
X128153435Y-101024515D01*
X128153045Y-101022553D01*
X128153828Y-101021533D01*
X128158441Y-101018451D01*
X128193759Y-100970281D01*
X128189873Y-100910980D01*
X128158497Y-100873587D01*
X128153828Y-100870467D01*
X128152943Y-100868673D01*
X128154054Y-100867010D01*
X128155329Y-100866842D01*
X128170199Y-100869800D01*
X129669801Y-100869800D01*
X129684671Y-100866842D01*
X129686565Y-100867485D01*
G37*
G36*
X141086565Y-100867485D02*
G01*
X141086955Y-100869447D01*
X141086172Y-100870467D01*
X141081559Y-100873549D01*
X141046241Y-100921719D01*
X141050127Y-100981020D01*
X141081503Y-101018413D01*
X141086172Y-101021533D01*
X141087057Y-101023327D01*
X141085946Y-101024990D01*
X141084671Y-101025158D01*
X141069801Y-101022200D01*
X139570199Y-101022200D01*
X139555329Y-101025158D01*
X139553435Y-101024515D01*
X139553045Y-101022553D01*
X139553828Y-101021533D01*
X139558441Y-101018451D01*
X139593759Y-100970281D01*
X139589873Y-100910980D01*
X139558497Y-100873587D01*
X139553828Y-100870467D01*
X139552943Y-100868673D01*
X139554054Y-100867010D01*
X139555329Y-100866842D01*
X139570199Y-100869800D01*
X141069801Y-100869800D01*
X141084671Y-100866842D01*
X141086565Y-100867485D01*
G37*
G36*
X129686565Y-100067485D02*
G01*
X129686955Y-100069447D01*
X129686172Y-100070467D01*
X129681559Y-100073549D01*
X129646241Y-100121719D01*
X129650127Y-100181020D01*
X129681503Y-100218413D01*
X129686172Y-100221533D01*
X129687057Y-100223327D01*
X129685946Y-100224990D01*
X129684671Y-100225158D01*
X129669801Y-100222200D01*
X128170199Y-100222200D01*
X128155329Y-100225158D01*
X128153435Y-100224515D01*
X128153045Y-100222553D01*
X128153828Y-100221533D01*
X128158441Y-100218451D01*
X128193759Y-100170281D01*
X128189873Y-100110980D01*
X128158497Y-100073587D01*
X128153828Y-100070467D01*
X128152943Y-100068673D01*
X128154054Y-100067010D01*
X128155329Y-100066842D01*
X128170199Y-100069800D01*
X129669801Y-100069800D01*
X129684671Y-100066842D01*
X129686565Y-100067485D01*
G37*
G36*
X141086565Y-100067485D02*
G01*
X141086955Y-100069447D01*
X141086172Y-100070467D01*
X141081559Y-100073549D01*
X141046241Y-100121719D01*
X141050127Y-100181020D01*
X141081503Y-100218413D01*
X141086172Y-100221533D01*
X141087057Y-100223327D01*
X141085946Y-100224990D01*
X141084671Y-100225158D01*
X141069801Y-100222200D01*
X139570199Y-100222200D01*
X139555329Y-100225158D01*
X139553435Y-100224515D01*
X139553045Y-100222553D01*
X139553828Y-100221533D01*
X139558441Y-100218451D01*
X139593759Y-100170281D01*
X139589873Y-100110980D01*
X139558497Y-100073587D01*
X139553828Y-100070467D01*
X139552943Y-100068673D01*
X139554054Y-100067010D01*
X139555329Y-100066842D01*
X139570199Y-100069800D01*
X141069801Y-100069800D01*
X141084671Y-100066842D01*
X141086565Y-100067485D01*
G37*
G36*
X129686565Y-99267485D02*
G01*
X129686955Y-99269447D01*
X129686172Y-99270467D01*
X129681559Y-99273549D01*
X129646241Y-99321719D01*
X129650127Y-99381020D01*
X129681503Y-99418413D01*
X129686172Y-99421533D01*
X129687057Y-99423327D01*
X129685946Y-99424990D01*
X129684671Y-99425158D01*
X129669801Y-99422200D01*
X128170199Y-99422200D01*
X128155329Y-99425158D01*
X128153435Y-99424515D01*
X128153045Y-99422553D01*
X128153828Y-99421533D01*
X128158441Y-99418451D01*
X128193759Y-99370281D01*
X128189873Y-99310980D01*
X128158497Y-99273587D01*
X128153828Y-99270467D01*
X128152943Y-99268673D01*
X128154054Y-99267010D01*
X128155329Y-99266842D01*
X128170199Y-99269800D01*
X129669801Y-99269800D01*
X129684671Y-99266842D01*
X129686565Y-99267485D01*
G37*
G36*
X141086565Y-99267485D02*
G01*
X141086955Y-99269447D01*
X141086172Y-99270467D01*
X141081559Y-99273549D01*
X141046241Y-99321719D01*
X141050127Y-99381020D01*
X141081503Y-99418413D01*
X141086172Y-99421533D01*
X141087057Y-99423327D01*
X141085946Y-99424990D01*
X141084671Y-99425158D01*
X141069801Y-99422200D01*
X139570199Y-99422200D01*
X139555329Y-99425158D01*
X139553435Y-99424515D01*
X139553045Y-99422553D01*
X139553828Y-99421533D01*
X139558441Y-99418451D01*
X139593759Y-99370281D01*
X139589873Y-99310980D01*
X139558497Y-99273587D01*
X139553828Y-99270467D01*
X139552943Y-99268673D01*
X139554054Y-99267010D01*
X139555329Y-99266842D01*
X139570199Y-99269800D01*
X141069801Y-99269800D01*
X141084671Y-99266842D01*
X141086565Y-99267485D01*
G37*
G36*
X129686565Y-98467485D02*
G01*
X129686955Y-98469447D01*
X129686172Y-98470467D01*
X129681559Y-98473549D01*
X129646241Y-98521719D01*
X129650127Y-98581020D01*
X129681503Y-98618413D01*
X129686172Y-98621533D01*
X129687057Y-98623327D01*
X129685946Y-98624990D01*
X129684671Y-98625158D01*
X129669801Y-98622200D01*
X128170199Y-98622200D01*
X128155329Y-98625158D01*
X128153435Y-98624515D01*
X128153045Y-98622553D01*
X128153828Y-98621533D01*
X128158441Y-98618451D01*
X128193759Y-98570281D01*
X128189873Y-98510980D01*
X128158497Y-98473587D01*
X128153828Y-98470467D01*
X128152943Y-98468673D01*
X128154054Y-98467010D01*
X128155329Y-98466842D01*
X128170199Y-98469800D01*
X129669801Y-98469800D01*
X129684671Y-98466842D01*
X129686565Y-98467485D01*
G37*
G36*
X141086565Y-98467485D02*
G01*
X141086955Y-98469447D01*
X141086172Y-98470467D01*
X141081559Y-98473549D01*
X141046241Y-98521719D01*
X141050127Y-98581020D01*
X141081503Y-98618413D01*
X141086172Y-98621533D01*
X141087057Y-98623327D01*
X141085946Y-98624990D01*
X141084671Y-98625158D01*
X141069801Y-98622200D01*
X139570199Y-98622200D01*
X139555329Y-98625158D01*
X139553435Y-98624515D01*
X139553045Y-98622553D01*
X139553828Y-98621533D01*
X139558441Y-98618451D01*
X139593759Y-98570281D01*
X139589873Y-98510980D01*
X139558497Y-98473587D01*
X139553828Y-98470467D01*
X139552943Y-98468673D01*
X139554054Y-98467010D01*
X139555329Y-98466842D01*
X139570199Y-98469800D01*
X141069801Y-98469800D01*
X141084671Y-98466842D01*
X141086565Y-98467485D01*
G37*
G36*
X129686565Y-97667485D02*
G01*
X129686955Y-97669447D01*
X129686172Y-97670467D01*
X129681559Y-97673549D01*
X129646241Y-97721719D01*
X129650127Y-97781020D01*
X129681503Y-97818413D01*
X129686172Y-97821533D01*
X129687057Y-97823327D01*
X129685946Y-97824990D01*
X129684671Y-97825158D01*
X129669801Y-97822200D01*
X128170199Y-97822200D01*
X128155329Y-97825158D01*
X128153435Y-97824515D01*
X128153045Y-97822553D01*
X128153828Y-97821533D01*
X128158441Y-97818451D01*
X128193759Y-97770281D01*
X128189873Y-97710980D01*
X128158497Y-97673587D01*
X128153828Y-97670467D01*
X128152943Y-97668673D01*
X128154054Y-97667010D01*
X128155329Y-97666842D01*
X128170199Y-97669800D01*
X129669801Y-97669800D01*
X129684671Y-97666842D01*
X129686565Y-97667485D01*
G37*
G36*
X141086565Y-97667485D02*
G01*
X141086955Y-97669447D01*
X141086172Y-97670467D01*
X141081559Y-97673549D01*
X141046241Y-97721719D01*
X141050127Y-97781020D01*
X141081503Y-97818413D01*
X141086172Y-97821533D01*
X141087057Y-97823327D01*
X141085946Y-97824990D01*
X141084671Y-97825158D01*
X141069801Y-97822200D01*
X139570199Y-97822200D01*
X139555329Y-97825158D01*
X139553435Y-97824515D01*
X139553045Y-97822553D01*
X139553828Y-97821533D01*
X139558441Y-97818451D01*
X139593759Y-97770281D01*
X139589873Y-97710980D01*
X139558497Y-97673587D01*
X139553828Y-97670467D01*
X139552943Y-97668673D01*
X139554054Y-97667010D01*
X139555329Y-97666842D01*
X139570199Y-97669800D01*
X141069801Y-97669800D01*
X141084671Y-97666842D01*
X141086565Y-97667485D01*
G37*
G36*
X153227901Y-97054738D02*
G01*
X153240339Y-97063048D01*
X153259199Y-97066800D01*
X155008801Y-97066800D01*
X155027661Y-97063048D01*
X155040099Y-97054738D01*
X155042095Y-97054607D01*
X155043206Y-97056270D01*
X155042873Y-97057512D01*
X155036639Y-97066841D01*
X155038743Y-97068247D01*
X155039628Y-97070041D01*
X155039245Y-97071093D01*
X155022656Y-97093717D01*
X155026541Y-97153017D01*
X155037413Y-97165974D01*
X155037760Y-97167944D01*
X155036992Y-97168923D01*
X155036639Y-97169159D01*
X155042873Y-97178488D01*
X155043004Y-97180484D01*
X155041341Y-97181595D01*
X155040099Y-97181262D01*
X155027661Y-97172952D01*
X155008801Y-97169200D01*
X153259199Y-97169200D01*
X153240339Y-97172952D01*
X153227901Y-97181262D01*
X153225905Y-97181393D01*
X153224794Y-97179730D01*
X153225127Y-97178488D01*
X153231361Y-97169159D01*
X153229257Y-97167753D01*
X153228372Y-97165959D01*
X153228755Y-97164907D01*
X153245344Y-97142283D01*
X153241459Y-97082983D01*
X153230587Y-97070026D01*
X153230240Y-97068056D01*
X153231008Y-97067077D01*
X153231361Y-97066841D01*
X153225127Y-97057512D01*
X153224996Y-97055516D01*
X153226659Y-97054405D01*
X153227901Y-97054738D01*
G37*
G36*
X160427901Y-97054738D02*
G01*
X160440339Y-97063048D01*
X160459199Y-97066800D01*
X162208801Y-97066800D01*
X162227661Y-97063048D01*
X162240099Y-97054738D01*
X162242095Y-97054607D01*
X162243206Y-97056270D01*
X162242873Y-97057512D01*
X162236639Y-97066841D01*
X162238743Y-97068247D01*
X162239628Y-97070041D01*
X162239245Y-97071093D01*
X162222656Y-97093717D01*
X162226541Y-97153017D01*
X162237413Y-97165974D01*
X162237760Y-97167944D01*
X162236992Y-97168923D01*
X162236639Y-97169159D01*
X162242873Y-97178488D01*
X162243004Y-97180484D01*
X162241341Y-97181595D01*
X162240099Y-97181262D01*
X162227661Y-97172952D01*
X162208801Y-97169200D01*
X160459199Y-97169200D01*
X160440339Y-97172952D01*
X160427901Y-97181262D01*
X160425905Y-97181393D01*
X160424794Y-97179730D01*
X160425127Y-97178488D01*
X160431361Y-97169159D01*
X160429257Y-97167753D01*
X160428372Y-97165959D01*
X160428755Y-97164907D01*
X160445344Y-97142283D01*
X160441459Y-97082983D01*
X160430587Y-97070026D01*
X160430240Y-97068056D01*
X160431008Y-97067077D01*
X160431361Y-97066841D01*
X160425127Y-97057512D01*
X160424996Y-97055516D01*
X160426659Y-97054405D01*
X160427901Y-97054738D01*
G37*
G36*
X153227901Y-96404738D02*
G01*
X153240339Y-96413048D01*
X153259199Y-96416800D01*
X155008801Y-96416800D01*
X155027661Y-96413048D01*
X155040099Y-96404738D01*
X155042095Y-96404607D01*
X155043206Y-96406270D01*
X155042873Y-96407512D01*
X155036639Y-96416841D01*
X155038743Y-96418247D01*
X155039628Y-96420041D01*
X155039245Y-96421093D01*
X155022656Y-96443717D01*
X155026541Y-96503017D01*
X155037413Y-96515974D01*
X155037760Y-96517944D01*
X155036992Y-96518923D01*
X155036639Y-96519159D01*
X155042873Y-96528488D01*
X155043004Y-96530484D01*
X155041341Y-96531595D01*
X155040099Y-96531262D01*
X155027661Y-96522952D01*
X155008801Y-96519200D01*
X153259199Y-96519200D01*
X153240339Y-96522952D01*
X153227901Y-96531262D01*
X153225905Y-96531393D01*
X153224794Y-96529730D01*
X153225127Y-96528488D01*
X153231361Y-96519159D01*
X153229257Y-96517753D01*
X153228372Y-96515959D01*
X153228755Y-96514907D01*
X153245344Y-96492283D01*
X153241459Y-96432983D01*
X153230587Y-96420026D01*
X153230240Y-96418056D01*
X153231008Y-96417077D01*
X153231361Y-96416841D01*
X153225127Y-96407512D01*
X153224996Y-96405516D01*
X153226659Y-96404405D01*
X153227901Y-96404738D01*
G37*
G36*
X160427901Y-96404738D02*
G01*
X160440339Y-96413048D01*
X160459199Y-96416800D01*
X162208801Y-96416800D01*
X162227661Y-96413048D01*
X162240099Y-96404738D01*
X162242095Y-96404607D01*
X162243206Y-96406270D01*
X162242873Y-96407512D01*
X162236639Y-96416841D01*
X162238743Y-96418247D01*
X162239628Y-96420041D01*
X162239245Y-96421093D01*
X162222656Y-96443717D01*
X162226541Y-96503017D01*
X162237413Y-96515974D01*
X162237760Y-96517944D01*
X162236992Y-96518923D01*
X162236639Y-96519159D01*
X162242873Y-96528488D01*
X162243004Y-96530484D01*
X162241341Y-96531595D01*
X162240099Y-96531262D01*
X162227661Y-96522952D01*
X162208801Y-96519200D01*
X160459199Y-96519200D01*
X160440339Y-96522952D01*
X160427901Y-96531262D01*
X160425905Y-96531393D01*
X160424794Y-96529730D01*
X160425127Y-96528488D01*
X160431361Y-96519159D01*
X160429257Y-96517753D01*
X160428372Y-96515959D01*
X160428755Y-96514907D01*
X160445344Y-96492283D01*
X160441459Y-96432983D01*
X160430587Y-96420026D01*
X160430240Y-96418056D01*
X160431008Y-96417077D01*
X160431361Y-96416841D01*
X160425127Y-96407512D01*
X160424996Y-96405516D01*
X160426659Y-96404405D01*
X160427901Y-96404738D01*
G37*
G36*
X131898990Y-94880054D02*
G01*
X131899158Y-94881329D01*
X131896200Y-94896199D01*
X131896200Y-96395801D01*
X131899158Y-96410671D01*
X131898515Y-96412565D01*
X131896553Y-96412955D01*
X131895533Y-96412172D01*
X131892451Y-96407559D01*
X131844281Y-96372241D01*
X131784980Y-96376127D01*
X131747587Y-96407503D01*
X131744467Y-96412172D01*
X131742673Y-96413057D01*
X131741010Y-96411946D01*
X131740842Y-96410671D01*
X131743800Y-96395801D01*
X131743800Y-94896199D01*
X131740842Y-94881329D01*
X131741485Y-94879435D01*
X131743447Y-94879045D01*
X131744467Y-94879828D01*
X131747549Y-94884441D01*
X131795719Y-94919759D01*
X131855020Y-94915873D01*
X131892413Y-94884497D01*
X131895533Y-94879828D01*
X131897327Y-94878943D01*
X131898990Y-94880054D01*
G37*
G36*
X137498990Y-94880054D02*
G01*
X137499158Y-94881329D01*
X137496200Y-94896199D01*
X137496200Y-96395801D01*
X137499158Y-96410671D01*
X137498515Y-96412565D01*
X137496553Y-96412955D01*
X137495533Y-96412172D01*
X137492451Y-96407559D01*
X137444281Y-96372241D01*
X137384980Y-96376127D01*
X137347587Y-96407503D01*
X137344467Y-96412172D01*
X137342673Y-96413057D01*
X137341010Y-96411946D01*
X137340842Y-96410671D01*
X137343800Y-96395801D01*
X137343800Y-94896199D01*
X137340842Y-94881329D01*
X137341485Y-94879435D01*
X137343447Y-94879045D01*
X137344467Y-94879828D01*
X137347549Y-94884441D01*
X137395719Y-94919759D01*
X137455020Y-94915873D01*
X137492413Y-94884497D01*
X137495533Y-94879828D01*
X137497327Y-94878943D01*
X137498990Y-94880054D01*
G37*
G36*
X133498990Y-94880054D02*
G01*
X133499158Y-94881329D01*
X133496200Y-94896199D01*
X133496200Y-96395801D01*
X133499158Y-96410671D01*
X133498515Y-96412565D01*
X133496553Y-96412955D01*
X133495533Y-96412172D01*
X133492451Y-96407559D01*
X133444281Y-96372241D01*
X133384980Y-96376127D01*
X133347587Y-96407503D01*
X133344467Y-96412172D01*
X133342673Y-96413057D01*
X133341010Y-96411946D01*
X133340842Y-96410671D01*
X133343800Y-96395801D01*
X133343800Y-94896199D01*
X133340842Y-94881329D01*
X133341485Y-94879435D01*
X133343447Y-94879045D01*
X133344467Y-94879828D01*
X133347549Y-94884441D01*
X133395719Y-94919759D01*
X133455020Y-94915873D01*
X133492413Y-94884497D01*
X133495533Y-94879828D01*
X133497327Y-94878943D01*
X133498990Y-94880054D01*
G37*
G36*
X135098990Y-94880054D02*
G01*
X135099158Y-94881329D01*
X135096200Y-94896199D01*
X135096200Y-96395801D01*
X135099158Y-96410671D01*
X135098515Y-96412565D01*
X135096553Y-96412955D01*
X135095533Y-96412172D01*
X135092451Y-96407559D01*
X135044281Y-96372241D01*
X134984980Y-96376127D01*
X134947587Y-96407503D01*
X134944467Y-96412172D01*
X134942673Y-96413057D01*
X134941010Y-96411946D01*
X134940842Y-96410671D01*
X134943800Y-96395801D01*
X134943800Y-94896199D01*
X134940842Y-94881329D01*
X134941485Y-94879435D01*
X134943447Y-94879045D01*
X134944467Y-94879828D01*
X134947549Y-94884441D01*
X134995719Y-94919759D01*
X135055020Y-94915873D01*
X135092413Y-94884497D01*
X135095533Y-94879828D01*
X135097327Y-94878943D01*
X135098990Y-94880054D01*
G37*
G36*
X134298990Y-94880054D02*
G01*
X134299158Y-94881329D01*
X134296200Y-94896199D01*
X134296200Y-96395801D01*
X134299158Y-96410671D01*
X134298515Y-96412565D01*
X134296553Y-96412955D01*
X134295533Y-96412172D01*
X134292451Y-96407559D01*
X134244281Y-96372241D01*
X134184980Y-96376127D01*
X134147587Y-96407503D01*
X134144467Y-96412172D01*
X134142673Y-96413057D01*
X134141010Y-96411946D01*
X134140842Y-96410671D01*
X134143800Y-96395801D01*
X134143800Y-94896199D01*
X134140842Y-94881329D01*
X134141485Y-94879435D01*
X134143447Y-94879045D01*
X134144467Y-94879828D01*
X134147549Y-94884441D01*
X134195719Y-94919759D01*
X134255020Y-94915873D01*
X134292413Y-94884497D01*
X134295533Y-94879828D01*
X134297327Y-94878943D01*
X134298990Y-94880054D01*
G37*
G36*
X131098990Y-94880054D02*
G01*
X131099158Y-94881329D01*
X131096200Y-94896199D01*
X131096200Y-96395801D01*
X131099158Y-96410671D01*
X131098515Y-96412565D01*
X131096553Y-96412955D01*
X131095533Y-96412172D01*
X131092451Y-96407559D01*
X131044281Y-96372241D01*
X130984980Y-96376127D01*
X130947587Y-96407503D01*
X130944467Y-96412172D01*
X130942673Y-96413057D01*
X130941010Y-96411946D01*
X130940842Y-96410671D01*
X130943800Y-96395801D01*
X130943800Y-94896199D01*
X130940842Y-94881329D01*
X130941485Y-94879435D01*
X130943447Y-94879045D01*
X130944467Y-94879828D01*
X130947549Y-94884441D01*
X130995719Y-94919759D01*
X131055020Y-94915873D01*
X131092413Y-94884497D01*
X131095533Y-94879828D01*
X131097327Y-94878943D01*
X131098990Y-94880054D01*
G37*
G36*
X138298990Y-94880054D02*
G01*
X138299158Y-94881329D01*
X138296200Y-94896199D01*
X138296200Y-96395801D01*
X138299158Y-96410671D01*
X138298515Y-96412565D01*
X138296553Y-96412955D01*
X138295533Y-96412172D01*
X138292451Y-96407559D01*
X138244281Y-96372241D01*
X138184980Y-96376127D01*
X138147587Y-96407503D01*
X138144467Y-96412172D01*
X138142673Y-96413057D01*
X138141010Y-96411946D01*
X138140842Y-96410671D01*
X138143800Y-96395801D01*
X138143800Y-94896199D01*
X138140842Y-94881329D01*
X138141485Y-94879435D01*
X138143447Y-94879045D01*
X138144467Y-94879828D01*
X138147549Y-94884441D01*
X138195719Y-94919759D01*
X138255020Y-94915873D01*
X138292413Y-94884497D01*
X138295533Y-94879828D01*
X138297327Y-94878943D01*
X138298990Y-94880054D01*
G37*
G36*
X132698990Y-94880054D02*
G01*
X132699158Y-94881329D01*
X132696200Y-94896199D01*
X132696200Y-96395801D01*
X132699158Y-96410671D01*
X132698515Y-96412565D01*
X132696553Y-96412955D01*
X132695533Y-96412172D01*
X132692451Y-96407559D01*
X132644281Y-96372241D01*
X132584980Y-96376127D01*
X132547587Y-96407503D01*
X132544467Y-96412172D01*
X132542673Y-96413057D01*
X132541010Y-96411946D01*
X132540842Y-96410671D01*
X132543800Y-96395801D01*
X132543800Y-94896199D01*
X132540842Y-94881329D01*
X132541485Y-94879435D01*
X132543447Y-94879045D01*
X132544467Y-94879828D01*
X132547549Y-94884441D01*
X132595719Y-94919759D01*
X132655020Y-94915873D01*
X132692413Y-94884497D01*
X132695533Y-94879828D01*
X132697327Y-94878943D01*
X132698990Y-94880054D01*
G37*
G36*
X135898990Y-94880054D02*
G01*
X135899158Y-94881329D01*
X135896200Y-94896199D01*
X135896200Y-96395801D01*
X135899158Y-96410671D01*
X135898515Y-96412565D01*
X135896553Y-96412955D01*
X135895533Y-96412172D01*
X135892451Y-96407559D01*
X135844281Y-96372241D01*
X135784980Y-96376127D01*
X135747587Y-96407503D01*
X135744467Y-96412172D01*
X135742673Y-96413057D01*
X135741010Y-96411946D01*
X135740842Y-96410671D01*
X135743800Y-96395801D01*
X135743800Y-94896199D01*
X135740842Y-94881329D01*
X135741485Y-94879435D01*
X135743447Y-94879045D01*
X135744467Y-94879828D01*
X135747549Y-94884441D01*
X135795719Y-94919759D01*
X135855020Y-94915873D01*
X135892413Y-94884497D01*
X135895533Y-94879828D01*
X135897327Y-94878943D01*
X135898990Y-94880054D01*
G37*
G36*
X136698990Y-94880054D02*
G01*
X136699158Y-94881329D01*
X136696200Y-94896199D01*
X136696200Y-96395801D01*
X136699158Y-96410671D01*
X136698515Y-96412565D01*
X136696553Y-96412955D01*
X136695533Y-96412172D01*
X136692451Y-96407559D01*
X136644281Y-96372241D01*
X136584980Y-96376127D01*
X136547587Y-96407503D01*
X136544467Y-96412172D01*
X136542673Y-96413057D01*
X136541010Y-96411946D01*
X136540842Y-96410671D01*
X136543800Y-96395801D01*
X136543800Y-94896199D01*
X136540842Y-94881329D01*
X136541485Y-94879435D01*
X136543447Y-94879045D01*
X136544467Y-94879828D01*
X136547549Y-94884441D01*
X136595719Y-94919759D01*
X136655020Y-94915873D01*
X136692413Y-94884497D01*
X136695533Y-94879828D01*
X136697327Y-94878943D01*
X136698990Y-94880054D01*
G37*
G36*
X160427901Y-95754738D02*
G01*
X160440339Y-95763048D01*
X160459199Y-95766800D01*
X162208801Y-95766800D01*
X162227661Y-95763048D01*
X162240099Y-95754738D01*
X162242095Y-95754607D01*
X162243206Y-95756270D01*
X162242873Y-95757512D01*
X162236639Y-95766841D01*
X162238743Y-95768247D01*
X162239628Y-95770041D01*
X162239245Y-95771093D01*
X162222656Y-95793717D01*
X162226541Y-95853017D01*
X162237413Y-95865974D01*
X162237760Y-95867944D01*
X162236992Y-95868923D01*
X162236639Y-95869159D01*
X162242873Y-95878488D01*
X162243004Y-95880484D01*
X162241341Y-95881595D01*
X162240099Y-95881262D01*
X162227661Y-95872952D01*
X162208801Y-95869200D01*
X160459199Y-95869200D01*
X160440339Y-95872952D01*
X160427901Y-95881262D01*
X160425905Y-95881393D01*
X160424794Y-95879730D01*
X160425127Y-95878488D01*
X160431361Y-95869159D01*
X160429257Y-95867753D01*
X160428372Y-95865959D01*
X160428755Y-95864907D01*
X160445344Y-95842283D01*
X160441459Y-95782983D01*
X160430587Y-95770026D01*
X160430240Y-95768056D01*
X160431008Y-95767077D01*
X160431361Y-95766841D01*
X160425127Y-95757512D01*
X160424996Y-95755516D01*
X160426659Y-95754405D01*
X160427901Y-95754738D01*
G37*
G36*
X153227901Y-95754738D02*
G01*
X153240339Y-95763048D01*
X153259199Y-95766800D01*
X155008801Y-95766800D01*
X155027661Y-95763048D01*
X155040099Y-95754738D01*
X155042095Y-95754607D01*
X155043206Y-95756270D01*
X155042873Y-95757512D01*
X155036639Y-95766841D01*
X155038743Y-95768247D01*
X155039628Y-95770041D01*
X155039245Y-95771093D01*
X155022656Y-95793717D01*
X155026541Y-95853017D01*
X155037413Y-95865974D01*
X155037760Y-95867944D01*
X155036992Y-95868923D01*
X155036639Y-95869159D01*
X155042873Y-95878488D01*
X155043004Y-95880484D01*
X155041341Y-95881595D01*
X155040099Y-95881262D01*
X155027661Y-95872952D01*
X155008801Y-95869200D01*
X153259199Y-95869200D01*
X153240339Y-95872952D01*
X153227901Y-95881262D01*
X153225905Y-95881393D01*
X153224794Y-95879730D01*
X153225127Y-95878488D01*
X153231361Y-95869159D01*
X153229257Y-95867753D01*
X153228372Y-95865959D01*
X153228755Y-95864907D01*
X153245344Y-95842283D01*
X153241459Y-95782983D01*
X153230587Y-95770026D01*
X153230240Y-95768056D01*
X153231008Y-95767077D01*
X153231361Y-95766841D01*
X153225127Y-95757512D01*
X153224996Y-95755516D01*
X153226659Y-95754405D01*
X153227901Y-95754738D01*
G37*
G36*
X160427901Y-95104738D02*
G01*
X160440339Y-95113048D01*
X160459199Y-95116800D01*
X162208801Y-95116800D01*
X162227661Y-95113048D01*
X162240099Y-95104738D01*
X162242095Y-95104607D01*
X162243206Y-95106270D01*
X162242873Y-95107512D01*
X162236639Y-95116841D01*
X162238743Y-95118247D01*
X162239628Y-95120041D01*
X162239245Y-95121093D01*
X162222656Y-95143717D01*
X162226541Y-95203017D01*
X162237413Y-95215974D01*
X162237760Y-95217944D01*
X162236992Y-95218923D01*
X162236639Y-95219159D01*
X162242873Y-95228488D01*
X162243004Y-95230484D01*
X162241341Y-95231595D01*
X162240099Y-95231262D01*
X162227661Y-95222952D01*
X162208801Y-95219200D01*
X160459199Y-95219200D01*
X160440339Y-95222952D01*
X160427901Y-95231262D01*
X160425905Y-95231393D01*
X160424794Y-95229730D01*
X160425127Y-95228488D01*
X160431361Y-95219159D01*
X160429257Y-95217753D01*
X160428372Y-95215959D01*
X160428755Y-95214907D01*
X160445344Y-95192283D01*
X160441459Y-95132983D01*
X160430587Y-95120026D01*
X160430240Y-95118056D01*
X160431008Y-95117077D01*
X160431361Y-95116841D01*
X160425127Y-95107512D01*
X160424996Y-95105516D01*
X160426659Y-95104405D01*
X160427901Y-95104738D01*
G37*
G36*
X153227901Y-95104738D02*
G01*
X153240339Y-95113048D01*
X153259199Y-95116800D01*
X155008801Y-95116800D01*
X155027661Y-95113048D01*
X155040099Y-95104738D01*
X155042095Y-95104607D01*
X155043206Y-95106270D01*
X155042873Y-95107512D01*
X155036639Y-95116841D01*
X155038743Y-95118247D01*
X155039628Y-95120041D01*
X155039245Y-95121093D01*
X155022656Y-95143717D01*
X155026541Y-95203017D01*
X155037413Y-95215974D01*
X155037760Y-95217944D01*
X155036992Y-95218923D01*
X155036639Y-95219159D01*
X155042873Y-95228488D01*
X155043004Y-95230484D01*
X155041341Y-95231595D01*
X155040099Y-95231262D01*
X155027661Y-95222952D01*
X155008801Y-95219200D01*
X153259199Y-95219200D01*
X153240339Y-95222952D01*
X153227901Y-95231262D01*
X153225905Y-95231393D01*
X153224794Y-95229730D01*
X153225127Y-95228488D01*
X153231361Y-95219159D01*
X153229257Y-95217753D01*
X153228372Y-95215959D01*
X153228755Y-95214907D01*
X153245344Y-95192283D01*
X153241459Y-95132983D01*
X153230587Y-95120026D01*
X153230240Y-95118056D01*
X153231008Y-95117077D01*
X153231361Y-95116841D01*
X153225127Y-95107512D01*
X153224996Y-95105516D01*
X153226659Y-95104405D01*
X153227901Y-95104738D01*
G37*
G36*
X153227901Y-94454738D02*
G01*
X153240339Y-94463048D01*
X153259199Y-94466800D01*
X155008801Y-94466800D01*
X155027661Y-94463048D01*
X155040099Y-94454738D01*
X155042095Y-94454607D01*
X155043206Y-94456270D01*
X155042873Y-94457512D01*
X155036639Y-94466841D01*
X155038743Y-94468247D01*
X155039628Y-94470041D01*
X155039245Y-94471093D01*
X155022656Y-94493717D01*
X155026541Y-94553017D01*
X155037413Y-94565974D01*
X155037760Y-94567944D01*
X155036992Y-94568923D01*
X155036639Y-94569159D01*
X155042873Y-94578488D01*
X155043004Y-94580484D01*
X155041341Y-94581595D01*
X155040099Y-94581262D01*
X155027661Y-94572952D01*
X155008801Y-94569200D01*
X153259199Y-94569200D01*
X153240339Y-94572952D01*
X153227901Y-94581262D01*
X153225905Y-94581393D01*
X153224794Y-94579730D01*
X153225127Y-94578488D01*
X153231361Y-94569159D01*
X153229257Y-94567753D01*
X153228372Y-94565959D01*
X153228755Y-94564907D01*
X153245344Y-94542283D01*
X153241459Y-94482983D01*
X153230587Y-94470026D01*
X153230240Y-94468056D01*
X153231008Y-94467077D01*
X153231361Y-94466841D01*
X153225127Y-94457512D01*
X153224996Y-94455516D01*
X153226659Y-94454405D01*
X153227901Y-94454738D01*
G37*
G36*
X160427901Y-94454738D02*
G01*
X160440339Y-94463048D01*
X160459199Y-94466800D01*
X162208801Y-94466800D01*
X162227661Y-94463048D01*
X162240099Y-94454738D01*
X162242095Y-94454607D01*
X162243206Y-94456270D01*
X162242873Y-94457512D01*
X162236639Y-94466841D01*
X162238743Y-94468247D01*
X162239628Y-94470041D01*
X162239245Y-94471093D01*
X162222656Y-94493717D01*
X162226541Y-94553017D01*
X162237413Y-94565974D01*
X162237760Y-94567944D01*
X162236992Y-94568923D01*
X162236639Y-94569159D01*
X162242873Y-94578488D01*
X162243004Y-94580484D01*
X162241341Y-94581595D01*
X162240099Y-94581262D01*
X162227661Y-94572952D01*
X162208801Y-94569200D01*
X160459199Y-94569200D01*
X160440339Y-94572952D01*
X160427901Y-94581262D01*
X160425905Y-94581393D01*
X160424794Y-94579730D01*
X160425127Y-94578488D01*
X160431361Y-94569159D01*
X160429257Y-94567753D01*
X160428372Y-94565959D01*
X160428755Y-94564907D01*
X160445344Y-94542283D01*
X160441459Y-94482983D01*
X160430587Y-94470026D01*
X160430240Y-94468056D01*
X160431008Y-94467077D01*
X160431361Y-94466841D01*
X160425127Y-94457512D01*
X160424996Y-94455516D01*
X160426659Y-94454405D01*
X160427901Y-94454738D01*
G37*
G36*
X160427901Y-93804738D02*
G01*
X160440339Y-93813048D01*
X160459199Y-93816800D01*
X162208801Y-93816800D01*
X162227661Y-93813048D01*
X162240099Y-93804738D01*
X162242095Y-93804607D01*
X162243206Y-93806270D01*
X162242873Y-93807512D01*
X162236639Y-93816841D01*
X162238743Y-93818247D01*
X162239628Y-93820041D01*
X162239245Y-93821093D01*
X162222656Y-93843717D01*
X162226541Y-93903017D01*
X162237413Y-93915974D01*
X162237760Y-93917944D01*
X162236992Y-93918923D01*
X162236639Y-93919159D01*
X162242873Y-93928488D01*
X162243004Y-93930484D01*
X162241341Y-93931595D01*
X162240099Y-93931262D01*
X162227661Y-93922952D01*
X162208801Y-93919200D01*
X160459199Y-93919200D01*
X160440339Y-93922952D01*
X160427901Y-93931262D01*
X160425905Y-93931393D01*
X160424794Y-93929730D01*
X160425127Y-93928488D01*
X160431361Y-93919159D01*
X160429257Y-93917753D01*
X160428372Y-93915959D01*
X160428755Y-93914907D01*
X160445344Y-93892283D01*
X160441459Y-93832983D01*
X160430587Y-93820026D01*
X160430240Y-93818056D01*
X160431008Y-93817077D01*
X160431361Y-93816841D01*
X160425127Y-93807512D01*
X160424996Y-93805516D01*
X160426659Y-93804405D01*
X160427901Y-93804738D01*
G37*
G36*
X153227901Y-93804738D02*
G01*
X153240339Y-93813048D01*
X153259199Y-93816800D01*
X155008801Y-93816800D01*
X155027661Y-93813048D01*
X155040099Y-93804738D01*
X155042095Y-93804607D01*
X155043206Y-93806270D01*
X155042873Y-93807512D01*
X155036639Y-93816841D01*
X155038743Y-93818247D01*
X155039628Y-93820041D01*
X155039245Y-93821093D01*
X155022656Y-93843717D01*
X155026541Y-93903017D01*
X155037413Y-93915974D01*
X155037760Y-93917944D01*
X155036992Y-93918923D01*
X155036639Y-93919159D01*
X155042873Y-93928488D01*
X155043004Y-93930484D01*
X155041341Y-93931595D01*
X155040099Y-93931262D01*
X155027661Y-93922952D01*
X155008801Y-93919200D01*
X153259199Y-93919200D01*
X153240339Y-93922952D01*
X153227901Y-93931262D01*
X153225905Y-93931393D01*
X153224794Y-93929730D01*
X153225127Y-93928488D01*
X153231361Y-93919159D01*
X153229257Y-93917753D01*
X153228372Y-93915959D01*
X153228755Y-93914907D01*
X153245344Y-93892283D01*
X153241459Y-93832983D01*
X153230587Y-93820026D01*
X153230240Y-93818056D01*
X153231008Y-93817077D01*
X153231361Y-93816841D01*
X153225127Y-93807512D01*
X153224996Y-93805516D01*
X153226659Y-93804405D01*
X153227901Y-93804738D01*
G37*
G36*
X160427901Y-93154738D02*
G01*
X160440339Y-93163048D01*
X160459199Y-93166800D01*
X162208801Y-93166800D01*
X162227661Y-93163048D01*
X162240099Y-93154738D01*
X162242095Y-93154607D01*
X162243206Y-93156270D01*
X162242873Y-93157512D01*
X162236639Y-93166841D01*
X162238743Y-93168247D01*
X162239628Y-93170041D01*
X162239245Y-93171093D01*
X162222656Y-93193717D01*
X162226541Y-93253017D01*
X162237413Y-93265974D01*
X162237760Y-93267944D01*
X162236992Y-93268923D01*
X162236639Y-93269159D01*
X162242873Y-93278488D01*
X162243004Y-93280484D01*
X162241341Y-93281595D01*
X162240099Y-93281262D01*
X162227661Y-93272952D01*
X162208801Y-93269200D01*
X160459199Y-93269200D01*
X160440339Y-93272952D01*
X160427901Y-93281262D01*
X160425905Y-93281393D01*
X160424794Y-93279730D01*
X160425127Y-93278488D01*
X160431361Y-93269159D01*
X160429257Y-93267753D01*
X160428372Y-93265959D01*
X160428755Y-93264907D01*
X160445344Y-93242283D01*
X160441459Y-93182983D01*
X160430587Y-93170026D01*
X160430240Y-93168056D01*
X160431008Y-93167077D01*
X160431361Y-93166841D01*
X160425127Y-93157512D01*
X160424996Y-93155516D01*
X160426659Y-93154405D01*
X160427901Y-93154738D01*
G37*
G36*
X153227901Y-93154738D02*
G01*
X153240339Y-93163048D01*
X153259199Y-93166800D01*
X155008801Y-93166800D01*
X155027661Y-93163048D01*
X155040099Y-93154738D01*
X155042095Y-93154607D01*
X155043206Y-93156270D01*
X155042873Y-93157512D01*
X155036639Y-93166841D01*
X155038743Y-93168247D01*
X155039628Y-93170041D01*
X155039245Y-93171093D01*
X155022656Y-93193717D01*
X155026541Y-93253017D01*
X155037413Y-93265974D01*
X155037760Y-93267944D01*
X155036992Y-93268923D01*
X155036639Y-93269159D01*
X155042873Y-93278488D01*
X155043004Y-93280484D01*
X155041341Y-93281595D01*
X155040099Y-93281262D01*
X155027661Y-93272952D01*
X155008801Y-93269200D01*
X153259199Y-93269200D01*
X153240339Y-93272952D01*
X153227901Y-93281262D01*
X153225905Y-93281393D01*
X153224794Y-93279730D01*
X153225127Y-93278488D01*
X153231361Y-93269159D01*
X153229257Y-93267753D01*
X153228372Y-93265959D01*
X153228755Y-93264907D01*
X153245344Y-93242283D01*
X153241459Y-93182983D01*
X153230587Y-93170026D01*
X153230240Y-93168056D01*
X153231008Y-93167077D01*
X153231361Y-93166841D01*
X153225127Y-93157512D01*
X153224996Y-93155516D01*
X153226659Y-93154405D01*
X153227901Y-93154738D01*
G37*
G36*
X160427901Y-92504738D02*
G01*
X160440339Y-92513048D01*
X160459199Y-92516800D01*
X162208801Y-92516800D01*
X162227661Y-92513048D01*
X162240099Y-92504738D01*
X162242095Y-92504607D01*
X162243206Y-92506270D01*
X162242873Y-92507512D01*
X162236639Y-92516841D01*
X162238743Y-92518247D01*
X162239628Y-92520041D01*
X162239245Y-92521093D01*
X162222656Y-92543717D01*
X162226541Y-92603017D01*
X162237413Y-92615974D01*
X162237760Y-92617944D01*
X162236992Y-92618923D01*
X162236639Y-92619159D01*
X162242873Y-92628488D01*
X162243004Y-92630484D01*
X162241341Y-92631595D01*
X162240099Y-92631262D01*
X162227661Y-92622952D01*
X162208801Y-92619200D01*
X160459199Y-92619200D01*
X160440339Y-92622952D01*
X160427901Y-92631262D01*
X160425905Y-92631393D01*
X160424794Y-92629730D01*
X160425127Y-92628488D01*
X160431361Y-92619159D01*
X160429257Y-92617753D01*
X160428372Y-92615959D01*
X160428755Y-92614907D01*
X160445344Y-92592283D01*
X160441459Y-92532983D01*
X160430587Y-92520026D01*
X160430240Y-92518056D01*
X160431008Y-92517077D01*
X160431361Y-92516841D01*
X160425127Y-92507512D01*
X160424996Y-92505516D01*
X160426659Y-92504405D01*
X160427901Y-92504738D01*
G37*
G36*
X153227901Y-92504738D02*
G01*
X153240339Y-92513048D01*
X153259199Y-92516800D01*
X155008801Y-92516800D01*
X155027661Y-92513048D01*
X155040099Y-92504738D01*
X155042095Y-92504607D01*
X155043206Y-92506270D01*
X155042873Y-92507512D01*
X155036639Y-92516841D01*
X155038743Y-92518247D01*
X155039628Y-92520041D01*
X155039245Y-92521093D01*
X155022656Y-92543717D01*
X155026541Y-92603017D01*
X155037413Y-92615974D01*
X155037760Y-92617944D01*
X155036992Y-92618923D01*
X155036639Y-92619159D01*
X155042873Y-92628488D01*
X155043004Y-92630484D01*
X155041341Y-92631595D01*
X155040099Y-92631262D01*
X155027661Y-92622952D01*
X155008801Y-92619200D01*
X153259199Y-92619200D01*
X153240339Y-92622952D01*
X153227901Y-92631262D01*
X153225905Y-92631393D01*
X153224794Y-92629730D01*
X153225127Y-92628488D01*
X153231361Y-92619159D01*
X153229257Y-92617753D01*
X153228372Y-92615959D01*
X153228755Y-92614907D01*
X153245344Y-92592283D01*
X153241459Y-92532983D01*
X153230587Y-92520026D01*
X153230240Y-92518056D01*
X153231008Y-92517077D01*
X153231361Y-92516841D01*
X153225127Y-92507512D01*
X153224996Y-92505516D01*
X153226659Y-92504405D01*
X153227901Y-92504738D01*
G37*
G36*
X153227901Y-91854738D02*
G01*
X153240339Y-91863048D01*
X153259199Y-91866800D01*
X155008801Y-91866800D01*
X155027661Y-91863048D01*
X155040099Y-91854738D01*
X155042095Y-91854607D01*
X155043206Y-91856270D01*
X155042873Y-91857512D01*
X155036639Y-91866841D01*
X155038743Y-91868247D01*
X155039628Y-91870041D01*
X155039245Y-91871093D01*
X155022656Y-91893717D01*
X155026541Y-91953017D01*
X155037413Y-91965974D01*
X155037760Y-91967944D01*
X155036992Y-91968923D01*
X155036639Y-91969159D01*
X155042873Y-91978488D01*
X155043004Y-91980484D01*
X155041341Y-91981595D01*
X155040099Y-91981262D01*
X155027661Y-91972952D01*
X155008801Y-91969200D01*
X153259199Y-91969200D01*
X153240339Y-91972952D01*
X153227901Y-91981262D01*
X153225905Y-91981393D01*
X153224794Y-91979730D01*
X153225127Y-91978488D01*
X153231361Y-91969159D01*
X153229257Y-91967753D01*
X153228372Y-91965959D01*
X153228755Y-91964907D01*
X153245344Y-91942283D01*
X153241459Y-91882983D01*
X153230587Y-91870026D01*
X153230240Y-91868056D01*
X153231008Y-91867077D01*
X153231361Y-91866841D01*
X153225127Y-91857512D01*
X153224996Y-91855516D01*
X153226659Y-91854405D01*
X153227901Y-91854738D01*
G37*
G36*
X160427901Y-91854738D02*
G01*
X160440339Y-91863048D01*
X160459199Y-91866800D01*
X162208801Y-91866800D01*
X162227661Y-91863048D01*
X162240099Y-91854738D01*
X162242095Y-91854607D01*
X162243206Y-91856270D01*
X162242873Y-91857512D01*
X162236639Y-91866841D01*
X162238743Y-91868247D01*
X162239628Y-91870041D01*
X162239245Y-91871093D01*
X162222656Y-91893717D01*
X162226541Y-91953017D01*
X162237413Y-91965974D01*
X162237760Y-91967944D01*
X162236992Y-91968923D01*
X162236639Y-91969159D01*
X162242873Y-91978488D01*
X162243004Y-91980484D01*
X162241341Y-91981595D01*
X162240099Y-91981262D01*
X162227661Y-91972952D01*
X162208801Y-91969200D01*
X160459199Y-91969200D01*
X160440339Y-91972952D01*
X160427901Y-91981262D01*
X160425905Y-91981393D01*
X160424794Y-91979730D01*
X160425127Y-91978488D01*
X160431361Y-91969159D01*
X160429257Y-91967753D01*
X160428372Y-91965959D01*
X160428755Y-91964907D01*
X160445344Y-91942283D01*
X160441459Y-91882983D01*
X160430587Y-91870026D01*
X160430240Y-91868056D01*
X160431008Y-91867077D01*
X160431361Y-91866841D01*
X160425127Y-91857512D01*
X160424996Y-91855516D01*
X160426659Y-91854405D01*
X160427901Y-91854738D01*
G37*
G36*
X153227901Y-91204738D02*
G01*
X153240339Y-91213048D01*
X153259199Y-91216800D01*
X155008801Y-91216800D01*
X155027661Y-91213048D01*
X155040099Y-91204738D01*
X155042095Y-91204607D01*
X155043206Y-91206270D01*
X155042873Y-91207512D01*
X155036639Y-91216841D01*
X155038743Y-91218247D01*
X155039628Y-91220041D01*
X155039245Y-91221093D01*
X155022656Y-91243717D01*
X155026541Y-91303017D01*
X155037413Y-91315974D01*
X155037760Y-91317944D01*
X155036992Y-91318923D01*
X155036639Y-91319159D01*
X155042873Y-91328488D01*
X155043004Y-91330484D01*
X155041341Y-91331595D01*
X155040099Y-91331262D01*
X155027661Y-91322952D01*
X155008801Y-91319200D01*
X153259199Y-91319200D01*
X153240339Y-91322952D01*
X153227901Y-91331262D01*
X153225905Y-91331393D01*
X153224794Y-91329730D01*
X153225127Y-91328488D01*
X153231361Y-91319159D01*
X153229257Y-91317753D01*
X153228372Y-91315959D01*
X153228755Y-91314907D01*
X153245344Y-91292283D01*
X153241459Y-91232983D01*
X153230587Y-91220026D01*
X153230240Y-91218056D01*
X153231008Y-91217077D01*
X153231361Y-91216841D01*
X153225127Y-91207512D01*
X153224996Y-91205516D01*
X153226659Y-91204405D01*
X153227901Y-91204738D01*
G37*
G36*
X160427901Y-91204738D02*
G01*
X160440339Y-91213048D01*
X160459199Y-91216800D01*
X162208801Y-91216800D01*
X162227661Y-91213048D01*
X162240099Y-91204738D01*
X162242095Y-91204607D01*
X162243206Y-91206270D01*
X162242873Y-91207512D01*
X162236639Y-91216841D01*
X162238743Y-91218247D01*
X162239628Y-91220041D01*
X162239245Y-91221093D01*
X162222656Y-91243717D01*
X162226541Y-91303017D01*
X162237413Y-91315974D01*
X162237760Y-91317944D01*
X162236992Y-91318923D01*
X162236639Y-91319159D01*
X162242873Y-91328488D01*
X162243004Y-91330484D01*
X162241341Y-91331595D01*
X162240099Y-91331262D01*
X162227661Y-91322952D01*
X162208801Y-91319200D01*
X160459199Y-91319200D01*
X160440339Y-91322952D01*
X160427901Y-91331262D01*
X160425905Y-91331393D01*
X160424794Y-91329730D01*
X160425127Y-91328488D01*
X160431361Y-91319159D01*
X160429257Y-91317753D01*
X160428372Y-91315959D01*
X160428755Y-91314907D01*
X160445344Y-91292283D01*
X160441459Y-91232983D01*
X160430587Y-91220026D01*
X160430240Y-91218056D01*
X160431008Y-91217077D01*
X160431361Y-91216841D01*
X160425127Y-91207512D01*
X160424996Y-91205516D01*
X160426659Y-91204405D01*
X160427901Y-91204738D01*
G37*
G36*
X160427901Y-90554738D02*
G01*
X160440339Y-90563048D01*
X160459199Y-90566800D01*
X162208801Y-90566800D01*
X162227661Y-90563048D01*
X162240099Y-90554738D01*
X162242095Y-90554607D01*
X162243206Y-90556270D01*
X162242873Y-90557512D01*
X162236639Y-90566841D01*
X162238743Y-90568247D01*
X162239628Y-90570041D01*
X162239245Y-90571093D01*
X162222656Y-90593717D01*
X162226541Y-90653017D01*
X162237413Y-90665974D01*
X162237760Y-90667944D01*
X162236992Y-90668923D01*
X162236639Y-90669159D01*
X162242873Y-90678488D01*
X162243004Y-90680484D01*
X162241341Y-90681595D01*
X162240099Y-90681262D01*
X162227661Y-90672952D01*
X162208801Y-90669200D01*
X160459199Y-90669200D01*
X160440339Y-90672952D01*
X160427901Y-90681262D01*
X160425905Y-90681393D01*
X160424794Y-90679730D01*
X160425127Y-90678488D01*
X160431361Y-90669159D01*
X160429257Y-90667753D01*
X160428372Y-90665959D01*
X160428755Y-90664907D01*
X160445344Y-90642283D01*
X160441459Y-90582983D01*
X160430587Y-90570026D01*
X160430240Y-90568056D01*
X160431008Y-90567077D01*
X160431361Y-90566841D01*
X160425127Y-90557512D01*
X160424996Y-90555516D01*
X160426659Y-90554405D01*
X160427901Y-90554738D01*
G37*
G36*
X153227901Y-90554738D02*
G01*
X153240339Y-90563048D01*
X153259199Y-90566800D01*
X155008801Y-90566800D01*
X155027661Y-90563048D01*
X155040099Y-90554738D01*
X155042095Y-90554607D01*
X155043206Y-90556270D01*
X155042873Y-90557512D01*
X155036639Y-90566841D01*
X155038743Y-90568247D01*
X155039628Y-90570041D01*
X155039245Y-90571093D01*
X155022656Y-90593717D01*
X155026541Y-90653017D01*
X155037413Y-90665974D01*
X155037760Y-90667944D01*
X155036992Y-90668923D01*
X155036639Y-90669159D01*
X155042873Y-90678488D01*
X155043004Y-90680484D01*
X155041341Y-90681595D01*
X155040099Y-90681262D01*
X155027661Y-90672952D01*
X155008801Y-90669200D01*
X153259199Y-90669200D01*
X153240339Y-90672952D01*
X153227901Y-90681262D01*
X153225905Y-90681393D01*
X153224794Y-90679730D01*
X153225127Y-90678488D01*
X153231361Y-90669159D01*
X153229257Y-90667753D01*
X153228372Y-90665959D01*
X153228755Y-90664907D01*
X153245344Y-90642283D01*
X153241459Y-90582983D01*
X153230587Y-90570026D01*
X153230240Y-90568056D01*
X153231008Y-90567077D01*
X153231361Y-90566841D01*
X153225127Y-90557512D01*
X153224996Y-90555516D01*
X153226659Y-90554405D01*
X153227901Y-90554738D01*
G37*
G36*
X160427901Y-89904738D02*
G01*
X160440339Y-89913048D01*
X160459199Y-89916800D01*
X162208801Y-89916800D01*
X162227661Y-89913048D01*
X162240099Y-89904738D01*
X162242095Y-89904607D01*
X162243206Y-89906270D01*
X162242873Y-89907512D01*
X162236639Y-89916841D01*
X162238743Y-89918247D01*
X162239628Y-89920041D01*
X162239245Y-89921093D01*
X162222656Y-89943717D01*
X162226541Y-90003017D01*
X162237413Y-90015974D01*
X162237760Y-90017944D01*
X162236992Y-90018923D01*
X162236639Y-90019159D01*
X162242873Y-90028488D01*
X162243004Y-90030484D01*
X162241341Y-90031595D01*
X162240099Y-90031262D01*
X162227661Y-90022952D01*
X162208801Y-90019200D01*
X160459199Y-90019200D01*
X160440339Y-90022952D01*
X160427901Y-90031262D01*
X160425905Y-90031393D01*
X160424794Y-90029730D01*
X160425127Y-90028488D01*
X160431361Y-90019159D01*
X160429257Y-90017753D01*
X160428372Y-90015959D01*
X160428755Y-90014907D01*
X160445344Y-89992283D01*
X160441459Y-89932983D01*
X160430587Y-89920026D01*
X160430240Y-89918056D01*
X160431008Y-89917077D01*
X160431361Y-89916841D01*
X160425127Y-89907512D01*
X160424996Y-89905516D01*
X160426659Y-89904405D01*
X160427901Y-89904738D01*
G37*
G36*
X153227901Y-89904738D02*
G01*
X153240339Y-89913048D01*
X153259199Y-89916800D01*
X155008801Y-89916800D01*
X155027661Y-89913048D01*
X155040099Y-89904738D01*
X155042095Y-89904607D01*
X155043206Y-89906270D01*
X155042873Y-89907512D01*
X155036639Y-89916841D01*
X155038743Y-89918247D01*
X155039628Y-89920041D01*
X155039245Y-89921093D01*
X155022656Y-89943717D01*
X155026541Y-90003017D01*
X155037413Y-90015974D01*
X155037760Y-90017944D01*
X155036992Y-90018923D01*
X155036639Y-90019159D01*
X155042873Y-90028488D01*
X155043004Y-90030484D01*
X155041341Y-90031595D01*
X155040099Y-90031262D01*
X155027661Y-90022952D01*
X155008801Y-90019200D01*
X153259199Y-90019200D01*
X153240339Y-90022952D01*
X153227901Y-90031262D01*
X153225905Y-90031393D01*
X153224794Y-90029730D01*
X153225127Y-90028488D01*
X153231361Y-90019159D01*
X153229257Y-90017753D01*
X153228372Y-90015959D01*
X153228755Y-90014907D01*
X153245344Y-89992283D01*
X153241459Y-89932983D01*
X153230587Y-89920026D01*
X153230240Y-89918056D01*
X153231008Y-89917077D01*
X153231361Y-89916841D01*
X153225127Y-89907512D01*
X153224996Y-89905516D01*
X153226659Y-89904405D01*
X153227901Y-89904738D01*
G37*
G36*
X153227901Y-89254738D02*
G01*
X153240339Y-89263048D01*
X153259199Y-89266800D01*
X155008801Y-89266800D01*
X155027661Y-89263048D01*
X155040099Y-89254738D01*
X155042095Y-89254607D01*
X155043206Y-89256270D01*
X155042873Y-89257512D01*
X155036639Y-89266841D01*
X155038743Y-89268247D01*
X155039628Y-89270041D01*
X155039245Y-89271093D01*
X155022656Y-89293717D01*
X155026541Y-89353017D01*
X155037413Y-89365974D01*
X155037760Y-89367944D01*
X155036992Y-89368923D01*
X155036639Y-89369159D01*
X155042873Y-89378488D01*
X155043004Y-89380484D01*
X155041341Y-89381595D01*
X155040099Y-89381262D01*
X155027661Y-89372952D01*
X155008801Y-89369200D01*
X153259199Y-89369200D01*
X153240339Y-89372952D01*
X153227901Y-89381262D01*
X153225905Y-89381393D01*
X153224794Y-89379730D01*
X153225127Y-89378488D01*
X153231361Y-89369159D01*
X153229257Y-89367753D01*
X153228372Y-89365959D01*
X153228755Y-89364907D01*
X153245344Y-89342283D01*
X153241459Y-89282983D01*
X153230587Y-89270026D01*
X153230240Y-89268056D01*
X153231008Y-89267077D01*
X153231361Y-89266841D01*
X153225127Y-89257512D01*
X153224996Y-89255516D01*
X153226659Y-89254405D01*
X153227901Y-89254738D01*
G37*
G36*
X160427901Y-89254738D02*
G01*
X160440339Y-89263048D01*
X160459199Y-89266800D01*
X162208801Y-89266800D01*
X162227661Y-89263048D01*
X162240099Y-89254738D01*
X162242095Y-89254607D01*
X162243206Y-89256270D01*
X162242873Y-89257512D01*
X162236639Y-89266841D01*
X162238743Y-89268247D01*
X162239628Y-89270041D01*
X162239245Y-89271093D01*
X162222656Y-89293717D01*
X162226541Y-89353017D01*
X162237413Y-89365974D01*
X162237760Y-89367944D01*
X162236992Y-89368923D01*
X162236639Y-89369159D01*
X162242873Y-89378488D01*
X162243004Y-89380484D01*
X162241341Y-89381595D01*
X162240099Y-89381262D01*
X162227661Y-89372952D01*
X162208801Y-89369200D01*
X160459199Y-89369200D01*
X160440339Y-89372952D01*
X160427901Y-89381262D01*
X160425905Y-89381393D01*
X160424794Y-89379730D01*
X160425127Y-89378488D01*
X160431361Y-89369159D01*
X160429257Y-89367753D01*
X160428372Y-89365959D01*
X160428755Y-89364907D01*
X160445344Y-89342283D01*
X160441459Y-89282983D01*
X160430587Y-89270026D01*
X160430240Y-89268056D01*
X160431008Y-89267077D01*
X160431361Y-89266841D01*
X160425127Y-89257512D01*
X160424996Y-89255516D01*
X160426659Y-89254405D01*
X160427901Y-89254738D01*
G37*
M02*
